<svg width="500" height="356" viewBox="0 0 500 356" fill="none" xmlns="http://www.w3.org/2000/svg">
<path opacity="0.1" d="M46.4795 15.4051C44.441 19.5584 47.3775 24.0409 46.3493 28.3295C45.0741 33.741 37.7597 37.9529 29.8795 40.6407C21.9993 43.3284 13.1987 44.9608 5.51612 47.856C2.19343 49.1051 -1.26845 51.4095 0.460245 53.529C1.05743 54.2641 2.17996 54.7782 3.27106 55.2607C25.6408 65.0735 53.2955 70.4039 80.9501 70.2325C110.172 70.0476 138.792 63.9191 167.991 64.6226C205.654 65.5245 242.078 77.7274 279.315 74.2099C295.124 72.7173 309.811 68.4602 325.199 65.8041C347.838 61.8943 371.649 61.5019 395.092 60.2167C412.698 59.2517 432.809 56.7489 441.228 47.3419C447.308 40.5414 444.757 31.5584 436.19 25.7997C427.623 20.0409 413.937 17.5787 401.289 18.6971C394.491 19.2968 387.733 20.8526 380.939 20.2348C376.993 19.8741 373.338 18.8008 369.75 17.7455C341.911 9.53811 313.044 1.34872 282.125 0.158193C231.814 -1.79445 185.224 14.8369 136.232 22.0296C128.599 23.148 120.319 24.0094 113.113 22.1334C105.516 20.1537 100.54 15.4772 92.9387 13.5066C89.3466 12.5686 85.3055 12.298 81.7538 11.2788C71.9968 8.47386 76.5139 4.61818 62.9941 7.2202C55.8997 8.57758 48.756 10.7692 46.4795 15.4051Z" transform="translate(15.6279 247.62)" fill="#1162FB"/>
<path d="M8.76976e-06 118.638C8.76976e-06 118.638 33.4424 65.8398 37.4835 43.2919C41.5246 20.744 49.1578 -5.50485e-07 49.1578 -5.50485e-07" transform="translate(321.636 5.86243)" stroke="#535461" stroke-width="2" stroke-miterlimit="10"/>
<path d="M21.1036 -5.50485e-07L0 1.80383C0 1.80383 11.2253 21.195 21.1036 -5.50485e-07Z" transform="translate(357.324 50.9583)" fill="#1162FB"/>
<path d="M0.732636 -5.50485e-07L17.4448 13.443C17.4448 13.443 -4.20649 22.0969 0.732636 -5.50485e-07Z" transform="translate(340.876 39.2334)" fill="#1162FB"/>
<path d="M19.0022 -5.50485e-07L-3.28866e-06 2.55693C-3.28866e-06 2.55693 16.7571 16.2345 19.0022 -5.50485e-07Z" transform="translate(362.119 32.469)" fill="#1162FB"/>
<path d="M0.319305 -5.50485e-07L12.8647 8.84328C12.8647 8.84328 -2.37477 15.3326 0.319305 -5.50485e-07Z" transform="translate(349.372 25.7046)" fill="#1162FB"/>
<path d="M-1.09622e-06 3.37081C-1.09622e-06 3.37081 15.5762 -0.773494 17.8213 0.128421C20.0663 1.03034 18.7193 10.9514 12.4331 11.4024C6.14697 11.8533 -1.09622e-06 3.37081 -1.09622e-06 3.37081Z" transform="translate(366.892 14.3022)" fill="#1162FB"/>
<path d="M3.78854 -5.50485e-07C3.78854 -5.50485e-07 13.6668 9.47011 14.1158 11.7249C14.5648 13.9797 6.0336 19.3912 1.54348 11.7249C-2.94664 4.05862 3.78854 -5.50485e-07 3.78854 -5.50485e-07Z" transform="translate(352.637 5.86243)" fill="#1162FB"/>
<path d="M4.49011 9.01915C6.96994 9.01915 8.98023 7.00014 8.98023 4.50958C8.98023 2.01901 6.96994 0 4.49011 0C2.01029 0 -5.4811e-06 2.01901 -5.4811e-06 4.50958C-5.4811e-06 7.00014 2.01029 9.01915 4.49011 9.01915Z" transform="translate(370.345 2.25488)" fill="#FFD037"/>
<path d="M4.49011 9.01915C6.96994 9.01915 8.98023 7.00014 8.98023 4.50958C8.98023 2.01901 6.96994 0 4.49011 0C2.01029 0 -5.4811e-06 2.01901 -5.4811e-06 4.50958C-5.4811e-06 7.00014 2.01029 9.01915 4.49011 9.01915Z" transform="translate(362.263)" fill="#FFD037"/>
<path d="M7.88016 123.152C7.88016 123.152 -6.4074 85.488 4.82239 56.0721C9.53701 43.7249 10.3722 30.2142 6.7711 17.4926C5.05039 11.4664 2.7839 5.6111 3.01461e-06 0" transform="translate(65.3354 155.792)" stroke="#535461" stroke-width="2" stroke-miterlimit="10"/>
<path d="M17.0568 7.91535C17.4204 12.6414 9.96685 27.0044 9.96685 27.0044C9.96685 27.0044 0.389426 13.9717 0.025726 9.24566C-0.149925 6.97683 0.579028 4.73084 2.05221 3.00178C3.5254 1.27273 5.62214 0.202259 7.88119 0.0258471C10.1402 -0.150565 12.3765 0.581533 14.0981 2.0611C15.8197 3.54067 16.8856 5.64651 17.0612 7.91535H17.0568Z" transform="translate(55.2427 129.28)" fill="#1162FB"/>
<path d="M16.4951 12.6701C14.2501 16.837 0.213957 24.8234 0.213957 24.8234C0.213957 24.8234 -0.769383 8.65661 1.48017 4.48977C2.56027 2.48943 4.38734 1.00197 6.55944 0.354576C8.73153 -0.292815 11.0707 -0.0470977 13.0624 1.03769C15.0541 2.12247 16.5352 3.95746 17.1798 6.13896C17.8244 8.32047 17.5797 10.6698 16.4996 12.6701H16.4951Z" transform="translate(71.9067 149.594)" fill="#1162FB"/>
<path d="M20.1606 15.8968C16.1195 18.35 1.91839e-06 18.1516 1.91839e-06 18.1516C1.91839e-06 18.1516 7.27849 3.69388 11.3106 1.24067C12.2703 0.657053 13.335 0.268993 14.444 0.0986355C15.553 -0.071722 16.6845 -0.021036 17.774 0.247803C18.8634 0.516643 19.8895 0.998374 20.7936 1.66548C21.6978 2.33259 22.4622 3.17201 23.0433 4.13583C23.6244 5.09964 24.0108 6.16897 24.1804 7.28276C24.35 8.39655 24.2996 9.53299 24.0319 10.6272C23.7642 11.7214 23.2846 12.7519 22.6203 13.6599C21.9561 14.568 21.1203 15.3357 20.1606 15.9193V15.8968Z" transform="translate(71.0874 191.129)" fill="#1162FB"/>
<path d="M19.4961 15.0628C15.9309 18.1653 2.19244e-06 20.6862 2.19244e-06 20.6862C2.19244e-06 20.6862 4.74156 5.20032 8.30223 2.09773C9.14985 1.35955 10.1339 0.796273 11.1983 0.440056C12.2627 0.0838393 13.3865 -0.0583495 14.5056 0.0216323C15.6247 0.101614 16.7171 0.402203 17.7205 0.906207C18.724 1.41021 19.6187 2.10778 20.3537 2.95908C21.0887 3.81037 21.6496 4.79872 22.0042 5.8677C22.3589 6.93669 22.5005 8.06537 22.4208 9.1893C22.3412 10.3132 22.0419 11.4104 21.5401 12.4182C21.0383 13.4259 20.3437 14.3246 19.4961 15.0628V15.0628Z" transform="translate(66.3096 226.321)" fill="#1162FB"/>
<path d="M3.08641 15.1764C6.71443 18.2069 22.6948 20.3895 22.6948 20.3895C22.6948 20.3895 17.6344 5.00734 14.0019 1.98141C12.2597 0.527061 10.0136 -0.17263 7.75769 0.0362603C5.50181 0.245151 3.42094 1.34551 1.97286 3.09528C0.524785 4.84505 -0.171888 7.10089 0.0361013 9.36655C0.24409 11.6322 1.3397 13.7221 3.08192 15.1764H3.08641Z" transform="translate(51.2212 161.549)" fill="#1162FB"/>
<path d="M5.29846 16.4984C9.66285 18.3022 25.5624 15.5965 25.5624 15.5965C25.5624 15.5965 16.1331 2.44206 11.7867 0.642737C9.69078 -0.221383 7.33893 -0.21392 5.24851 0.663504C3.1581 1.54093 1.50035 3.21644 0.63996 5.32142C-0.220432 7.4264 -0.212987 9.78845 0.660651 11.8879C1.53429 13.9874 3.20256 15.6523 5.29846 16.5164V16.4984Z" transform="translate(43.1543 200.489)" fill="#1162FB"/>
<path d="M4.0094 15.8328C8.01009 18.3447 24.1386 18.3672 24.1386 18.3672C24.1386 18.3672 17.0712 3.80129 13.0749 1.3075C11.1547 0.100123 8.83553 -0.291682 6.62765 0.218281C4.41977 0.728244 2.50402 2.09821 1.30186 4.02679C0.0996896 5.95536 -0.290418 8.28456 0.217345 10.502C0.725107 12.7195 2.08915 14.6435 4.0094 15.8509V15.8328Z" transform="translate(44.0981 241.069)" fill="#1162FB"/>
<path d="M17.0568 7.91535C17.4204 12.6414 9.96685 27.0044 9.96685 27.0044C9.96685 27.0044 0.389426 13.9717 0.025726 9.24566C-0.149925 6.97683 0.579028 4.73084 2.05221 3.00178C3.5254 1.27273 5.62214 0.202259 7.88119 0.0258471C10.1402 -0.150565 12.3765 0.581533 14.0981 2.0611C15.8197 3.54067 16.8856 5.64651 17.0612 7.91535H17.0568Z" transform="translate(55.2427 129.28)" fill="#1162FB"/>
<path d="M16.4951 12.6701C14.2501 16.837 0.213957 24.8234 0.213957 24.8234C0.213957 24.8234 -0.769383 8.65661 1.48017 4.48977C2.56027 2.48943 4.38734 1.00197 6.55944 0.354576C8.73153 -0.292815 11.0707 -0.0470977 13.0624 1.03769C15.0541 2.12247 16.5352 3.95746 17.1798 6.13896C17.8244 8.32047 17.5797 10.6698 16.4996 12.6701H16.4951Z" transform="translate(71.9067 149.594)" fill="#1162FB"/>
<path d="M20.1606 15.8968C16.1195 18.35 1.91839e-06 18.1516 1.91839e-06 18.1516C1.91839e-06 18.1516 7.27849 3.69388 11.3106 1.24067C12.2703 0.657053 13.335 0.268993 14.444 0.0986355C15.553 -0.071722 16.6845 -0.021036 17.774 0.247803C18.8634 0.516643 19.8895 0.998374 20.7936 1.66548C21.6978 2.33259 22.4622 3.17201 23.0433 4.13583C23.6244 5.09964 24.0108 6.16897 24.1804 7.28276C24.35 8.39655 24.2996 9.53299 24.0319 10.6272C23.7642 11.7214 23.2846 12.7519 22.6203 13.6599C21.9561 14.568 21.1203 15.3357 20.1606 15.9193V15.8968Z" transform="translate(71.0874 191.129)" fill="#1162FB"/>
<path d="M19.4961 15.0628C15.9309 18.1653 2.19244e-06 20.6862 2.19244e-06 20.6862C2.19244e-06 20.6862 4.74156 5.20032 8.30223 2.09773C9.14985 1.35955 10.1339 0.796273 11.1983 0.440056C12.2627 0.0838393 13.3865 -0.0583495 14.5056 0.0216323C15.6247 0.101614 16.7171 0.402203 17.7205 0.906207C18.724 1.41021 19.6187 2.10778 20.3537 2.95908C21.0887 3.81037 21.6496 4.79872 22.0042 5.8677C22.3589 6.93669 22.5005 8.06537 22.4208 9.1893C22.3412 10.3132 22.0419 11.4104 21.5401 12.4182C21.0383 13.4259 20.3437 14.3246 19.4961 15.0628V15.0628Z" transform="translate(66.3096 226.321)" fill="#1162FB"/>
<path d="M3.08641 15.1764C6.71443 18.2069 22.6948 20.3895 22.6948 20.3895C22.6948 20.3895 17.6344 5.00734 14.0019 1.98141C12.2597 0.527061 10.0136 -0.17263 7.75769 0.0362603C5.50181 0.245151 3.42094 1.34551 1.97286 3.09528C0.524785 4.84505 -0.171888 7.10089 0.0361013 9.36655C0.24409 11.6322 1.3397 13.7221 3.08192 15.1764H3.08641Z" transform="translate(51.2212 161.549)" fill="#1162FB"/>
<path d="M5.29846 16.4984C9.66285 18.3022 25.5624 15.5965 25.5624 15.5965C25.5624 15.5965 16.1331 2.44206 11.7867 0.642737C9.69078 -0.221383 7.33893 -0.21392 5.24851 0.663504C3.1581 1.54093 1.50035 3.21644 0.63996 5.32142C-0.220432 7.4264 -0.212987 9.78845 0.660651 11.8879C1.53429 13.9874 3.20256 15.6523 5.29846 16.5164V16.4984Z" transform="translate(43.1543 200.489)" fill="#1162FB"/>
<path d="M4.0094 15.8328C8.01009 18.3447 24.1386 18.3672 24.1386 18.3672C24.1386 18.3672 17.0712 3.80129 13.0749 1.3075C11.1547 0.100123 8.83553 -0.291682 6.62765 0.218281C4.41977 0.728244 2.50402 2.09821 1.30186 4.02679C0.0996896 5.95536 -0.290418 8.28456 0.217345 10.502C0.725107 12.7195 2.08915 14.6435 4.0094 15.8509V15.8328Z" transform="translate(44.0981 241.069)" fill="#1162FB"/>
<path d="M41.5094 8.3861C41.5094 8.3861 30.6703 7.07381 27.5901 4.44022C24.5098 1.80663 11.3313 -2.19787 10.1819 1.48645C9.0324 5.17078 -7.81003 18.704 4.448 19.9081C16.706 21.1121 33.1443 20.5394 36.5703 18.8348C39.9963 17.1302 41.5094 8.3861 41.5094 8.3861Z" transform="translate(59.8774 263.776)" fill="#A8A8A8"/>
<path opacity="0.2" d="M4.36265 10.2367C16.6252 11.4363 33.041 10.8726 36.4895 9.16798C39.1162 7.86922 40.5934 2.4938 41.1502 5.50485e-06L41.5139 0.0450902C41.5139 0.0450902 40.0411 8.78464 36.5748 10.4938C33.1084 12.2029 16.7105 12.7486 4.44797 11.5626C0.909752 11.2153 -0.203803 9.8399 0.0296837 7.9549C0.438285 9.14994 1.72695 9.9797 4.36265 10.2367Z" transform="translate(59.8774 272.117)" fill="black"/>
<path opacity="0.1" d="M470.115 206.646C452.514 230.872 458.351 265.451 468.499 293C471.902 302.222 475.768 311.976 474.004 322.01C471.849 334.276 461.719 343.467 451.19 348.472C431.994 357.595 409.319 356.139 392.149 344.644C377.332 334.723 366.901 318.236 351.796 308.788C326.517 292.982 293.699 300.044 265.564 312.112C245.659 320.648 223.855 331.643 204.458 323.76C190.808 318.213 181.616 304.094 176.78 289C174.446 281.713 172.811 273.803 168.159 268.098C165.394 264.707 161.739 262.344 157.98 260.369C123.68 242.331 79.5604 253.605 46.3066 233.478C23.856 219.886 9.88274 193.51 4.07702 165.781C-1.72871 138.051 -0.291868 108.779 2.02054 80.0084C3.66393 59.562 6.26371 37.7131 18.5038 21.6455C31.4488 4.6534 53.145 -2.10195 72.5468 0.563212C91.9486 3.22837 109.339 14.0649 124.56 26.9623C143.594 43.0885 161.105 63.323 184.777 69.4289C200.901 73.5958 218.031 70.6465 234.793 69.3433C262.811 67.1696 290.731 69.6725 318.48 72.5C345.043 75.2057 371.791 78.2271 396.949 87.0975C414.752 93.3748 428.865 105.239 445.626 113.348C456.551 118.633 468.571 119.86 478.853 126.687C491.542 135.097 503.01 149.997 499.288 167.877C495.772 184.874 479.455 193.79 470.115 206.646Z" transform="translate(0 1.58337)" fill="#1162FB"/>
<path d="M304.632 3.54409e-06H11.4723C8.43278 -0.00238998 5.51679 1.20766 3.36545 3.36409C1.21412 5.52052 0.00357071 8.44678 0 11.4994V183.089C0.00357071 186.141 1.21412 189.068 3.36545 191.224C5.51679 193.381 8.43278 194.591 11.4723 194.588H129.526V236.874H118.418C117.692 236.874 116.996 237.164 116.483 237.679C115.969 238.193 115.68 238.892 115.679 239.621V245.321H201.835V239.612C201.834 238.883 201.545 238.184 201.032 237.67C200.518 237.155 199.822 236.865 199.096 236.865H184.912V194.575H304.632C307.669 194.577 310.583 193.369 312.734 191.215C314.885 189.062 316.097 186.139 316.104 183.089V11.4994C316.101 8.44678 314.89 5.52052 312.739 3.36409C310.588 1.20766 307.672 -0.00238998 304.632 3.54409e-06V3.54409e-06Z" transform="translate(82.0796 36.7395)" fill="url(#paint0_linear)"/>
<path d="M54.4517 -3.30291e-06H2.19244e-06V52.7711H54.4517V-3.30291e-06Z" transform="translate(212.329 223.305)" fill="#43526D"/>
<path opacity="0.1" d="M54.4517 3.30291e-06H2.19244e-06V4.68094H54.4517V3.30291e-06Z" transform="translate(212.329 271.395)" fill="black"/>
<path d="M2.69407 0H82.012C82.7265 0 83.4118 0.28508 83.917 0.792506C84.4223 1.29993 84.7061 1.98814 84.7061 2.70575V8.33369H-1.09622e-06V2.70575C-1.09622e-06 1.98814 0.283836 1.29993 0.789072 0.792506C1.29431 0.28508 1.97956 0 2.69407 0V0Z" transform="translate(198.715 271.927)" fill="#3A465C"/>
<path d="M299.504 0H11.2792C5.04986 0 1.91839e-06 5.07174 1.91839e-06 11.3281V180.374C1.91839e-06 186.63 5.04986 191.702 11.2792 191.702H299.504C305.734 191.702 310.784 186.63 310.784 180.374V11.3281C310.784 5.07174 305.734 0 299.504 0Z" transform="translate(84.9849 38.5433)" fill="#43526D"/>
<path d="M297.044 -2.20194e-06H0V156.609H297.044V-2.20194e-06Z" transform="translate(91.5273 60.9335)" fill="white"/>
<path d="M2.61774 5.19503C4.06347 5.19503 5.23548 4.03208 5.23548 2.59752C5.23548 1.16295 4.06347 0 2.61774 0C1.172 0 -9.86598e-06 1.16295 -9.86598e-06 2.59752C-9.86598e-06 4.03208 1.172 5.19503 2.61774 5.19503Z" transform="translate(237.433 50.2456)" fill="white"/>
<path opacity="0.1" d="M54.2811 -6.60582e-06H6.57732e-06V1.02819H54.2811V-6.60582e-06Z" transform="translate(212.445 230.376)" fill="black"/>
<path d="M22.4377 0C13.7677 7.21242 7.21789 16.6609 3.49197 27.3304C-0.233942 37.9999 -0.995215 49.4872 1.28991 60.5586C3.57504 71.6299 8.82023 81.8668 16.462 90.1696C24.1039 98.4724 33.8535 104.527 44.6638 107.684L61.9777 47.9142L22.4377 0Z" transform="translate(235.627 97.5061)" fill="#A1A9B6" fill-opacity="0.2"/>
<path d="M39.54 6.79673e-05C25.0978 -0.0214042 11.1056 5.04533 1.09622e-06 14.318L39.54 62.2322L72.2819 9.39351C62.4621 3.23812 51.1155 -0.0171341 39.54 6.79673e-05V6.79673e-05Z" transform="translate(259.413 83.1881)" fill="#A1A9B6" fill-opacity="0.2"/>
<path d="M17.3139 0L1.09622e-06 59.7654C9.14614 62.4326 18.7812 62.9477 28.1575 61.2708C37.5339 59.5939 46.3996 55.77 54.0668 50.0959C61.734 44.4218 67.9966 37.0499 72.3687 28.5522C76.7408 20.0545 79.1049 10.6594 79.2775 1.09582L17.3139 0Z" transform="translate(281.638 145.42)" fill="#1162FB" fill-opacity="0.6"/>
<path d="M22.4506 0H-5.4811e-06V13.5287H22.4506V0Z" transform="translate(118 115.206)" fill="#1162FB" fill-opacity="0.6"/>
<path d="M22.4506 0H-5.4811e-06V13.5287H22.4506V0Z" transform="translate(118 138.656)" fill="#FF4444"/>
<path d="M22.4506 0H-5.4811e-06V13.5287H22.4506V0Z" transform="translate(118 162.106)" fill="#1162FB"/>
<path d="M42.2071 0H-5.4811e-06V5.41149H42.2071V0Z" transform="translate(152.574 119.265)" fill="#ECEEF0"/>
<path d="M42.2071 0H-5.4811e-06V5.41149H42.2071V0Z" transform="translate(152.574 142.714)" fill="#ECEEF0"/>
<path d="M42.2071 0H-5.4811e-06V5.41149H42.2071V0Z" transform="translate(152.574 166.164)" fill="#ECEEF0"/>
<path d="M297.246 0H0V5.41149H297.246V0Z" transform="translate(91.5083 60.6403)" fill="#D6D6E3"/>
<path d="M1.34704 2.70575C2.09098 2.70575 2.69407 2.10004 2.69407 1.35287C2.69407 0.605702 2.09098 0 1.34704 0C0.60309 0 0 0.605702 0 1.35287C0 2.10004 0.60309 2.70575 1.34704 2.70575Z" transform="translate(93.7534 61.9932)" fill="#FC6681"/>
<path d="M1.34704 2.70575C2.09098 2.70575 2.69407 2.10004 2.69407 1.35287C2.69407 0.605702 2.09098 0 1.34704 0C0.60309 0 0 0.605702 0 1.35287C0 2.10004 0.60309 2.70575 1.34704 2.70575Z" transform="translate(97.3457 61.9932)" fill="#FFC74C"/>
<path d="M1.34704 2.70575C2.09098 2.70575 2.69407 2.10004 2.69407 1.35287C2.69407 0.605702 2.09098 0 1.34704 0C0.60309 0 0 0.605702 0 1.35287C0 2.10004 0.60309 2.70575 1.34704 2.70575Z" transform="translate(100.938 61.9932)" fill="#85D459"/>
<path d="M5.89224 -5.50485e-06C5.89224 -5.50485e-06 8.03402 2.81398 4.90441 7.062C1.7748 11.31 -0.807004 14.8951 0.234704 17.5468C0.234704 17.5468 4.95829 9.65499 8.80633 9.54676C12.6544 9.43853 10.1264 4.74407 5.89224 -5.50485e-06Z" transform="translate(403.485 243.977)" fill="#1162FB"/>
<path opacity="0.1" d="M5.76082 -5.50485e-06C5.95322 0.277187 6.10448 0.581004 6.20983 0.90191C9.96357 5.33031 11.9617 9.47011 8.35612 9.56481C4.99751 9.65951 0.965365 15.6933 -1.09622e-05 17.2311C0.030938 17.3488 0.0684141 17.4648 0.112242 17.5783C0.112242 17.5783 4.83586 9.68656 8.68389 9.57833C12.5319 9.4701 9.995 4.74407 5.76082 -5.50485e-06Z" transform="translate(403.617 243.977)" fill="black"/>
<path d="M0.493908 0.637171C0.493908 1.62928 0.38166 2.441 0.246957 2.441C0.112253 2.441 5.4811e-06 1.6383 5.4811e-06 0.637171C5.4811e-06 -0.363955 0.139193 0.114072 0.273896 0.114072C0.4086 0.114072 0.493908 -0.354936 0.493908 0.637171Z" transform="translate(412.866 246.925)" fill="#FFD037"/>
<path d="M1.688 0.680054C0.821412 1.15356 0.0670718 1.44216 0.00421012 1.32041C-0.0586515 1.19865 0.587944 0.716143 1.45454 0.242638C2.32113 -0.230867 1.97988 0.11186 2.04274 0.242638C2.1056 0.373416 2.5546 0.206548 1.688 0.680054Z" transform="translate(413.042 248.064)" fill="#FFD037"/>
<path d="M4.8108 -5.50485e-06C4.8108 -5.50485e-06 2.66902 2.81398 5.79863 7.062C8.92824 11.31 11.5101 14.8951 10.4684 17.5468C10.4684 17.5468 5.74475 9.65499 1.89672 9.54676C-1.95132 9.43853 0.581107 4.74407 4.8108 -5.50485e-06Z" transform="translate(393.252 243.977)" fill="#1162FB"/>
<path opacity="0.1" d="M4.81731 -5.50485e-06C4.62491 0.277187 4.47365 0.581004 4.3683 0.90191C0.614558 5.33031 -1.38353 9.47011 2.22203 9.56481C5.58064 9.65951 9.61276 15.6933 10.5781 17.2311C10.5472 17.3488 10.5097 17.4648 10.4659 17.5783C10.4659 17.5783 5.74227 9.68656 1.89424 9.57833C-1.95379 9.4701 0.587617 4.74407 4.81731 -5.50485e-06Z" transform="translate(393.245 243.977)" fill="black"/>
<path d="M-6.57732e-06 0.637171C-6.57732e-06 1.62928 0.112241 2.441 0.246944 2.441C0.381648 2.441 0.493923 1.6383 0.493923 0.637171C0.493923 -0.363955 0.354708 0.114072 0.220005 0.114072C0.0853013 0.114072 -6.57732e-06 -0.354936 -6.57732e-06 0.637171Z" transform="translate(394.081 246.925)" fill="#FFD037"/>
<path d="M0.526779 0.680054C1.39337 1.15356 2.14771 1.44216 2.21057 1.32041C2.27344 1.19865 1.62687 0.716143 0.760274 0.242638C-0.106319 -0.230867 0.234931 0.11186 0.17207 0.242638C0.109208 0.373416 -0.339814 0.206548 0.526779 0.680054Z" transform="translate(392.188 248.064)" fill="#FFD037"/>
<path d="M23.1341 5.81095C23.1341 5.81095 17.2431 4.62944 15.6715 3.05109C14.1 1.47274 7.02806 -1.28712 6.24229 0.683561C5.45652 2.65425 -4.36337 9.36449 2.31344 10.546C8.99025 11.7275 18.0289 12.1244 19.991 11.3352C21.9532 10.546 23.1341 5.81095 23.1341 5.81095Z" transform="translate(395.254 256.353)" fill="#A8A8A8"/>
<path opacity="0.2" d="M2.31273 4.04058C8.98954 5.22209 18.0281 5.61893 19.9903 4.82975C21.4855 4.22998 22.5272 1.34384 22.9358 -9.90873e-06L23.1334 0.0405884C23.1334 0.0405884 21.957 4.77564 19.9903 5.56482C18.0237 6.35399 8.98954 5.95715 2.31273 4.77564C0.386471 4.43291 -0.165812 3.63022 0.040733 2.61557C0.206867 3.27396 0.880384 3.78804 2.31273 4.04058Z" transform="translate(395.256 262.124)" fill="black"/>
<path d="M67.3518 57.434C67.3573 45.9379 64.4433 34.6304 58.8853 24.5805C53.3274 14.5307 45.3091 6.07053 35.5887 -2.75243e-06L0 57.434L67.3518 58.6245C67.3518 58.2321 67.3518 57.8353 67.3518 57.434Z" transform="translate(308.831 127.901)" fill="url(#paint1_linear)"/>
<path d="M61.9636 52.8387C61.9686 42.2625 59.2877 31.8597 54.1744 22.614C49.0612 13.3682 41.6846 5.58491 32.7419 -6.60582e-06L0 52.8387L61.9636 53.9526C61.9636 53.5692 61.9636 53.204 61.9636 52.8387Z" transform="translate(311.524 130.25)" fill="#1162FB"/>
<path d="M106.977 45.2345C106.977 45.0601 106.961 44.8933 106.928 44.7339C106.895 44.5746 106.865 44.3912 106.838 44.1837C106.772 43.823 106.699 43.4743 106.618 43.1375C106.576 42.9692 106.532 42.8038 106.488 42.6415C105.995 40.778 105.108 39.043 103.888 37.5547L103.677 37.3112C103.536 37.1548 103.398 37.0045 103.264 36.8602C103.129 36.7159 102.996 36.5866 102.864 36.4724C102.734 36.3506 102.604 36.2379 102.482 36.1342C102.235 35.9267 102.006 35.7554 101.8 35.6111C101.593 35.4667 101.508 35.4126 101.387 35.3405C101.092 35.1604 100.76 35.0494 100.417 35.0158L98.2796 34.7993L95.3879 34.5107L84.944 30.3709L84.5309 30.5197C84.226 29.6612 83.9682 28.7865 83.7586 27.8997C84.076 27.7596 84.3583 27.5501 84.5847 27.2864C84.8315 27.089 85.0259 26.8334 85.1505 26.5423C85.4109 25.9245 84.908 24.5987 85.0113 23.8365C85.1774 22.6235 85.797 21.451 86.2955 20.3506C87.3686 17.9876 88.1499 15.4262 88.0242 12.8332C87.8985 10.2402 86.74 7.60658 84.5937 6.15901C83.4847 5.41042 82.178 5.00907 81.0286 4.32361C80.1306 3.79148 79.3403 3.09701 78.4827 2.49723C76.3903 1.07075 73.9609 0.222647 71.4387 0.0382025C68.9165 -0.146242 66.3903 0.339467 64.1143 1.4465C61.9456 2.53782 60.0956 4.15225 58.0482 5.47806C56.0007 6.80388 53.5895 7.79148 51.1962 7.40816C51.1625 7.50627 51.1384 7.60747 51.1244 7.7103L50.9223 7.68325C50.5092 8.83319 51.5195 9.96509 52.4535 10.7498C54.2226 12.2379 56.2251 13.7216 58.5331 13.7757C59.4311 13.7757 60.365 13.6043 61.1778 13.9786C61.3548 14.0628 61.5207 14.1689 61.6717 14.2943C61.1521 16.3869 61.2104 18.5822 61.8401 20.6441C62.4699 22.706 63.6473 24.5565 65.2458 25.9966L59.916 24.0395C59.916 24.0395 59.6915 24.1567 59.3503 24.3777L51.9461 19.3495C51.9461 19.3495 37.1062 13.8208 32.9843 22.389C28.8624 30.9572 50.8505 26.5152 50.8505 26.5152L55.5561 29.1533C55.4004 30.1434 55.5824 31.1573 56.0725 32.0304L68.9008 40.1251C66.31 40.9414 62.0488 42.2446 61.2945 42.2446C60.1944 42.2446 57.1726 43.3495 55.2463 47.7644C53.32 52.1792 46.4502 73.7125 40.4065 77.2976C34.3628 80.8827 18.4049 104.901 18.4049 104.901L18.4767 105.09C18.1924 105.165 17.914 105.249 17.6416 105.343C13.6543 106.668 10.9693 109.46 9.35731 111.724C9.08399 112.105 8.9143 112.551 8.86497 113.019C8.81563 113.486 8.88836 113.958 9.07596 114.389C9.26356 114.819 9.55956 115.193 9.93485 115.474C10.3101 115.755 10.7517 115.933 11.2162 115.99C17.5024 116.801 20.9463 113.843 22.5987 111.606C22.7064 111.462 22.8052 111.318 22.8995 111.183C23.3909 111.398 23.944 111.423 24.4531 111.255L32.1581 104.914C32.1581 104.914 26.1548 110.957 29.6661 116.472L29.3967 116.856C23.428 125.554 19.0576 135.255 16.4921 145.5C16.4921 145.5 13.1918 147.985 12.9 157.92C12.6081 167.854 9.30789 183.868 9.30789 183.868C9.30789 183.868 7.10775 202.912 8.48173 208.711C8.48173 208.711 8.63888 208.941 8.93074 209.293C8.82747 209.419 8.71521 209.55 8.58949 209.69C7.39062 211.011 5.2264 212.846 2.70744 212.296C-1.14059 211.466 -1.1406 218.371 4.35531 218.921C7.89352 219.277 14.8532 220.891 19.3568 221.996C19.8528 222.119 20.3708 222.119 20.8671 221.998C21.3633 221.877 21.8232 221.637 22.2078 221.3C22.5924 220.962 22.8903 220.537 23.0763 220.059C23.2624 219.581 23.3311 219.066 23.2767 218.556C23.0073 216.084 22.5178 213.09 21.6288 210.961C21.5749 210.831 21.5165 210.7 21.4582 210.574C21.6198 210.42 21.7814 210.262 21.9431 210.091C21.9431 210.091 21.9431 197.947 23.8649 194.632C23.8649 194.632 29.0869 169.514 28.804 163.164C28.5885 158.204 42.3507 138.853 48.3405 130.695L48.2911 130.384C49.8761 128.274 50.8505 127.011 50.8505 127.011L55.5247 157.099C55.5247 157.099 57.7248 163.724 60.4638 167.313C60.4638 167.313 72.2818 190.222 73.6558 197.401C74.6975 202.844 76.8438 206.059 77.8226 207.3C77.7104 207.417 77.5891 207.534 77.4634 207.651C76.2152 208.824 74.3652 209.996 72.2818 209.55C68.4338 208.72 68.4338 215.624 73.9297 216.174C77.4679 216.531 84.4276 218.145 88.9312 219.25C89.4272 219.372 89.9452 219.373 90.4415 219.252C90.9377 219.131 91.3976 218.891 91.7822 218.554C92.1668 218.216 92.4647 217.79 92.6507 217.313C92.8368 216.835 92.9055 216.319 92.8511 215.809C92.5412 212.937 91.9261 209.365 90.7407 207.241C90.6389 207.064 90.5342 206.897 90.4264 206.74C90.8461 206.568 91.2197 206.299 91.5175 205.956C91.5175 205.956 84.3737 188.567 84.3737 183.859C84.3737 183.859 81.3519 165.915 71.1817 159.291C71.1817 159.291 72.1426 136.851 75.0387 124.364C75.1106 124.063 75.1839 123.763 75.2588 123.462C77.959 123.031 80.6355 122.462 83.2781 121.757L83.552 113.478L84.926 120.102L100.318 110.443C100.318 110.443 100.183 108.702 99.923 106.033C99.7928 104.68 99.6311 103.133 99.438 101.433C99.2854 100.08 99.1103 98.6324 98.9172 97.1577C98.8693 96.788 98.8199 96.4182 98.769 96.0484C98.567 94.5602 98.347 93.054 98.109 91.5839C98.0192 91.0307 97.9264 90.4836 97.8306 89.9424C97.7049 89.2209 97.5747 88.5129 97.44 87.8274C97.3711 87.4847 97.3023 87.1465 97.2334 86.8128C97.1646 86.4791 97.0942 86.1514 97.0224 85.8297C96.9505 85.508 96.8772 85.1938 96.8023 84.8872L96.6901 84.4362C96.6153 84.1356 96.5389 83.844 96.4611 83.5614C96.1395 82.384 95.9527 81.1736 95.9043 79.9537C95.8864 79.4667 95.8864 78.9812 95.9043 78.4971C95.9223 78.0131 95.9672 77.5291 96.039 77.045C96.072 76.8045 96.1109 76.564 96.1558 76.3235C96.3332 75.3628 96.5947 74.4196 96.9371 73.505C97.1077 73.045 97.2993 72.5941 97.5118 72.1521C98.0102 71.1104 98.5445 69.9785 99.0923 68.788C99.3677 68.1867 99.6461 67.5779 99.9275 66.9616C100.209 66.3453 100.49 65.714 100.772 65.0676C103.466 58.9842 106.088 52.2018 106.793 47.7463C106.869 47.2954 106.919 46.8444 106.95 46.4205C106.985 46.0262 106.994 45.63 106.977 45.2345V45.2345Z" transform="translate(356.763 72.524)" fill="url(#paint2_linear)"/>
<path d="M27.9778 7.85894L18.9122 1.69886C18.9122 1.69886 4.51692 -3.654 0.502755 4.64361C-3.51141 12.9412 17.8301 8.66165 17.8301 8.66165L26.8957 13.7484L27.9778 7.85894Z" transform="translate(389.841 92.9165)" fill="#FEC3BE"/>
<path d="M18.7762 13.9958C14.4028 12.9271 7.65865 11.3577 4.2237 11.015C-1.10607 10.4783 -1.10607 3.79967 2.62522 4.58884C4.65027 5.0398 6.44183 3.88537 7.65416 2.74896C8.03186 2.39394 8.38584 2.01431 8.71382 1.61253C9.15349 1.07454 9.76097 0.701186 10.438 0.552795C12.4361 0.101837 16.5985 -0.547539 19.1579 0.8369C19.7484 1.20581 20.2255 1.73185 20.5363 2.35662C21.6858 4.40397 22.283 7.86731 22.5838 10.6542C22.6374 11.1498 22.571 11.651 22.3905 12.1153C22.21 12.5796 21.9206 12.9934 21.5469 13.3214C21.1731 13.6493 20.7261 13.8819 20.2437 13.9993C19.7614 14.1168 19.258 14.1156 18.7762 13.9958V13.9958Z" transform="translate(425.857 274.5)" fill="#535461"/>
<path d="M18.7762 13.9958C14.4028 12.9271 7.65867 11.3577 4.22373 11.015C-1.10604 10.4783 -1.10604 3.79967 2.62524 4.58884C5.06787 5.11646 7.16923 3.34421 8.33217 2.06349C8.47136 1.90566 8.60159 1.75684 8.71384 1.61254C9.15352 1.07454 9.76096 0.701187 10.438 0.552796C12.4361 0.101838 16.5985 -0.547538 19.1578 0.836901C19.9077 1.24276 20.5049 2.13566 20.9853 3.2856C21.8474 5.35098 22.3324 8.24611 22.5838 10.6542C22.6373 11.1498 22.571 11.651 22.3905 12.1153C22.21 12.5796 21.9206 12.9934 21.5468 13.3214C21.1731 13.6493 20.7261 13.8819 20.2438 13.9993C19.7614 14.1168 19.258 14.1156 18.7762 13.9958V13.9958Z" transform="translate(358.416 277.178)" fill="#535461"/>
<path opacity="0.1" d="M12.6487 3.29462C6.28169 9.8831 0.826173 3.17284 -8.76976e-06 2.06348C0.139185 1.90565 0.269415 1.75683 0.381668 1.61253C0.821339 1.07453 1.42879 0.701178 2.10586 0.552787C4.10396 0.10183 8.26632 -0.547547 10.8257 0.836893C11.571 1.25177 12.1727 2.14467 12.6487 3.29462Z" transform="translate(366.745 277.169)" fill="black"/>
<path opacity="0.1" d="M12.8777 2.36113C10.1207 4.25516 0.835152 3.78615 0.835152 3.78615C0.53207 3.46123 0.252951 3.11458 -3.28866e-06 2.74895C0.377695 2.39394 0.731678 2.0143 1.05966 1.61253C1.49933 1.07454 2.10681 0.701182 2.78388 0.55279C4.78198 0.101833 8.94434 -0.547544 11.5037 0.836896C12.0932 1.20767 12.5687 1.73528 12.8777 2.36113V2.36113Z" transform="translate(433.513 274.495)" fill="black"/>
<path d="M80.6871 89.957C78.8192 92.3651 68.1597 91.833 68.1597 91.833C68.1597 91.833 64.9627 88.6222 63.6291 81.6594C62.2956 74.6966 50.8548 52.4734 50.8548 52.4734C48.1876 48.992 46.0548 42.5524 46.0548 42.5524L41.5243 13.3709C41.5243 13.3709 19.6439 42.2953 19.9089 48.4599C20.1738 54.6245 15.1089 78.9807 15.1089 78.9807C13.241 82.1915 13.241 93.975 13.241 93.975C6.30828 101.19 0.444183 92.6221 0.444183 92.6221C-0.902853 86.9987 1.24344 68.5275 1.24344 68.5275C1.24344 68.5275 4.44039 53.001 4.7098 43.3596C4.9792 33.7181 8.19863 31.3235 8.19863 31.3235C10.6891 21.3911 14.9287 11.9863 20.7171 3.55354C22.329 1.23562 23.4112 -3.8534e-06 23.4112 -3.8534e-06L66.5702 5.0868C65.7415 6.92716 65.118 8.85395 64.7113 10.832C61.9049 22.9447 60.971 44.7124 60.971 44.7124C70.8493 51.1386 73.7678 68.541 73.7678 68.541C73.7544 73.0912 80.6871 89.957 80.6871 89.957Z" transform="translate(366.187 185.65)" fill="#43526D"/>
<g opacity="0.05">
<path opacity="0.05" d="M32.9844 3.56707L32.4321 6.60582e-06C32.4321 6.60582e-06 10.5922 28.9109 10.8391 35.0755C11.0861 41.2401 6.0392 65.5963 6.0392 65.5963C4.17131 68.8071 4.17133 80.5906 4.17133 80.5906C3.05593 81.8616 1.61226 82.798 -1.20584e-05 83.2964C2.10136 83.851 4.65177 83.4452 7.37278 80.5906C7.37278 80.5906 7.37277 68.8116 9.24066 65.5963C9.24066 65.5963 14.3055 41.2446 14.0406 35.0755C13.8296 30.2638 27.1787 11.4904 32.9844 3.56707Z" transform="translate(372.326 199.035)" fill="black"/>
<path opacity="0.05" d="M50.6665 68.541C50.6665 68.541 47.7344 51.1386 37.8697 44.7124C37.8697 44.7124 38.8036 22.9492 41.6099 10.832C42.0167 8.85395 42.6402 6.92717 43.4688 5.08681L0.282884 5.50485e-06L4.38488e-06 0.342724L40.2719 5.08681C39.4432 6.92717 38.8198 8.85395 38.413 10.832C35.6066 22.9447 34.6727 44.7124 34.6727 44.7124C44.551 51.1386 47.4695 68.541 47.4695 68.541C47.4695 73.0912 54.4023 89.9615 54.4023 89.9615C53.3022 91.382 49.1444 91.7653 45.9205 91.8646C48.4798 91.9322 56.0592 91.9548 57.5948 89.9615C57.5813 89.9615 50.6665 73.0957 50.6665 68.541Z" transform="translate(389.545 185.646)" fill="black"/>
</g>
<path d="M14.5857 4.55017C14.2644 5.3424 13.8402 6.08844 13.324 6.76887C11.721 8.93798 8.38485 11.8061 2.28278 11.0214C1.8339 10.9625 1.40785 10.788 1.04607 10.5147C0.684295 10.2414 0.399116 9.87876 0.218291 9.46197C0.0374648 9.04518 -0.0328399 8.58847 0.0142018 8.13629C0.0612434 7.68411 0.224023 7.25186 0.486728 6.88161C2.05378 4.68996 4.65806 1.9797 8.52405 0.694473C9.62671 0.326685 10.7694 0.0935135 11.9276 -5.50485e-06L14.5857 4.55017Z" transform="translate(366.985 177.348)" fill="#FEC3BE"/>
<path d="M25.6666 7.85116L4.28916 5.50485e-06C4.28916 5.50485e-06 -1.84434 3.21082 0.557871 7.76549L21.3516 20.8838L25.6666 7.85116Z" transform="translate(412.197 99.1747)" fill="#D9D9EA"/>
<path opacity="0.1" d="M25.6666 7.85116L4.28916 5.50485e-06C4.28916 5.50485e-06 -1.84434 3.21082 0.557871 7.76549L21.3516 20.8838L25.6666 7.85116Z" transform="translate(412.197 99.1747)" fill="black"/>
<path d="M11.472 0.529521C11.472 0.529521 11.2071 13.1112 16.8018 17.3953C22.3965 21.6794 0.538602 24.0875 0.538602 24.0875C0.538602 24.0875 4.00497 11.2353 0.538602 4.54304C-2.92777 -2.14917 11.472 0.529521 11.472 0.529521Z" transform="translate(427.123 93.5537)" fill="#FEC3BE"/>
<path opacity="0.1" d="M45.8621 5.07778C45.0334 6.91814 44.41 8.84493 44.0032 10.823C18.2209 14.7779 0.278379 4.0045 0.278379 4.0045C0.179596 3.85117 0.0853057 3.69334 -6.57732e-06 3.55354C1.61195 1.23562 2.69406 4.95437e-06 2.69406 4.95437e-06L45.8621 5.07778Z" transform="translate(386.896 185.659)" fill="black"/>
<path opacity="0.1" d="M6.06615 4.55017C5.74487 5.3424 5.32062 6.08844 4.80443 6.76887C2.33486 6.3585 0.363695 1.61894 -4.38488e-06 0.694473C1.10265 0.326685 2.24538 0.0935135 3.40351 -5.50485e-06L6.06615 4.55017Z" transform="translate(375.505 177.348)" fill="black"/>
<path d="M64.514 2.75243e-06L54.9186 3.4814L50.9179 8.83426C50.9179 8.83426 42.6561 11.5129 41.5875 11.5129C40.5188 11.5129 37.5868 12.5817 35.7234 16.8658C33.86 21.1499 27.1922 42.0338 21.3281 45.5151C15.464 48.9965 -6.57732e-06 72.2885 -6.57732e-06 72.2885C-6.57732e-06 72.2885 2.66712 79.5038 5.86409 78.4486L13.3312 72.2885C13.3312 72.2885 7.46708 78.178 10.9334 83.5354C10.9334 83.5354 32.7913 96.6537 62.9155 88.6222L63.1805 80.5906L64.5275 87.0168L79.4257 77.6414C79.4257 77.6414 78.0787 60.3607 75.681 51.5625C74.6829 47.8654 75.048 43.9306 76.7092 40.4825C80.5796 32.3652 86.5515 18.8365 85.8241 13.9165C84.9665 8.1037 81.6932 5.57834 80.436 4.81171C80.1501 4.63927 79.8295 4.53298 79.4976 4.50055L74.6437 4.01352L64.514 2.75243e-06Z" transform="translate(376.231 105.33)" fill="#D9D9EA"/>
<path opacity="0.05" d="M33.3257 4.40388e-06C33.3257 4.40388e-06 27.9914 24.9109 22.1273 28.9154C16.2632 32.9199 0.534323 45.7812 -1.09622e-06 47.9233" transform="translate(391.026 132.234)" fill="black"/>
<path d="M33.3212 0C33.3212 0 27.9914 24.8929 22.1273 28.9064C16.2632 32.9199 0.534311 45.7722 -1.31546e-05 47.9142" transform="translate(388.629 131.441)" fill="#D9D9EA"/>
<path opacity="0.1" d="M9.86598e-06 4.81851C9.86598e-06 4.81851 18.4095 -1.34158 23.7258 0.268334Z" transform="translate(427.015 109.211)" fill="black"/>
<g opacity="0.05">
<path opacity="0.05" d="M12.5364 36.1893C16.4069 28.0721 22.3788 14.5434 21.6514 9.62343C20.7938 3.81059 17.5205 1.28523 16.2632 0.518601C15.9773 0.346163 15.6567 0.239867 15.3248 0.207439L13.2503 2.20194e-06C13.467 0.0522808 13.6744 0.137438 13.8655 0.252537C15.1137 1.01917 18.387 3.54002 19.2536 9.35737C19.981 14.2908 14.0092 27.8196 10.1387 35.9233C8.47754 39.3715 8.11238 43.3062 9.11045 47.0033C11.5172 55.797 12.8552 73.0822 12.8552 73.0822L-1.9732e-05 81.1498L0.327805 82.7191L15.2305 73.3437C15.2305 73.3437 13.8835 56.063 11.4857 47.2649C10.4958 43.5665 10.8689 39.6334 12.5364 36.1893V36.1893Z" transform="translate(440.427 109.628)" fill="black"/>
<path opacity="0.05" d="M8.63001 3.74746L10.9379 3.98195L0.898036 3.30291e-06L1.20584e-05 0.324686L8.63001 3.74746Z" transform="translate(439.847 105.33)" fill="black"/>
</g>
<path opacity="0.05" d="M-3.28866e-06 3.74746C-3.28866e-06 3.74746 8.26183 -0.802702 10.929 0.266068C13.5961 1.33484 23.4564 4.40388e-06 23.4564 4.40388e-06" transform="translate(421.949 153.655)" fill="black"/>
<path opacity="0.05" d="M10.5488 2.79185C10.2435 0.0861047 11.4828 0.537062 11.4828 0.537062C11.4828 0.537062 -2.92153 -2.15966 0.535861 4.53255C1.41365 6.37765 1.91732 8.37964 2.01759 10.4221H2.15229C6.1485 10.4221 8.48337 5.93051 10.5488 2.79185Z" transform="translate(427.148 94.6375)" fill="black"/>
<path d="M11.4633 23.0259C17.7943 23.0259 22.9266 17.8714 22.9266 11.5129C22.9266 5.15452 17.7943 -3.02767e-06 11.4633 -3.02767e-06C5.13228 -3.02767e-06 1.31546e-05 5.15452 1.31546e-05 11.5129C1.31546e-05 17.8714 5.13228 23.0259 11.4633 23.0259Z" transform="translate(417.819 80.9648)" fill="#FEC3BE"/>
<path opacity="0.1" d="M34.1584 19.7485C35.2001 17.4576 35.9545 14.9729 35.8332 12.4565C35.712 9.94018 34.585 7.38776 32.5061 5.98077C31.4284 5.25473 30.1622 4.8624 29.0487 4.19949C28.1776 3.68089 27.4098 3.00897 26.5791 2.42723C24.5475 1.04035 22.1877 0.215891 19.7376 0.0369628C17.2876 -0.141966 14.8339 0.330955 12.6238 1.40806C10.5179 2.46781 8.7264 4.04616 6.74177 5.31786C4.75714 6.58956 2.41779 7.57266 0.0919046 7.18934C-0.307716 8.30321 0.671129 9.40354 1.57813 10.1657C3.29336 11.6087 5.23758 13.0518 7.47366 13.1014C8.34025 13.1014 9.26972 12.9345 10.0375 13.2998C10.5679 13.5927 11.0183 14.0125 11.3486 14.5219C12.4245 15.9583 13.3357 17.5119 14.0652 19.1532C14.366 19.8252 14.6668 20.5557 15.282 20.9571C16.3102 21.62 17.6483 21.0698 18.8741 21.0202C20.7734 20.9481 22.4662 22.1476 23.885 23.4283C25.3039 24.709 26.6285 26.1792 28.4021 26.8556C29.7491 27.3607 32.3759 27.3426 33.0494 25.7553C33.3053 25.1555 32.8159 23.8703 32.9147 23.1397C33.0718 21.9357 33.6555 20.8173 34.1584 19.7485Z" transform="translate(407.634 76.134)" fill="black"/>
<path d="M34.1584 19.7485C35.2001 17.4576 35.9545 14.9729 35.8332 12.4565C35.712 9.94018 34.585 7.38776 32.5061 5.98077C31.4285 5.25473 30.1622 4.8624 29.0487 4.19949C28.1776 3.68089 27.4098 3.00896 26.5791 2.42723C24.5475 1.04035 22.1877 0.215886 19.7376 0.0369575C17.2876 -0.141971 14.8339 0.330957 12.6238 1.40807C10.518 2.46782 8.72641 4.04617 6.74178 5.31787C4.75715 6.58957 2.4178 7.57266 0.0919166 7.18934C-0.307704 8.30321 0.671141 9.40354 1.57814 10.1657C3.29337 11.6087 5.23759 13.0518 7.47367 13.1014C8.34027 13.1014 9.2697 12.9345 10.0375 13.2998C10.5679 13.5927 11.0183 14.0125 11.3486 14.5219C12.4304 15.956 13.3477 17.5081 14.0831 19.1487C14.384 19.8207 14.6848 20.5512 15.2999 20.9526C16.3282 21.6155 17.6662 21.0653 18.892 21.0157C20.7914 20.9435 22.4841 22.1431 23.903 23.4238C25.3219 24.7045 26.6465 26.1747 28.4201 26.8511C29.7671 27.3562 32.3938 27.3381 33.0674 25.7508C33.3233 25.151 32.8338 23.8658 32.9326 23.1352C33.0718 21.9492 33.6735 20.8128 34.1584 19.7485Z" transform="translate(407.899 75.868)" fill="#784F69"/>
<defs>
<linearGradient id="paint0_linear" x2="1" gradientUnits="userSpaceOnUse" gradientTransform="translate(35.921 245.321) scale(244.262 245.321) rotate(-90)">
<stop stop-color="#808080" stop-opacity="0.25"/>
<stop offset="0.54" stop-color="#808080" stop-opacity="0.12"/>
<stop offset="1" stop-color="#808080" stop-opacity="0.1"/>
</linearGradient>
<linearGradient id="paint1_linear" x2="1" gradientUnits="userSpaceOnUse" gradientTransform="translate(49907.7 27387) scale(8755.73 7621.18) rotate(-90)">
<stop stop-color="#808080" stop-opacity="0.25"/>
<stop offset="0.54" stop-color="#808080" stop-opacity="0.12"/>
<stop offset="1" stop-color="#808080" stop-opacity="0.1"/>
</linearGradient>
<linearGradient id="paint2_linear" x2="1" gradientUnits="userSpaceOnUse" gradientTransform="translate(76034.4 156974) scale(52683.8 109365) rotate(-90)">
<stop stop-color="#808080" stop-opacity="0.25"/>
<stop offset="0.54" stop-color="#808080" stop-opacity="0.12"/>
<stop offset="1" stop-color="#808080" stop-opacity="0.1"/>
</linearGradient>
</defs>
</svg>
