<svg width="500" height="385" viewBox="0 0 500 385" fill="none" xmlns="http://www.w3.org/2000/svg">
<path d="M250 99C388.071 99 500 76.8381 500 49.5C500 22.1619 388.071 1.06758e-05 250 1.06758e-05C111.929 1.06758e-05 0 22.1619 0 49.5C0 76.8381 111.929 99 250 99Z" transform="translate(0 286)" fill="#E8F0FF"/>
<path d="M20.2587 7.2268e-06C20.2587 7.2268e-06 39.5221 19.2837 28.6458 47.8997C17.7694 76.5158 47.2909 124.103 47.2909 124.103C47.2909 124.103 46.9737 124.055 46.3877 123.953C6.82317 116.956 -12.8381 71.6612 9.16187 38.0076C17.3393 25.4999 24.0544 10.8071 20.2587 7.2268e-06Z" transform="translate(125.343 205.651)" fill="#1162FB"/>
<path d="M4.46125 7.2268e-06C4.46125 7.2268e-06 15.3376 23.6377 4.46125 42.9214C-6.4151 62.2051 2.59565 116.326 31.4935 124.103" transform="translate(141.141 205.651)" stroke="#535461" stroke-width="2" stroke-miterlimit="10"/>
<path d="M0 0.240829C0 0.240829 21.9839 -3.26285 23.9839 16.4568C25.9839 36.1764 66.2527 38.9105 66.2527 38.9105L65.5 39.411C32.2527 61.2565 0.446229 53.3288 5.28494 24.3414C7.043 13.5344 6.89785 2.7004 0 0.240829Z" transform="translate(111.291 283.412)" fill="#1162FB"/>
<path opacity="0.2" d="M0 0.240829C0 0.240829 21.9839 -3.26285 23.9839 16.4568C25.9839 36.1764 66.2527 38.9105 66.2527 38.9105L65.5 39.411C32.2527 61.2565 0.446229 53.3288 5.28494 24.3414C7.043 13.5344 6.89785 2.7004 0 0.240829Z" transform="translate(111.291 283.412)" fill="#F5F5F5"/>
<path d="M0 -1.31396e-05C0 -1.31396e-05 17.0645 3.76739 15.6613 19.2783C14.2581 34.7892 41 53.427 66.2527 38.6535" transform="translate(111.291 283.653)" stroke="#535461" stroke-width="2" stroke-miterlimit="10"/>
<path d="M145.624 2.63303e-05H13.129C11.408 -0.00351079 9.70309 0.332421 8.11176 0.988628C6.52043 1.64483 5.07386 2.60846 3.85464 3.82446C2.63543 5.04045 1.66748 6.485 1.00609 8.07556C0.344699 9.66613 0.00281337 11.3716 -7.8755e-06 13.0944V303.528C0.00281337 305.251 0.344699 306.957 1.00609 308.547C1.66748 310.138 2.63543 311.582 3.85464 312.798C5.07386 314.014 6.52043 314.978 8.11176 315.634C9.70309 316.29 11.408 316.626 13.129 316.623H145.624C147.345 316.626 149.05 316.29 150.641 315.634C152.232 314.978 153.679 314.014 154.898 312.798C156.117 311.582 157.085 310.138 157.747 308.547C158.408 306.957 158.75 305.251 158.753 303.528V13.0944C158.75 11.3716 158.408 9.66613 157.747 8.07556C157.085 6.485 156.117 5.04045 154.898 3.82446C153.679 2.60846 152.232 1.64483 150.641 0.988628C149.05 0.332421 147.345 -0.00351079 145.624 2.63303e-05V2.63303e-05Z" transform="translate(149.925 21.2589)" fill="url(#paint0_linear)"/>
<path d="M141.882 0H14.4462C6.46781 0 -7.8755e-06 6.4746 -7.8755e-06 14.4614V298.523C-7.8755e-06 306.51 6.46781 312.984 14.4462 312.984H141.882C149.86 312.984 156.328 306.51 156.328 298.523V14.4614C156.328 6.4746 149.86 0 141.882 0Z" transform="translate(151.134 23.6862)" fill="#43526D"/>
<path d="M133.301 0H0V254.751H133.301V0Z" transform="translate(162.65 52.7974)" fill="white"/>
<path d="M1.20968 2.4219C1.87777 2.4219 2.41936 1.87974 2.41936 1.21095C2.41936 0.542159 1.87777 0 1.20968 0C0.541598 0 6.56292e-06 0.542159 6.56292e-06 1.21095C6.56292e-06 1.87974 0.541598 2.4219 1.20968 2.4219Z" transform="translate(212.339 37.0335)" fill="white"/>
<path d="M26.1237 0H0.537635C0.240708 0 0 0.240962 0 0.538201V1.88908C0 2.18632 0.240708 2.42728 0.537635 2.42728H26.1237C26.4206 2.42728 26.6613 2.18632 26.6613 1.88908V0.538201C26.6613 0.240962 26.4206 0 26.1237 0Z" transform="translate(219.607 37.0281)" fill="white"/>
<path d="M8.48387 16.9856C13.1694 16.9856 16.9677 13.1832 16.9677 8.49278C16.9677 3.80234 13.1694 1.18257e-05 8.48387 1.18257e-05C3.79836 1.18257e-05 -1.96888e-06 3.80234 -1.96888e-06 8.49278C-1.96888e-06 13.1832 3.79836 16.9856 8.48387 16.9856Z" transform="translate(220.209 311.192)" fill="white"/>
<path d="M27.957 0H0V14.5314H27.957V0Z" transform="translate(62.0967 46.8234)" fill="#F1F6FF"/>
<path opacity="0.2" d="M27.957 0H0V14.5314H27.957V0Z" transform="translate(81.9893 63.5075)" fill="#1162FB"/>
<path opacity="0.2" d="M27.957 0H0V14.5314H27.957V0Z" transform="translate(28.2256 47.8997)" fill="#1162FB"/>
<path d="M27.957 0H0V14.5314H27.957V0Z" transform="translate(234.677)" fill="#F1F6FF"/>
<path opacity="0.2" d="M27.957 0H0V14.5314H27.957V0Z" transform="translate(200.807 1.07642)" fill="#1162FB"/>
<path opacity="0.2" d="M27.957 0H0V14.5314H27.957V0Z" transform="translate(118.011 80.1917)" fill="#1162FB"/>
<path d="M27.957 0H0V14.5314H27.957V0Z" transform="translate(84.1396 81.2681)" fill="#F1F6FF"/>
<path d="M27.957 0H0V14.5314H27.957V0Z" transform="translate(48.1182 64.5839)" fill="#F1F6FF"/>
<path d="M27.957 0H0V14.5314H27.957V0Z" transform="translate(380.376 104.949)" fill="#F1F6FF"/>
<path opacity="0.2" d="M27.957 0H0V14.5314H27.957V0Z" transform="translate(400.269 121.633)" fill="#1162FB"/>
<path opacity="0.2" d="M27.957 0H0V14.5314H27.957V0Z" transform="translate(346.505 106.025)" fill="#1162FB"/>
<path opacity="0.2" d="M27.957 0H0V14.5314H27.957V0Z" transform="translate(402.419 139.394)" fill="#1162FB"/>
<path d="M27.957 0H0V14.5314H27.957V0Z" transform="translate(359.409 236.808)" fill="#F1F6FF"/>
<path opacity="0.2" d="M27.957 0H0V14.5314H27.957V0Z" transform="translate(361.559 254.568)" fill="#1162FB"/>
<path opacity="0.2" d="M27.957 0H0V14.5314H27.957V0Z" transform="translate(83.0645 230.888)" fill="#1162FB"/>
<path d="M27.957 0H0V14.5314H27.957V0Z" transform="translate(85.2148 248.648)" fill="#F1F6FF"/>
<path d="M27.957 0H0V14.5314H27.957V0Z" transform="translate(366.398 122.709)" fill="#F1F6FF"/>
<path d="M27.957 0H0V14.5314H27.957V0Z" transform="translate(62.0967 125.4)" fill="#F1F6FF"/>
<path opacity="0.2" d="M27.957 0H0V14.5314H27.957V0Z" transform="translate(81.9893 142.085)" fill="#1162FB"/>
<path opacity="0.2" d="M27.957 0H0V14.5314H27.957V0Z" transform="translate(28.2256 126.477)" fill="#1162FB"/>
<path opacity="0.2" d="M27.957 0H0V14.5314H27.957V0Z" transform="translate(118.011 158.769)" fill="#1162FB"/>
<path d="M27.957 0H0V14.5314H27.957V0Z" transform="translate(84.1396 159.845)" fill="#F1F6FF"/>
<path d="M27.957 0H0V14.5314H27.957V0Z" transform="translate(48.1182 143.161)" fill="#F1F6FF"/>
<path opacity="0.2" d="M27.957 0H0V14.5314H27.957V0Z" transform="translate(116.398 270.714)" fill="#1162FB"/>
<path opacity="0.2" d="M27.957 0H0V14.5314H27.957V0Z" transform="translate(82.5269 271.791)" fill="#1162FB"/>
<path opacity="0.2" d="M27.957 0H0V14.5314H27.957V0Z" transform="translate(350.269 38.7504)" fill="#1162FB"/>
<path opacity="0.2" d="M27.957 0H0V14.5314H27.957V0Z" transform="translate(316.398 39.8268)" fill="#1162FB"/>
<path opacity="0.2" d="M27.957 0H0V14.5314H27.957V0Z" transform="translate(336.291 56.5109)" fill="#1162FB"/>
<path d="M2.80615 77.3231C2.80615 77.3231 -4.32288 53.1041 4.14486 35.2682C7.74277 27.8126 8.82753 19.3898 7.23626 11.2645C6.4514 7.41386 5.31584 3.64327 3.84378 7.88378e-06" transform="translate(368.017 272.064)" stroke="#535461" stroke-width="2" stroke-miterlimit="10"/>
<path d="M10.7527 5.382C10.7527 8.35286 5.37635 16.9587 5.37635 16.9587C5.37635 16.9587 6.56292e-06 8.34747 6.56292e-06 5.382C6.56292e-06 3.9546 0.566421 2.58568 1.57468 1.57636C2.58294 0.567043 3.95046 1.31396e-06 5.37635 1.31396e-06C6.80225 1.31396e-06 8.16973 0.567043 9.17799 1.57636C10.1862 2.58568 10.7527 3.9546 10.7527 5.382Z" transform="translate(366.371 255.407)" fill="#1162FB"/>
<path d="M10.7957 8.50989C9.1828 11.0017 -9.18809e-06 15.3073 -9.18809e-06 15.3073C-9.18809e-06 15.3073 0.166656 5.15691 1.77956 2.66505C2.14637 2.03716 2.63653 1.49021 3.22042 1.05725C3.8043 0.624294 4.46978 0.314303 5.17669 0.146018C5.8836 -0.0222673 6.61726 -0.045373 7.33333 0.0781188C8.0494 0.201611 8.73303 0.469147 9.34293 0.864526C9.95283 1.2599 10.4763 1.77492 10.8818 2.37851C11.2873 2.98209 11.5664 3.66169 11.7022 4.37626C11.838 5.09083 11.8277 5.82555 11.6718 6.53602C11.516 7.24648 11.218 7.91796 10.7957 8.50989V8.50989Z" transform="translate(375.226 268.726)" fill="#1162FB"/>
<path d="M12.7473 10.2812C10.0968 11.6159 1.5751e-05 10.6956 1.5751e-05 10.6956C1.5751e-05 10.6956 5.26344 2.01987 7.9086 0.685134C8.54168 0.330568 9.23988 0.107903 9.96118 0.030583C10.6825 -0.0467369 11.412 0.022893 12.1057 0.235233C12.7994 0.447572 13.443 0.798227 13.9978 1.26614C14.5526 1.73404 15.007 2.30951 15.3338 2.95786C15.6605 3.60622 15.8528 4.31408 15.8991 5.03879C15.9453 5.7635 15.8446 6.49008 15.6029 7.1748C15.3613 7.85951 14.9837 8.4882 14.4929 9.02299C14.0022 9.55777 13.4084 9.98759 12.7473 10.2866V10.2812Z" transform="translate(372.866 295.06)" fill="#1162FB"/>
<path d="M12.4946 9.85904C10.1075 11.6243 -1.31258e-06 12.4209 -1.31258e-06 12.4209C-1.31258e-06 12.4209 3.72042 2.98086 6.10752 1.21556C6.67109 0.754246 7.32239 0.412336 8.02192 0.210514C8.72145 0.00869238 9.45463 -0.0488298 10.177 0.0414728C10.8994 0.131775 11.596 0.368009 12.2244 0.735837C12.8529 1.10366 13.4002 1.59544 13.8331 2.18133C14.2661 2.76722 14.5756 3.43503 14.7431 4.14426C14.9105 4.85349 14.9323 5.58936 14.8071 6.30727C14.682 7.02518 14.4125 7.71019 14.015 8.32072C13.6174 8.93126 13.1002 9.45459 12.4946 9.85904V9.85904Z" transform="translate(368.043 316.676)" fill="#1162FB"/>
<path d="M1.81576 9.40918C3.9663 11.4759 13.8534 13.6233 13.8534 13.6233C13.8534 13.6233 11.4287 3.76884 9.29965 1.70216C8.80236 1.17085 8.20256 0.74607 7.53653 0.453532C6.8705 0.160994 6.15207 0.00677523 5.42477 0.000214512C4.69748 -0.0063462 3.97643 0.134886 3.30525 0.415361C2.63406 0.695836 2.02671 1.10974 1.51994 1.63199C1.01316 2.15424 0.617505 2.77399 0.35692 3.45374C0.0963356 4.13349 -0.0237567 4.8591 0.00390065 5.58666C0.031558 6.31422 0.206374 7.02858 0.51781 7.68654C0.829246 8.3445 1.2708 8.93238 1.81576 9.41456V9.40918Z" transform="translate(362.114 275.2)" fill="#1162FB"/>
<path d="M3.16267 10.2812C5.81321 11.616 15.91 10.6956 15.91 10.6956C15.91 10.6956 10.6465 2.01986 8.00138 0.68513C7.3683 0.330564 6.6701 0.107899 5.9488 0.030579C5.22749 -0.0467409 4.49802 0.0228891 3.8043 0.235229C3.11058 0.447569 2.46694 0.798256 1.91218 1.26616C1.35741 1.73407 0.902969 2.3095 0.576227 2.95786C0.249485 3.60621 0.057191 4.31407 0.01093 5.03878C-0.035331 5.76349 0.065402 6.49008 0.307049 7.17479C0.548696 7.85951 0.926277 8.48819 1.41704 9.02298C1.90779 9.55777 2.50159 9.98758 3.16267 10.2866V10.2812Z" transform="translate(355.144 299.193)" fill="#1162FB"/>
<path d="M1.97307 9.54844C4.36016 11.3137 14.4677 12.1103 14.4677 12.1103C14.4677 12.1103 10.7473 2.67025 8.36017 0.904956C7.21159 0.137867 5.81221 -0.157476 4.45204 0.0801483C3.09188 0.317773 1.87518 1.07014 1.05406 2.18134C0.232941 3.29254 -0.129621 4.67737 0.0414669 6.04889C0.212555 7.42042 0.90419 8.6735 1.97307 9.54844Z" transform="translate(354.183 324.844)" fill="#1162FB"/>
<path opacity="0.1" d="M-1.31258e-06 -1.31396e-06C-1.31258e-06 -1.31396e-06 1.6129 19.9134 3.22581 24.7572C4.83871 29.601 -1.31258e-06 54.3581 -1.31258e-06 54.3581" transform="translate(305.409 155.809)" fill="black"/>
<g clip-path="url(#clip0)">
<path d="M89.6106 0.00175102C28.4481 -0.354117 0 53.6523 0 53.6523L57.9628 84.2044C57.9628 84.2044 65.0744 62.1756 90.3229 62.8854C92.1013 62.9335 93.8751 63.0906 95.6342 63.356L114.828 3.41264C106.606 1.18545 98.129 0.0388216 89.6106 0.00175102V0.00175102Z" transform="translate(138 157)" fill="#1162FB"/>
<path d="M19.1938 1.66168e-06L9.50311e-07 59.9492C20.9454 63.1287 27.0468 80.7918 27.0468 80.7918L85.3658 51.6612C85.3658 51.6612 63.4532 12.0101 19.1938 1.66168e-06Z" transform="translate(233.634 160.413)" fill="#ECEEF0"/>
<path d="M0 59.9492L19.1938 0C35.768 4.49751 49.2084 12.8712 59.5378 21.5873L12.2688 64.0873C8.90248 62.1976 4.84903 60.6853 0 59.9492Z" transform="translate(233.634 160.413)" fill="#1162FB"/>
<path d="M8.54091 86.9894L28.0266 9.49529e-07L0.794885 84.8503C0.461255 85.3169 0.225281 85.8459 0.101087 86.4058C-0.0231074 86.9656 -0.0329748 87.5448 0.0720904 88.1085C0.177156 88.6723 0.394986 89.2091 0.712541 89.6868C1.0301 90.1644 1.44085 90.5732 1.92021 90.8885C2.39956 91.2038 2.93767 91.4193 3.50232 91.522C4.06697 91.6246 4.64654 91.6124 5.20635 91.486C5.76616 91.3597 6.29469 91.1217 6.76031 90.7864C7.22593 90.4512 7.61905 90.0255 7.91616 89.5349V89.5349V89.5232C8.31471 88.8762 8.53184 88.134 8.5448 87.3744C8.55648 87.2402 8.55064 87.1158 8.54091 86.9894Z" transform="translate(272.496 164.241) rotate(33.3278)" fill="#111111"/>
<g opacity="0.7">
<path opacity="0.7" d="M46.5993 93.6024L45.3757 93.3736L47.7902 84.5C51.5917 56.0111 37.2309 53.1201 31.8462 53.0221C31.2269 52.7955 30.5955 52.6037 29.9548 52.4476V49.085C33.3427 48.249 36.4113 46.4383 38.7811 43.8767C41.1508 41.3151 42.7178 38.1151 43.2882 34.6724H43.3349C44.1895 34.6724 44.8854 33.3694 44.8854 31.7628C44.9188 30.9112 44.6818 30.0708 44.2082 29.3623C44.2705 28.7395 44.3016 28.1168 44.3016 27.4941C44.3031 24.9796 43.7935 22.4911 42.8036 20.1797C41.8137 17.8683 40.3642 15.7822 38.5433 14.0483C38.2946 12.8059 37.8501 11.611 37.2263 10.5082C35.9046 8.17305 33.705 5.75383 34.6016 3.22719L28.7966 3.82499L28.7406 1.42527e-06C26.9285 0.326923 26.1673 2.42389 25.0932 3.91839C22.5059 7.51453 17.3173 8.01426 13.8847 10.8164C12.7172 11.7505 10.0926 14.6648 10.5923 16.5656C8.28677 19.7373 7.04727 23.5589 7.05228 27.4801C7.05228 28.1028 7.08342 28.7255 7.14569 29.3482C6.67212 30.0568 6.43506 30.8972 6.4685 31.7488C6.4685 33.3554 7.16436 34.6584 8.01901 34.6584H8.0657C8.63607 38.1011 10.203 41.3011 12.5728 43.8627C14.9425 46.4242 18.0111 48.235 21.399 49.071V52.4336C20.7584 52.5897 20.1269 52.7815 19.5076 53.008C14.1229 53.1061 -0.237883 55.9784 3.56364 84.486L5.97814 93.3595L5.40369 93.467C4.54935 93.6264 3.73481 93.9525 3.00652 94.4268C2.27823 94.9011 1.65049 95.5141 1.15914 96.231C0.667795 96.9479 0.322446 97.7545 0.142845 98.6049C-0.0367559 99.4552 -0.0470908 100.333 0.112402 101.187L9.65357 152.182C9.75109 152.704 10.0518 153.166 10.4896 153.466C10.9275 153.767 11.4666 153.881 11.9887 153.784L13.6652 153.471V154.461C12.7348 154.921 11.9514 155.632 11.4035 156.513C10.8555 157.394 10.5649 158.411 10.5643 159.449V160.08H21.81V159.449C21.8096 158.486 21.5594 157.54 21.0838 156.702C20.6082 155.865 19.9235 155.165 19.0967 154.671V152.453L20.6285 152.168C21.1504 152.071 21.6123 151.77 21.9126 151.332C22.213 150.894 22.3273 150.355 22.2303 149.833L13.2916 101.925H38.0763L29.1469 149.838C29.05 150.36 29.1642 150.899 29.4646 151.337C29.7649 151.775 30.2268 152.075 30.7487 152.173L32.2806 152.458V154.676C31.4537 155.17 30.769 155.869 30.2934 156.707C29.8178 157.544 29.5676 158.491 29.5672 159.454V160.084H40.813V159.454C40.8124 158.416 40.5217 157.399 39.9738 156.518C39.4258 155.636 38.6424 154.926 37.712 154.466V153.476L39.3886 153.789C39.9106 153.886 40.4498 153.771 40.8876 153.471C41.3254 153.171 41.6261 152.709 41.7237 152.187L51.3629 100.552C51.5068 99.7827 51.4978 98.9927 51.3362 98.2271C51.1746 97.4615 50.8638 96.7352 50.4214 96.0898C49.979 95.4444 49.4137 94.8925 48.7579 94.4657C48.1021 94.0389 47.3686 93.7455 46.5993 93.6024Z" transform="translate(205.1 63)" fill="url(#paint1_linear)"/>
</g>
<path d="M5.22125 0H0V7.08953H5.22125V0Z" transform="translate(219.228 209.979)" fill="#FDB797"/>
<path d="M5.22125 0H0V7.08953H5.22125V0Z" transform="translate(237.132 209.979)" fill="#FDB797"/>
<path d="M34.3211 -2.85053e-06H-4.56072e-06V12.3109H34.3211V-2.85053e-06Z" transform="translate(213.632 151.787)" fill="#4D8AF0"/>
<g opacity="0.05">
<path opacity="0.05" d="M34.3211 -2.85053e-06H-4.56072e-06V12.3109H34.3211V-2.85053e-06Z" transform="translate(213.632 151.787)" fill="#43526D"/>
</g>
<path opacity="0.1" d="M-4.56072e-06 1.86813C-4.56072e-06 1.86813 12.8056 4.85245 17.1582 4.85245C21.5108 4.85245 34.3164 1.86813 34.3164 1.86813V5.70107e-06H-4.56072e-06V1.86813Z" transform="translate(213.632 152.156)" fill="black"/>
<path d="M34.3164 37.6754C34.3164 37.6754 21.5108 40.6597 17.1582 40.6597C12.8056 40.6597 -4.56072e-06 37.6754 -4.56072e-06 37.6754V17.1587C-4.56072e-06 12.608 1.80775 8.24357 5.02554 5.02568C8.24333 1.80779 12.6076 -1.99537e-06 17.1582 -1.99537e-06V-1.99537e-06C21.7089 -1.99537e-06 26.0731 1.80779 29.2909 5.02568C32.5087 8.24357 34.3164 12.608 34.3164 17.1587V37.6754Z" transform="translate(213.632 115.975)" fill="#D9D9EA"/>
<path d="M5.7009e-06 -1.71032e-06H8.20549V9.87304C8.20549 10.8156 7.83106 11.7197 7.16455 12.3862C6.49805 13.0527 5.59408 13.4271 4.6515 13.4271H3.55868C2.6161 13.4271 1.71211 13.0527 1.04561 12.3862C0.379102 11.7197 0.00466619 10.8156 0.00466619 9.87304V-1.71032e-06H5.7009e-06Z" transform="translate(226.69 107.391)" fill="#FDB797"/>
<path d="M19.0643 57.2498L11.7088 58.6229C11.0817 58.7362 10.4352 58.5971 9.91035 58.2358C9.38545 57.8744 9.02468 57.3203 8.90665 56.6941L0.136045 9.69204C-0.0565684 8.66318 -0.0445398 7.60644 0.17139 6.58221C0.38732 5.55799 0.802945 4.58635 1.39452 3.72282C1.98609 2.85928 2.74201 2.12078 3.61909 1.54951C4.49618 0.978244 5.47721 0.585414 6.50617 0.39345L8.40226 0.0385017C9.02933 -0.0748282 9.67577 0.0643338 10.2007 0.425647C10.7256 0.78696 11.0863 1.34113 11.2044 1.96734L21.0117 54.429C21.0704 54.7422 21.0664 55.0639 21.0001 55.3756C20.9338 55.6873 20.8065 55.9827 20.6254 56.2449C20.4444 56.5072 20.2132 56.731 19.9453 56.9034C19.6774 57.0759 19.3779 57.1936 19.0643 57.2498Z" transform="translate(206.365 155.28)" fill="#43526D"/>
<path d="M1.98782 57.2452L9.34334 58.6182C9.97041 58.7316 10.6169 58.5924 11.1417 58.2311C11.6666 57.8698 12.0274 57.3156 12.1454 56.6894L21.0655 8.90275C21.4136 7.03309 21.005 5.10172 19.9295 3.53322C18.8541 1.96471 17.1999 0.887444 15.3305 0.538219L12.6498 0.0385063C12.0228 -0.0748237 11.3763 0.0643241 10.8514 0.425637C10.3265 0.78695 9.96576 1.34112 9.84773 1.96733L0.0403615 54.429C-0.0175737 54.7418 -0.0130975 55.0631 0.0535306 55.3742C0.120159 55.6854 0.247615 55.9802 0.428593 56.242C0.609571 56.5037 0.840497 56.727 1.10808 56.8992C1.37567 57.0714 1.67464 57.1889 1.98782 57.2452Z" transform="translate(234.145 155.284)" fill="#43526D"/>
<path opacity="0.1" d="M5.7009e-06 5.84723C2.69498 6.51033 5.51053 6.51033 8.20551 5.84723V-2.85053e-06H5.7009e-06V5.84723Z" transform="translate(226.69 107.765)" fill="black"/>
<path d="M17.9055 35.812C27.7944 35.812 35.8109 27.7952 35.8109 17.906C35.8109 8.01678 27.7944 0 17.9055 0C8.01655 0 6.84108e-06 8.01678 6.84108e-06 17.906C6.84108e-06 27.7952 8.01655 35.812 17.9055 35.812Z" transform="translate(212.885 74.5637)" fill="#784F69"/>
<path d="M17.1582 34.3175C26.6345 34.3175 34.3164 26.6352 34.3164 17.1587C34.3164 7.68222 26.6345 0 17.1582 0C7.682 0 -4.56072e-06 7.68222 -4.56072e-06 17.1587C-4.56072e-06 26.6352 7.682 34.3175 17.1582 34.3175Z" transform="translate(213.632 79.4162)" fill="#FDB797"/>
<path d="M3.23731 10.4101C6.53913 7.71536 11.5316 7.23431 14.0161 3.77361C15.0482 2.33516 15.7814 0.31291 17.5234 -5.70106e-07L17.5748 3.68021L23.179 3.10575C22.315 5.53432 24.4306 7.86947 25.7056 10.1112C26.6425 11.7678 27.1544 13.6307 27.1953 15.5335C25.2572 16.6964 22.8521 15.426 20.6944 14.7488C18.5368 14.0717 16.3652 14.0203 14.1562 13.9596C13.0288 13.8812 11.8961 13.9439 10.7843 14.1464C9.82214 14.4046 8.8845 14.7468 7.98223 15.1692C6.49711 15.7903 1.80359 18.1395 0.425885 16.6263C-1.12461 14.9123 1.96235 11.4516 3.23731 10.4101Z" transform="translate(216.223 66.0264)" fill="#784F69"/>
<path opacity="0.1" d="M2.66859 9.94305C3.60646 10.4575 4.63936 10.7753 5.7042 10.8771C10.0999 11.4783 14.5762 10.9759 18.7293 9.41531C19.4112 11.1387 21.0644 12.3249 22.8344 12.8854C24.6044 13.4458 26.4818 13.4738 28.3359 13.5018C28.7433 13.5478 29.1552 13.4696 29.5175 13.2777C30.3441 12.7219 29.9424 11.4422 29.4614 10.5735L27.0703 6.2395C26.3651 4.95983 25.6365 3.65214 24.5437 2.68539C23.1707 1.47111 21.3493 0.901332 19.556 0.541718C15.3115 -0.30348 10.9294 -0.158047 6.75035 0.966711C2.28099 2.1483 -3.45868 6.23482 2.66859 9.94305Z" transform="translate(217.726 78.0244)" fill="#784F69"/>
<path d="M2.66859 9.94306C3.60646 10.4575 4.63936 10.7753 5.7042 10.8771C10.0999 11.4783 14.5762 10.9759 18.7293 9.41531C19.4112 11.1387 21.0644 12.3249 22.8344 12.8853C24.6044 13.4458 26.4818 13.4738 28.3359 13.5018C28.7433 13.5478 29.1552 13.4696 29.5175 13.2777C30.3441 12.7219 29.9424 11.4422 29.4614 10.5735L27.0703 6.2395C26.3651 4.95983 25.6365 3.65214 24.5437 2.68539C23.1707 1.47111 21.3493 0.90133 19.556 0.541716C15.3115 -0.303481 10.9294 -0.158042 6.75035 0.966716C2.28099 2.13896 -3.45868 6.2395 2.66859 9.94306Z" transform="translate(217.726 77.6508)" fill="#784F69"/>
<path d="M1.49446 5.59503C2.31983 5.59503 2.98893 4.34254 2.98893 2.79751C2.98893 1.25249 2.31983 0 1.49446 0C0.669099 0 2.28036e-06 1.25249 2.28036e-06 2.79751C2.28036e-06 4.34254 0.669099 5.59503 1.49446 5.59503Z" transform="translate(246.271 93.7773)" fill="#FDB797"/>
<path d="M1.49446 5.59503C2.31983 5.59503 2.98891 4.34254 2.98891 2.79751C2.98891 1.25249 2.31983 0 1.49446 0C0.669098 0 0 1.25249 0 2.79751C0 4.34254 0.669098 5.59503 1.49446 5.59503Z" transform="translate(212.325 93.7773)" fill="#FDB797"/>
<path d="M17.8369 0.0950368C17.8369 0.0950368 -3.87004 -3.28627 0.608663 30.2886L3.21928 39.9141L10.6916 39.6152C10.6916 39.6152 5.84391 28.4065 8.82349 20.962C11.8031 13.5175 17.8369 0.0950368 17.8369 0.0950368Z" transform="translate(208.918 117.02)" fill="#D9D9EA"/>
<path d="M-2.28036e-06 0.0950368C-2.28036e-06 0.0950368 21.707 -3.28627 17.2283 30.2886L14.6176 39.9141L7.14536 39.6152C7.14536 39.6152 11.993 28.4065 9.01343 20.962C6.03386 13.5175 -2.28036e-06 0.0950368 -2.28036e-06 0.0950368Z" transform="translate(234.826 117.02)" fill="#D9D9EA"/>
<path d="M4.10508 8.21041C6.37225 8.21041 8.21017 6.37245 8.21017 4.10521C8.21017 1.83796 6.37225 -3.42064e-06 4.10508 -3.42064e-06C1.8379 -3.42064e-06 3.99063e-06 1.83796 3.99063e-06 4.10521C3.99063e-06 6.37245 1.8379 8.21041 4.10508 8.21041Z" transform="translate(212.138 154.02)" fill="#FDB797"/>
<path d="M4.10508 8.21041C6.37225 8.21041 8.21018 6.37245 8.21018 4.10521C8.21018 1.83796 6.37225 -3.42064e-06 4.10508 -3.42064e-06C1.8379 -3.42064e-06 0 1.83796 0 4.10521C0 6.37245 1.8379 8.21041 4.10508 8.21041Z" transform="translate(241.98 154.02)" fill="#FDB797"/>
<path d="M4.68885 4.13567e-05H6.13194C7.37054 4.13567e-05 8.55843 0.492087 9.43425 1.36794C10.3101 2.24379 10.8021 3.43171 10.8021 4.67035V5.95002H-6.27084e-06V4.67035C-1.11898e-05 4.05546 0.121403 3.44663 0.357269 2.87878C0.593135 2.31093 0.93882 1.79524 1.37447 1.36131C1.81011 0.92739 2.32715 0.583776 2.89592 0.350172C3.46469 0.116569 4.07399 -0.0024182 4.68885 4.13567e-05V4.13567e-05Z" transform="translate(216.243 214.085)" fill="#535461"/>
<path d="M4.68886 4.13567e-05H6.13194C7.37055 4.13567e-05 8.55843 0.492087 9.43426 1.36794C10.3101 2.24379 10.8021 3.43171 10.8021 4.67035V5.95002H5.70239e-07V4.67035C-4.34875e-06 4.05546 0.12141 3.44663 0.357276 2.87878C0.593141 2.31093 0.938812 1.79524 1.37446 1.36131C1.81011 0.92739 2.32714 0.583776 2.89591 0.350172C3.46468 0.116569 4.07399 -0.0024182 4.68886 4.13567e-05V4.13567e-05Z" transform="translate(234.521 214.085)" fill="#535461"/>
<path opacity="0.1" d="M0.425081 -3.99075e-06C0.425081 -3.99075e-06 -1.06936 7.83211 1.54593 11.2087Z" transform="translate(216.939 134.998)" fill="black"/>
<path opacity="0.1" d="M1.12084 -3.99075e-06C1.12084 -3.99075e-06 2.61531 7.83211 1.2542e-05 11.2087Z" transform="translate(243.101 134.998)" fill="black"/>
</g>
<defs>
<linearGradient id="paint0_linear" x2="1" gradientUnits="userSpaceOnUse" gradientTransform="translate(-78.7688 316.623) scale(316.29 316.623) rotate(-90)">
<stop stop-color="#808080" stop-opacity="0.25"/>
<stop offset="0.54" stop-color="#808080" stop-opacity="0.12"/>
<stop offset="1" stop-color="#808080" stop-opacity="0.1"/>
</linearGradient>
<linearGradient id="paint1_linear" x2="1" gradientUnits="userSpaceOnUse" gradientTransform="translate(22963.7 76811.6) scale(17640.5 54872.1) rotate(-90)">
<stop stop-color="#808080" stop-opacity="0.25"/>
<stop offset="0.54" stop-color="#808080" stop-opacity="0.12"/>
<stop offset="1" stop-color="#808080" stop-opacity="0.1"/>
</linearGradient>
<clipPath id="clip0">
<rect width="134" height="258" fill="white" transform="translate(162 63)"/>
</clipPath>
</defs>
</svg>
