<svg width="500" height="289" viewBox="0 0 500 289" fill="none" xmlns="http://www.w3.org/2000/svg">
<path opacity="0.1" d="M120.672 12.2771C90.4419 1.83165 55.8772 -7.00998 27.6332 8.00038C24.0536 9.90288 20.5263 12.298 18.5976 15.8619C13.5033 25.2382 21.6008 37.3974 17.6542 47.3082C13.7077 57.219 -1.14538 62.2085 0.0705432 72.7954C0.390247 75.5627 1.88918 78.0679 3.65542 80.2272C14.7193 93.7439 35.0021 95.1118 52.1456 91.7575C69.289 88.4033 86.0551 81.4484 103.508 82.3236C120.279 83.1884 135.709 91.2334 151.076 98.0048C176.982 109.451 207.239 117.664 233.124 106.16C244.985 100.887 254.791 91.9095 266.143 85.6412C281.441 77.2716 299.026 74.0449 316.299 76.4379C327.83 78.0626 338.836 82.1507 350.12 84.9704C375.749 91.3697 402.499 91.16 428.909 90.9085C433.825 90.8613 438.819 90.8037 443.531 89.3991C450.507 87.3026 456.262 82.4756 461.801 77.7534C469.081 71.5533 476.749 64.7399 479.097 55.4685C481.869 44.4623 476.13 32.7643 467.619 25.2853C459.107 17.8064 448.227 13.7183 437.609 9.77707C434.988 8.81272 432.189 7.83267 429.506 8.56117C427.745 9.04335 426.262 10.2173 424.946 11.4804C417.41 18.734 411.042 31.0033 400.764 29.0327C397.095 28.3304 394.092 25.778 391.189 23.4195C375.686 10.841 354.832 1.12935 336.121 8.07898C322.437 13.1628 312.778 26.2182 298.91 30.8251C289.046 34.106 278.328 32.6857 267.951 33.3251C252.857 34.2475 238.166 39.5829 223.051 39.258C184.508 38.4299 152.396 1.57486 114.011 5.08636C111.003 5.35889 107.722 6.05071 105.877 8.43015" transform="translate(3.40234 176.427)" fill="#1162FB"/>
<path d="M8.66985 2.73417C8.66985 2.73417 -23.3582 22.0684 35.7032 51.848C35.7032 51.848 48.7167 27.6868 34.33 7.9857C31.5381 4.14712 27.4354 1.4658 22.799 0.449646C18.1625 -0.566508 13.3144 0.153089 9.17299 2.47212L8.66985 2.73417Z" transform="translate(66.7998 150.912)" fill="#1162FB"/>
<path d="M5.75798e-06 -5.75798e-06C5.75798e-06 -5.75798e-06 27.4211 20.9642 26.656 49.5017" transform="translate(75.8521 153.243)" stroke="#535461" stroke-miterlimit="10"/>
<path d="M87.784 33.794C94.2725 57.5203 66.5945 125.114 66.5945 125.114C66.5945 125.114 8.35599 81.0211 1.86234 57.2949C0.16372 51.6062 -0.380719 45.6354 0.261043 39.7333C0.902805 33.8312 2.71782 28.1169 5.5994 22.9262C8.48098 17.7355 12.371 13.1732 17.0409 9.5073C21.7108 5.8414 27.0663 3.14589 32.7927 1.57918C38.5191 0.012471 44.5009 -0.393822 50.3866 0.384157C56.2723 1.16214 61.9432 3.1087 67.0659 6.10946C72.1885 9.11023 76.6598 13.1046 80.2168 17.858C83.7738 22.6113 86.3448 28.0277 87.7788 33.7888L87.784 33.794Z" transform="translate(392.896 103.747)" fill="#1162FB"/>
<path opacity="0.1" d="M87.784 33.794C94.2725 57.5203 66.5945 125.114 66.5945 125.114C66.5945 125.114 8.35599 81.0211 1.86234 57.2949C0.16372 51.6062 -0.380719 45.6354 0.261043 39.7333C0.902805 33.8312 2.71782 28.1169 5.5994 22.9262C8.48098 17.7355 12.371 13.1732 17.0409 9.5073C21.7108 5.8414 27.0663 3.14589 32.7927 1.57918C38.5191 0.012471 44.5009 -0.393822 50.3866 0.384157C56.2723 1.16214 61.9432 3.1087 67.0659 6.10946C72.1885 9.11023 76.6598 13.1046 80.2168 17.858C83.7738 22.6113 86.3448 28.0277 87.7788 33.7888L87.784 33.794Z" transform="translate(392.896 103.747)" fill="black"/>
<path d="M1.1516e-05 -5.75798e-06C1.1516e-05 -5.75798e-06 36.2523 54.727 33.5427 122.525" transform="translate(426.205 106.467)" stroke="#535461" stroke-miterlimit="10"/>
<path d="M29.0747 2.20826C29.0747 2.20826 -3.79717 -15.6742 0.364223 50.3368C0.364223 50.3368 27.7854 49.3567 37.518 26.9879C39.421 22.6375 39.6617 17.7399 38.1943 13.2239C36.7269 8.70778 33.6536 4.88707 29.5568 2.48605L29.0747 2.20826Z" transform="translate(460.856 178.697)" fill="#1162FB"/>
<path d="M29.2503 1.02364e-05C29.2503 1.02364e-05 25.005 34.266 1.02364e-05 48.0132" transform="translate(461.221 181.021)" stroke="#535461" stroke-miterlimit="10"/>
<path d="M8.67745 2.75514C8.67745 2.75514 -23.3663 22.0841 35.7003 51.848C35.7003 51.848 48.7138 27.6868 34.3271 7.98569C31.5353 4.14712 27.4325 1.4658 22.7961 0.449642C18.1596 -0.566511 13.3115 0.153085 9.17011 2.47212L8.67745 2.75514Z" transform="translate(0 170.792)" fill="#1162FB"/>
<path d="M-2.87899e-06 -5.11821e-06C-2.87899e-06 -5.11821e-06 27.4211 20.9642 26.656 49.5017" transform="translate(9.04443 173.143)" stroke="#535461" stroke-miterlimit="10"/>
<path d="M352.371 169.621H318.698C319.472 168.063 319.874 166.346 319.872 164.606V11.2735C319.872 8.28357 318.684 5.41612 316.57 3.30193C314.455 1.18774 311.588 2.5591e-06 308.598 2.5591e-06H47.9451C44.9552 2.5591e-06 42.0878 1.18774 39.9736 3.30193C37.8594 5.41612 36.6716 8.28357 36.6716 11.2735V164.611C36.6689 166.351 37.0708 168.068 37.8456 169.626H2.98219C2.58924 169.626 2.20017 169.704 1.83733 169.855C1.47449 170.006 1.14504 170.227 0.867917 170.505C0.590792 170.784 0.371458 171.115 0.222519 171.478C0.0735793 171.842 -0.00202713 172.231 4.46521e-05 172.624V175.03C4.46521e-05 179.453 1.75708 183.695 4.88462 186.822C8.01217 189.95 12.254 191.707 16.6771 191.707H338.676C343.099 191.707 347.341 189.95 350.469 186.822C353.596 183.695 355.353 179.453 355.353 175.03V172.624C355.356 172.231 355.281 171.841 355.132 171.477C354.984 171.112 354.765 170.781 354.487 170.502C354.21 170.223 353.881 170.001 353.517 169.85C353.154 169.699 352.765 169.621 352.371 169.621ZM144.884 179.16L141.98 175.884H213.667L210.47 179.165L144.884 179.16Z" transform="translate(56.1299 29.0878)" fill="url(#paint0_linear)"/>
<path d="M264.599 0H12.1907C5.45795 0 1.91933e-06 5.45795 1.91933e-06 12.1907V159.71C1.91933e-06 166.443 5.45795 171.901 12.1907 171.901H264.599C271.332 171.901 276.79 166.443 276.79 159.71V12.1907C276.79 5.45795 271.332 0 264.599 0Z" transform="translate(95.9932 31.2576)" fill="#43526D"/>
<path d="M264.552 0H0V140.434H264.552V0Z" transform="translate(101.821 56.3151)" fill="white"/>
<path d="M2.33227 4.66453C3.62035 4.66453 4.66453 3.62034 4.66453 2.33227C4.66453 1.04419 3.62035 0 2.33227 0C1.0442 0 0 1.04419 0 2.33227C0 3.62034 1.0442 4.66453 2.33227 4.66453Z" transform="translate(231.768 41.745)" fill="white"/>
<path d="M214.789 8.95686e-06L205.701 9.32382H141.624L133.411 8.95686e-06H2.91402C2.14117 8.95686e-06 1.39999 0.307017 0.853501 0.853502C0.307016 1.39999 -6.39776e-07 2.14118 -6.39776e-07 2.91403V5.26201C-6.39776e-07 9.58494 1.71728 13.7308 4.77406 16.7876C7.83083 19.8444 11.9767 21.5616 16.2997 21.5616H331.003C333.144 21.5616 335.263 21.1401 337.241 20.3209C339.219 19.5018 341.015 18.3012 342.529 16.7876C344.043 15.274 345.243 13.4772 346.062 11.4996C346.881 9.52207 347.303 7.40251 347.303 5.26201V2.91403C347.303 2.14118 346.996 1.39999 346.45 0.853502C345.903 0.307017 345.162 8.95686e-06 344.389 8.95686e-06H214.789Z" transform="translate(60.1553 197.037)" fill="#43526D"/>
<path d="M-5.75798e-06 1.27955e-06V119.454H197.535" transform="translate(135.621 65.0571)" stroke="#535461" stroke-width="2" stroke-miterlimit="10"/>
<path d="M20.3929 -3.83866e-06H-2.5591e-06V31.4672H20.3929V-3.83866e-06Z" transform="translate(153.1 148.385)" fill="#FF4444"/>
<path d="M20.3929 0H0V59.4387H20.3929V0Z" transform="translate(188.062 120.413)" fill="#70A1FD"/>
<path d="M20.3929 -6.39776e-06H4.47843e-06V42.5363H20.3929V-6.39776e-06Z" transform="translate(223.026 137.31)" fill="#8000F7"/>
<path d="M20.3929 0H0V68.7625H20.3929V0Z" transform="translate(257.989 111.089)" fill="#70A1FD"/>
<path d="M20.3929 3.83866e-06H1.1516e-05V93.2329H20.3929V3.83866e-06Z" transform="translate(292.952 86.6135)" fill="#1162FB"/>
<path d="M-5.75798e-06 53.0289L35.5448 20.9799L70.5078 51.2784L104.889 14.5701L139.852 -1.27955e-06" transform="translate(163.005 76.1262)" stroke="#535461" stroke-width="2" stroke-miterlimit="10"/>
<path d="M4.07753 8.15507C6.32949 8.15507 8.15506 6.3295 8.15506 4.07754C8.15506 1.82558 6.32949 3.51877e-06 4.07753 3.51877e-06C1.82557 3.51877e-06 -5.11821e-06 1.82558 -5.11821e-06 4.07754C-5.11821e-06 6.3295 1.82557 8.15507 4.07753 8.15507Z" transform="translate(158.928 125.078)" fill="#FF4444"/>
<path d="M4.07754 8.15507C6.32949 8.15507 8.15507 6.32949 8.15507 4.07753C8.15507 1.82557 6.32949 -2.87899e-06 4.07754 -2.87899e-06C1.82558 -2.87899e-06 1.91933e-06 1.82557 1.91933e-06 4.07753C1.91933e-06 6.32949 1.82558 8.15507 4.07754 8.15507Z" transform="translate(228.854 122.745)" fill="#8000F7"/>
<path d="M4.07753 8.15507C6.32949 8.15507 8.15505 6.32949 8.15505 4.07753C8.15505 1.82557 6.32949 0 4.07753 0C1.82557 0 0 1.82557 0 4.07753C0 6.32949 1.82557 8.15507 4.07753 8.15507Z" transform="translate(264.398 86.6188)" fill="#70A1FD"/>
<path d="M4.07753 8.15507C6.32949 8.15507 8.15506 6.32949 8.15506 4.07753C8.15506 1.82557 6.32949 0 4.07753 0C1.82557 0 0 1.82557 0 4.07753C0 6.32949 1.82557 8.15507 4.07753 8.15507Z" transform="translate(194.473 92.4415)" fill="#70A1FD"/>
<path d="M4.07753 8.15507C6.32949 8.15507 8.15508 6.32949 8.15508 4.07753C8.15508 1.82557 6.32949 0 4.07753 0C1.82557 0 8.95687e-06 1.82557 8.95687e-06 4.07753C8.95687e-06 6.32949 1.82557 8.15507 4.07753 8.15507Z" transform="translate(298.78 72.0486)" fill="#1162FB"/>
<path d="M119.382 202.142C117.233 201.434 114.046 200.617 111.52 200.905C109.114 200.03 103.459 197.76 99.5966 194.343C99.708 190.983 99.6222 187.62 99.3398 184.27C97.3639 161.802 101.808 146.99 101.808 146.99C101.808 146.99 105.299 135.691 104.916 126.314C105.142 126.739 105.267 126.991 105.267 126.991C105.571 118.904 108.328 110.534 110.393 105.319C110.472 105.296 110.549 105.268 110.624 105.235L112.93 99.7633C113.114 99.4441 113.26 99.1047 113.365 98.7518L113.737 97.887L113.627 97.8398C113.664 97.6983 113.7 97.5463 113.737 97.3943C115.21 91.1627 116.357 76.383 116.357 76.383C120.309 60.8276 110.928 51.226 110.928 51.226L95.0054 37.5259C95.0847 37.7042 95.1376 37.8931 95.1627 38.0867L95.0316 37.9714C94.8063 37.3267 94.5599 36.5563 94.3189 35.6758C94.8805 35.2725 95.4065 34.8219 95.8912 34.3289C97.7015 32.6192 98.9468 30.3975 99.4603 27.961C99.7691 26.0556 99.8483 24.1201 99.6962 22.1958L99.4341 15.5869C99.4222 14.2934 99.2906 13.0039 99.041 11.7347C97.8408 6.49366 92.4688 2.82492 87.0757 2.58383C85.3598 2.57384 83.6448 2.66485 81.9395 2.85637C80.545 2.97093 79.1448 3.00069 77.7467 2.94547C77.5875 2.9539 77.4297 2.91171 77.296 2.82493C77.1746 2.70387 77.105 2.54035 77.102 2.36895C77.0745 2.06221 77.1095 1.75308 77.205 1.46028C77.3005 1.16749 77.4545 0.897131 77.6576 0.66561C77.8685 0.480583 78.1145 0.339791 78.3809 0.251571L77.9982 0.340667C78.1868 0.191923 78.3996 0.0766929 78.6272 2.5591e-06C77.2292 0.245796 75.8848 0.733534 74.6544 1.44129C74.3154 1.66401 74.0041 1.92614 73.7268 2.2222C72.9939 2.86524 72.5176 3.75101 72.3851 4.71694C71.7285 4.16254 71.2386 3.43681 70.97 2.62053C70.8866 2.28674 70.8866 1.93755 70.97 1.60376C70.8757 1.71906 70.7848 1.83786 70.6975 1.96015C70.6975 1.92346 70.6975 1.88678 70.6975 1.85009C69.6846 3.09507 68.9678 4.55383 68.601 6.1163C68.46 5.9471 68.354 5.75154 68.2892 5.541C68.2244 5.33045 68.2022 5.10913 68.2237 4.8899C68.1451 5.13623 68.0717 5.38255 68.0036 5.62888C67.9798 5.46552 67.9798 5.29958 68.0036 5.13622C67.3865 7.02571 67.1079 9.00934 67.1807 10.9957C67.1807 12.9768 68.0612 16.0638 70.1839 16.7609C70.2939 16.7976 70.404 16.8238 70.5193 16.85C69.3256 18.7043 68.6106 20.8259 68.4386 23.0246C68.2666 25.2233 68.6429 27.4302 69.5337 29.4477C70.4245 31.4651 71.802 33.23 73.5428 34.5841C75.2835 35.9382 77.333 36.8391 79.5077 37.2062C79.5426 37.4473 79.5758 37.7006 79.6072 37.9661H79.6911C79.7488 38.4902 79.7959 39.0668 79.8274 39.6537C79.2917 40.1786 78.7053 40.6491 78.0769 41.0584C76.295 42.1117 74.3073 42.7695 72.2488 42.9871C69.7906 43.1799 67.4018 43.8946 65.2416 45.0835C62.6996 46.5038 59.8957 48.574 59.0152 51.0897C57.5477 55.2825 49.466 61.8076 44.0468 62.62L42.1181 62.5099L41.9765 62.468V62.5047L41.5048 62.4785H41.4786H41.3529V62.5047L40.8654 62.4785C40.8654 62.4785 40.8183 62.7039 40.7502 63.1022C38.0248 62.164 32.2335 59.5645 24.6968 52.7249C16.3112 45.1097 4.9643 46.6086 0.588022 47.5677C0.439138 47.6006 0.303801 47.678 0.200094 47.7898C0.0963868 47.9016 0.0292265 48.0423 0.0075851 48.1932C-0.0140563 48.3441 0.0108622 48.4981 0.0789841 48.6345C0.147106 48.7709 0.255205 48.8833 0.38886 48.9566C2.15509 49.9262 4.89092 51.336 6.15401 51.4933C6.15401 51.4933 3.53349 54.2343 6.32173 55.6861C6.65624 55.8478 7.02883 55.9143 7.39863 55.8783C7.76844 55.8422 8.12117 55.705 8.41815 55.4817C9.77034 54.4911 13.5281 56.7343 18.9736 57.9031C18.9736 57.9031 34.3403 73.8044 41.9713 76.2467C42.1471 76.594 42.3413 76.9316 42.553 77.2583L43.0248 77.2216V77.2583H43.2239L43.2816 77.7824C43.2816 77.7824 55.1473 77.1587 59.0047 72.8505C59.2778 72.606 59.5286 72.3376 59.7542 72.0487L55.6295 123.935H55.6662L55.6295 124.428H58.664C58.9237 130.809 58.6485 137.201 57.8412 143.537V177.362C57.8412 177.362 57.684 180.339 63.8684 184.7C70.3527 189.214 76.6012 194.058 82.5894 199.212L83.3389 199.862C82.2016 210.213 79.8221 229.505 77.8358 230.223L79.0622 230.438C76.9658 233.095 71.0119 240.396 69.1985 240.59C66.9763 240.837 65.4931 244.296 69.1985 245.035C76.5972 246.315 84.2047 245.565 91.2109 242.865C91.9097 242.589 92.4959 242.087 92.8759 241.439C93.2559 240.791 93.4078 240.035 93.3073 239.29L92.5893 233.84C92.7253 233.915 92.8349 234.03 92.9038 234.17C93.3964 235.653 92.9038 232.194 92.9038 232.194C94.9341 225.668 96.5292 219.015 97.6784 212.278L105.016 218.62C105.016 218.62 105.163 218.436 105.419 218.096C107.217 222.173 110.425 230.517 109.707 236.628C108.721 245.014 118.092 237.613 117.112 232.676C116.316 228.683 119.879 211.754 121.268 205.423C121.418 204.739 121.308 204.024 120.959 203.418C120.61 202.811 120.048 202.356 119.382 202.142V202.142Z" transform="translate(335.178)" fill="url(#paint1_linear)"/>
<path d="M41.4653 16.4241C41.4653 16.4241 34.4737 15.2187 24.1069 5.81624C15.9047 -1.6208 4.84083 -0.158545 0.574615 0.779602C0.429239 0.811018 0.296984 0.886177 0.19558 0.994982C0.0941762 1.10379 0.0285038 1.24101 0.00738993 1.38824C-0.0137239 1.53546 0.0107074 1.68563 0.0774454 1.81855C0.144183 1.95147 0.250011 2.06078 0.380699 2.13178C2.105 3.07517 4.77795 4.45357 6.03056 4.6108C6.03056 4.6108 3.44672 7.28373 6.19303 8.71454C6.52186 8.87604 6.8891 8.94293 7.25375 8.90777C7.6184 8.8726 7.96611 8.73674 8.25801 8.51537C9.57875 7.55102 13.2475 9.74178 18.5671 10.8791C18.5671 10.8791 39.3007 32.3359 44.1225 28.6986L41.4653 16.4241Z" transform="translate(336.413 48.7535)" fill="#FEC3BE"/>
<path d="M-7.67731e-06 10.3668C-7.67731e-06 10.3668 1.9287 18.5638 -7.67731e-06 24.3499L8.67916 25.5553L16.394 21.6979V16.6351C16.394 16.6351 12.7777 8.92026 13.742 1.59944e-06L-7.67731e-06 10.3668Z" transform="translate(413.574 25.6392)" fill="#FEC3BE"/>
<path d="M0 14.4266C0 14.4266 6.28925 26.7221 5.30394 34.9191C4.31862 43.1161 13.5009 35.8834 12.5366 31.0617C11.7557 27.1623 15.2357 10.6216 16.5931 4.46859C16.7403 3.80369 16.6351 3.10783 16.2981 2.51609C15.961 1.92436 15.4162 1.47894 14.7693 1.26629C11.871 0.312419 7.01775 -0.85631 4.58067 0.930886C0.98007 3.57761 0 14.4266 0 14.4266Z" transform="translate(438.149 199.251)" fill="#535461"/>
<path d="M12.5695 0.723278C12.5695 0.723278 4.37251 11.3311 2.20272 11.5722C0.0329232 11.8133 -1.41361 15.1886 2.20272 15.9118C9.42328 17.1685 16.8495 16.444 23.691 13.8154C24.3757 13.5483 24.9508 13.0591 25.3243 12.4262C25.6978 11.7933 25.8479 11.0533 25.7507 10.3248L24.3671 1.1516e-05L12.5695 0.723278Z" transform="translate(401.728 226.455)" fill="#535461"/>
<path d="M7.95625 -6.39776e-07L0.0946778 1.04821C1.17371 10.2306 1.14204 19.5095 0.000342824 28.6842V61.7028C0.000342824 61.7028 -0.151626 64.6116 5.88606 68.8411C12.2174 73.2427 18.3189 77.9659 24.1668 82.992L46.0429 101.944C46.0429 101.944 54.7221 91.3357 53.5167 85.0674C53.5167 85.0674 39.0514 80.4868 37.1227 73.013C36.0168 68.7363 30.4089 65.1514 25.8177 62.8978C22.9316 61.4962 20.6118 59.1494 19.2437 56.2473C17.8756 53.3452 17.5415 50.0623 18.2968 46.944C18.565 45.8605 18.9793 44.8184 19.5285 43.8466C23.3859 37.0961 28.9309 21.9076 28.9309 21.9076L18.323 1.68762L7.95625 -6.39776e-07Z" transform="translate(392.84 114.595)" fill="#4D4981"/>
<path opacity="0.8" d="M7.95625 0L0.0946841 1.04821C1.17372 10.2306 1.14205 19.5095 0.000349078 28.6842V61.7028C0.000349078 61.7028 -0.151619 64.6116 5.88607 68.8411C12.2174 73.2427 18.3189 77.9659 24.1668 82.992L46.043 101.944C46.043 101.944 54.7221 91.3357 53.5167 85.0674C53.5167 85.0674 39.0514 80.4868 37.1227 73.013C36.0168 68.7363 30.4089 65.1514 25.8177 62.8978C22.9316 61.4962 20.6118 59.1494 19.2437 56.2473C17.8756 53.3452 17.5415 50.0623 18.2969 46.944C18.565 45.8605 18.9793 44.8184 19.5285 43.8466C23.3859 37.0961 28.9309 21.9076 28.9309 21.9076L18.3231 1.68762L7.95625 0Z" transform="translate(392.84 114.595)" fill="#3C4A62"/>
<path d="M7.69385 113.231C7.69385 113.231 21.918 115.642 22.4002 117.088C22.8824 118.535 22.4002 115.16 22.4002 115.16C22.4002 115.16 30.5972 90.3275 28.6895 68.3937C26.7817 46.46 31.1003 31.9894 31.1003 31.9894C31.1003 31.9894 36.1632 15.5954 33.2701 6.193C30.3771 -3.20943 2.5591e-06 0.889069 2.5591e-06 0.889069C2.5591e-06 0.889069 10.6079 25.7211 10.3668 37.5345C10.3668 37.5345 11.5722 73.2155 13.742 77.314C13.721 77.293 10.3458 112.251 7.69385 113.231Z" transform="translate(404.675 114.686)" fill="#43526D"/>
<path d="M21.4374 -3.51877e-06C21.4374 -3.51877e-06 22.8839 8.90978 37.3492 5.06286L27.7267 78.3484C27.7267 78.3484 -0.239551 79.3127 0.00153705 75.9375L5.76669 31.5825L21.4374 -3.51877e-06Z" transform="translate(392.604 42.2743)" fill="white"/>
<path opacity="0.1" d="M37.007 -2.5591e-06C35.1233 1.85444 32.6693 3.01957 30.0417 3.3071C27.6415 3.49104 25.3081 4.18428 23.1969 5.34062C20.7179 6.7295 17.9558 8.7473 17.1173 11.2054C15.4296 16.0271 4.82175 23.983 -7.67731e-06 22.2954L1.68763 36.7607C1.68763 36.7607 15.4297 36.0374 17.8405 30.7335L13.7473 82.3526H17.3636C17.3636 82.3526 19.2923 68.3694 20.7388 65.4764C22.1853 62.5833 25.0784 46.6715 25.3195 42.8141C25.5606 38.9567 29.1769 16.7766 32.3111 12.9401L37.028 1.48845L37.007 -2.5591e-06Z" transform="translate(377.411 41.7921)" fill="black"/>
<path opacity="0.1" d="M37.4839 0C35.3294 1.68533 32.753 2.74598 30.0364 3.06601C27.6373 3.25393 25.3057 3.95073 23.1969 5.11002C20.7179 6.4989 17.9558 8.5167 17.1172 10.9748C15.4296 15.7965 4.82177 23.7524 6.39776e-06 22.0648L1.68761 36.5301C1.68761 36.5301 15.4296 35.8068 17.8405 30.5029L13.742 82.0905H17.3583C17.3583 82.0905 19.2871 68.1074 20.7336 65.2143C22.1801 62.3213 25.0732 46.4095 25.3142 42.5521C25.5553 38.6946 29.1717 16.5145 32.3058 12.6781L37.4839 1.44129V0Z" transform="translate(376.935 42.5154)" fill="black"/>
<path d="M37.4892 9.59664e-07C35.3346 1.68533 32.7583 2.74597 30.0417 3.06601C27.6415 3.24995 25.3081 3.94319 23.1969 5.09954C20.7179 6.48841 17.9558 8.50622 17.1172 10.9643C15.4296 15.786 4.82176 23.7419 1.27955e-06 22.0543L1.6876 36.5196C1.6876 36.5196 15.4296 35.7963 17.8405 30.4924L13.7473 82.1115H17.3636C17.3636 82.1115 19.2923 68.1283 20.7388 65.2353C22.1854 62.3422 25.0784 46.4304 25.3195 42.573C25.5606 38.7156 29.1769 16.5355 32.3111 12.6991L37.4944 1.48846L37.4892 9.59664e-07Z" transform="translate(376.929 42.0332)" fill="#D9D9EA"/>
<path opacity="0.1" d="M13.1393 6.38883C12.8248 4.10374 13.4538 2.67817 13.742 -3.83866e-06L-7.67731e-06 10.3668C-7.67731e-06 10.3668 0.330171 11.7661 0.581741 13.8154C1.27492 13.9274 1.97599 13.9835 2.67816 13.9831C7.44751 13.9831 10.8804 10.2567 13.1393 6.38883Z" transform="translate(413.574 26.3624)" fill="black"/>
<path d="M13.0187 26.0375C20.2088 26.0375 26.0375 20.2088 26.0375 13.0188C26.0375 5.8287 20.2088 0 13.0187 0C5.82869 0 8.95686e-06 5.8287 8.95686e-06 13.0188C8.95686e-06 20.2088 5.82869 26.0375 13.0187 26.0375Z" transform="translate(403.208 13.5901)" fill="#FEC3BE"/>
<path opacity="0.1" d="M0.0119078 10.4926C-0.0716062 8.29708 0.284785 6.10705 1.06012 4.05133C0.844731 4.37476 0.753663 4.76523 0.803759 5.15058C0.853854 5.53593 1.04174 5.89012 1.33266 6.14774C1.75233 3.90725 2.90236 1.86889 4.60307 0.351148C3.6754 0.503139 3.19847 1.65093 3.42908 2.56287C3.74234 3.45361 4.29993 4.23822 5.03808 4.82701C4.95947 3.44861 5.8714 2.15931 7.02443 1.4046C8.22576 0.714543 9.53821 0.239222 10.9028 -6.39776e-07C10.4349 0.166094 10.0351 0.482396 9.76587 0.899557C9.49661 1.31672 9.37301 1.81127 9.41434 2.30606C9.41841 2.47416 9.48799 2.63403 9.60826 2.75155C9.73923 2.83534 9.8933 2.87569 10.0485 2.86685C11.4065 2.91919 12.7664 2.88944 14.1208 2.77776C15.786 2.59034 17.4608 2.50109 19.1365 2.51046C24.3775 2.73059 29.6448 6.31022 30.8188 11.4202C31.0621 12.6601 31.1902 13.9198 31.2014 15.1833L31.4582 21.635C31.6073 23.5173 31.5299 25.4106 31.2276 27.2744C30.8646 28.995 30.1263 30.6143 29.0654 32.0167C28.0045 33.4191 26.6472 34.5701 25.0903 35.3875C23.1983 32.6465 23.0306 29.1245 22.3754 25.8593C22.2721 25.1058 21.9919 24.3874 21.5578 23.7629C21.3337 23.4541 21.0191 23.2226 20.6576 23.1005C20.2961 22.9785 19.9055 22.9718 19.54 23.0816C18.8325 23.3646 18.5285 24.4442 19.1155 24.9264C18.5914 25.5449 17.6113 25.0836 17.0191 24.5333C15.3652 22.9644 14.2266 20.9302 13.7539 18.7001C13.5181 17.5785 13.2823 16.1948 12.1816 15.8122C11.803 15.7082 11.4073 15.6814 11.0181 15.7336C8.72253 15.8909 5.13242 16.8395 2.91022 16.111C0.871455 15.4454 0.0119078 12.4265 0.0119078 10.4926Z" transform="translate(402.006 3.35425)" fill="black"/>
<path d="M0.0119193 10.4926C-0.0715947 8.29708 0.284797 6.10706 1.06013 4.05133C0.844743 4.37477 0.753675 4.76523 0.80377 5.15058C0.853866 5.53593 1.04172 5.89013 1.33264 6.14775C1.75231 3.90725 2.90237 1.86889 4.60308 0.351153C3.67542 0.503143 3.19845 1.65093 3.42906 2.56287C3.74232 3.45361 4.29991 4.23822 5.03806 4.827C4.95945 3.44861 5.87141 2.15931 7.02444 1.4046C8.22577 0.71454 9.53819 0.239226 10.9028 3.83866e-06C10.4349 0.166098 10.0351 0.4824 9.76588 0.899561C9.49662 1.31672 9.37302 1.81127 9.41436 2.30606C9.41842 2.47416 9.488 2.63403 9.60827 2.75155C9.73924 2.83534 9.89328 2.87568 10.0485 2.86685C11.4065 2.91918 12.7664 2.88943 14.1208 2.77775C15.786 2.59033 17.4608 2.50109 19.1365 2.51046C24.3775 2.73059 29.6448 6.31022 30.8188 11.4202C31.0621 12.6601 31.1902 13.9198 31.2014 15.1833L31.4582 21.635C31.6073 23.5173 31.5299 25.4106 31.2276 27.2744C30.8646 28.995 30.1263 30.6143 29.0654 32.0167C28.0046 33.4191 26.6472 34.5701 25.0903 35.3875C23.1983 32.6465 23.0306 29.1245 22.3755 25.8593C22.2721 25.1058 21.9919 24.3874 21.5579 23.7629C21.3337 23.4541 21.0191 23.2226 20.6576 23.1005C20.296 22.9785 19.9055 22.9718 19.5401 23.0816C18.8325 23.3646 18.5285 24.4442 19.1155 24.9264C18.5914 25.5449 17.6113 25.0836 17.0191 24.5333C15.3652 22.9644 14.2266 20.9302 13.7539 18.7001C13.5181 17.5785 13.2822 16.1948 12.1816 15.8122C11.803 15.7082 11.4073 15.6814 11.0181 15.7336C8.72254 15.8908 5.1324 16.8395 2.9102 16.111C0.871434 15.4401 0.0119193 12.4265 0.0119193 10.4926Z" transform="translate(402.247 3.11316)" fill="#784F69"/>
<path opacity="0.1" d="M0.513786 7.03754e-06C0.513786 7.03754e-06 -1.41493 8.90977 2.20139 14.4653L4.25065 14.2976L3.13431 0.146756L0.513786 7.03754e-06Z" transform="translate(375.792 64.0928)" fill="black"/>
<path d="M0.513786 7.03754e-06C0.513786 7.03754e-06 -1.41493 8.90977 2.20139 14.4653L4.25065 14.2976L3.13431 0.146756L0.513786 7.03754e-06Z" transform="translate(376.316 64.0928)" fill="#D9D9EA"/>
<path opacity="0.1" d="M16.7609 0L32.3111 13.3804C32.3111 13.3804 41.4724 22.7828 37.615 37.9714C37.615 37.9714 35.9274 60.1515 33.9987 61.1158C33.9987 61.1158 27.2482 74.6168 26.766 87.3944C26.766 87.3944 17.7252 69.1923 13.6267 80.2823C9.52822 91.3724 2.5591e-06 92.9395 2.5591e-06 92.9395L5.30394 27.3425C5.30394 27.3425 18.6896 4.07753 16.7609 0Z" transform="translate(411.882 39.7638)" fill="black"/>
<path d="M16.7609 0L32.3111 13.3804C32.3111 13.3804 41.4724 22.7828 37.615 37.9714C37.615 37.9714 35.9274 60.1515 33.9987 61.1158C33.9987 61.1158 27.2482 74.6168 26.766 87.3944C26.766 87.3944 17.243 68.2279 13.1393 79.318C9.03556 90.408 -6.39776e-06 92.9447 -6.39776e-06 92.9447L5.30393 27.374C5.30393 27.374 18.6896 4.07753 16.7609 0Z" transform="translate(412.364 39.7638)" fill="#D9D9EA"/>
<path d="M10.4873 0.47468C10.4873 0.47468 14.3447 -2.17728 20.613 5.05536L5.18338 33.0216L1.40751e-05 25.1967C1.40751e-05 25.1967 10.9695 3.60882 10.4873 0.47468Z" transform="translate(425.75 95.8033)" fill="#FEC3BE"/>
<path opacity="0.1" d="M-1.53546e-05 4.0985C-1.53546e-05 4.0985 8.53241 13.6791 11.8605 12.1435L14.9422 4.96852L3.37522 0L-1.53546e-05 4.0985Z" transform="translate(432.5 93.7466)" fill="black"/>
<path d="M-1.53546e-05 4.09849C-1.53546e-05 4.09849 8.53241 13.6791 11.8605 12.1435L14.9422 4.96851L3.37522 -7.03754e-06L-1.53546e-05 4.09849Z" transform="translate(432.5 93.2644)" fill="#D9D9EA"/>
<path opacity="0.1" d="M1.49895 5.11821e-06C1.49895 5.11821e-06 5.56073 8.32278 7.72529 8.80495L4.58066 12.4213L-1.02364e-05 3.7421L1.49895 5.11821e-06Z" transform="translate(424.774 119.171)" fill="black"/>
<path d="M1.50942 0C1.50942 0 5.57124 8.32277 7.73579 8.80495L4.59116 12.4213L0 3.72638L1.50942 0Z" transform="translate(424.523 119.428)" fill="#43526D"/>
<path opacity="0.1" d="M1.44654 -6.39776e-07C1.44654 -6.39776e-07 1.92871 17.3583 5.11821e-06 23.8677Z" transform="translate(432.259 67.9502)" fill="black"/>
<path opacity="0.1" d="M0 3.37523C0 3.37523 2.89307 2.41088 2.89307 -6.39776e-07Z" transform="translate(394.649 67.9502)" fill="black"/>
<path d="M7.7877 5.11821e-06C7.7877 5.11821e-06 -5.95432 28.4274 3.07076 62.0697C12.0958 95.712 9.22899 135.968 0.230112 145.926" transform="translate(35.5488 74.2289)" stroke="#535461" stroke-width="2" stroke-miterlimit="10"/>
<path d="M3.78928 7.57855C5.88204 7.57855 7.57855 5.88203 7.57855 3.78927C7.57855 1.69652 5.88204 0 3.78928 0C1.69652 0 0 1.69652 0 3.78927C0 5.88203 1.69652 7.57855 3.78928 7.57855Z" transform="translate(39.5469 70.4449)" fill="#1162FB"/>
<path d="M-3.51877e-06 2.62052C-3.51877e-06 2.62052 14.2452 5.18863 18.0344 -3.19888e-06" transform="translate(37.6235 89.8944)" stroke="#535461" stroke-width="2" stroke-miterlimit="10"/>
<path d="M8.1162 15.1676C8.1162 15.1676 -0.452914 5.68653 0.0187799 -4.47843e-06" transform="translate(28.1553 85.6019)" stroke="#535461" stroke-width="2" stroke-miterlimit="10"/>
<path d="M3.83866e-06 13.1026C3.83866e-06 13.1026 7.79343 15.1571 14.9055 4.47843e-06" transform="translate(35.543 105.036)" stroke="#535461" stroke-width="2" stroke-miterlimit="10"/>
<path d="M17.2279 20.5292C17.2279 20.5292 -2.16394 8.05025 0.199776 6.39776e-07" transform="translate(20.396 110.24)" stroke="#535461" stroke-width="2" stroke-miterlimit="10"/>
<path d="M3.83866e-06 23.9149C3.83866e-06 23.9149 13.5848 11.8605 12.1645 5.11821e-06" transform="translate(40.6533 121.136)" stroke="#535461" stroke-width="2" stroke-miterlimit="10"/>
<path d="M16.783 12.4108C16.783 12.4108 -0.51243 7.57856 0.011675 5.75798e-06" transform="translate(25.3477 141.036)" stroke="#535461" stroke-width="2" stroke-miterlimit="10"/>
<path d="M1.27955e-06 16.2472C1.27955e-06 16.2472 10.8961 6.15299 12.3165 0" transform="translate(43.3364 147.205)" stroke="#535461" stroke-width="2" stroke-miterlimit="10"/>
<path d="M11.6561 19.6801C11.6561 19.6801 0.476932 6.62993 -3.19888e-06 6.39776e-06" transform="translate(32.4404 160.937)" stroke="#535461" stroke-width="2" stroke-miterlimit="10"/>
<path d="M-3.19888e-07 20.5292C-3.19888e-07 20.5292 12.5104 6.62992 13.4538 1.27955e-06" transform="translate(44.0967 170.89)" stroke="#535461" stroke-width="2" stroke-miterlimit="10"/>
<path d="M3.78927 7.57855C5.88203 7.57855 7.57855 5.88203 7.57855 3.78927C7.57855 1.69652 5.88203 0 3.78927 0C1.69652 0 0 1.69652 0 3.78927C0 5.88203 1.69652 7.57855 3.78927 7.57855Z" transform="translate(24.3848 82.7614)" fill="#1162FB"/>
<path d="M3.78928 7.57856C5.88204 7.57856 7.57855 5.88204 7.57855 3.78928C7.57855 1.69652 5.88204 -3.83866e-06 3.78928 -3.83866e-06C1.69652 -3.83866e-06 0 1.69652 0 3.78928C0 5.88204 1.69652 7.57856 3.78928 7.57856Z" transform="translate(20.124 137.247)" fill="#1162FB"/>
<path d="M3.78928 7.57855C5.88203 7.57855 7.57855 5.88203 7.57855 3.78927C7.57855 1.69651 5.88203 0 3.78928 0C1.69652 0 0 1.69651 0 3.78927C0 5.88203 1.69652 7.57855 3.78928 7.57855Z" transform="translate(16.8066 106.451)" fill="#1162FB"/>
<path d="M3.78927 7.57855C5.88203 7.57855 7.57855 5.88203 7.57855 3.78928C7.57855 1.69652 5.88203 0 3.78927 0C1.69652 0 0 1.69652 0 3.78928C0 5.88203 1.69652 7.57855 3.78927 7.57855Z" transform="translate(51.8691 86.079)" fill="#1162FB"/>
<path d="M3.78927 7.57856C5.88203 7.57856 7.57855 5.88204 7.57855 3.78928C7.57855 1.69652 5.88203 -5.11821e-06 3.78927 -5.11821e-06C1.69652 -5.11821e-06 0 1.69652 0 3.78928C0 5.88204 1.69652 7.57856 3.78927 7.57856Z" transform="translate(51.8691 144.354)" fill="#1162FB"/>
<path d="M3.78927 7.57855C5.88203 7.57855 7.57855 5.88204 7.57855 3.78928C7.57855 1.69652 5.88203 -2.23922e-06 3.78927 -2.23922e-06C1.69652 -2.23922e-06 0 1.69652 0 3.78928C0 5.88204 1.69652 7.57855 3.78927 7.57855Z" transform="translate(45.7109 101.241)" fill="#1162FB"/>
<path d="M3.78928 7.57855C5.88204 7.57855 7.57855 5.88204 7.57855 3.78928C7.57855 1.69652 5.88204 1.91933e-06 3.78928 1.91933e-06C1.69652 1.91933e-06 0 1.69652 0 3.78928C0 5.88204 1.69652 7.57855 3.78928 7.57855Z" transform="translate(53.2891 169.469)" fill="#1162FB"/>
<path d="M3.78928 7.57855C5.88204 7.57855 7.57855 5.88203 7.57855 3.78927C7.57855 1.69651 5.88204 7.03754e-06 3.78928 7.03754e-06C1.69652 7.03754e-06 0 1.69651 0 3.78927C0 5.88203 1.69652 7.57855 3.78928 7.57855Z" transform="translate(27.7026 159.516)" fill="#1162FB"/>
<path d="M3.78928 7.57855C5.88204 7.57855 7.57855 5.88204 7.57855 3.78928C7.57855 1.69652 5.88204 3.51877e-06 3.78928 3.51877e-06C1.69652 3.51877e-06 0 1.69652 0 3.78928C0 5.88204 1.69652 7.57855 3.78928 7.57855Z" transform="translate(49.5 117.347)" fill="#1162FB"/>
<defs>
<linearGradient id="paint0_linear" x2="1" gradientUnits="userSpaceOnUse" gradientTransform="translate(81.8311 191.686) scale(191.691) rotate(-90)">
<stop stop-color="#808080" stop-opacity="0.25"/>
<stop offset="0.54" stop-color="#808080" stop-opacity="0.12"/>
<stop offset="1" stop-color="#808080" stop-opacity="0.1"/>
</linearGradient>
<linearGradient id="paint1_linear" x2="1" gradientUnits="userSpaceOnUse" gradientTransform="translate(78136.3 158138) scale(56869 115133) rotate(-90)">
<stop stop-color="#808080" stop-opacity="0.25"/>
<stop offset="0.54" stop-color="#808080" stop-opacity="0.12"/>
<stop offset="1" stop-color="#808080" stop-opacity="0.1"/>
</linearGradient>
</defs>
</svg>
