<svg xmlns="http://www.w3.org/2000/svg" width="651.409" height="415.625" viewBox="0 0 651.409 415.625"><title>illustration_6</title><g id="945006bc-1cf1-474c-bcaa-676552b0dc45" data-name="Calque 2"><g id="4b232529-c934-44aa-91bf-039809de6840" data-name="0.3 landing"><path d="M651.409,10.871c0,48.886-126.521,252.5-301.608,252.5S0,414.881,0,414.881H651.409Z" style="fill:#5cdaff;opacity:0.4"/><path d="M160.338,289.333v51.815a2,2,0,0,0,2,2h.042V287.333h-.042A2,2,0,0,0,160.338,289.333Z" style="fill:#a8a8a8"/><path d="M160.338,219.515v51.815a2,2,0,0,0,2,2h.042V217.515h-.042A2,2,0,0,0,160.338,219.515Z" style="fill:#a8a8a8"/><path d="M160.338,164.9v25.41a2,2,0,0,0,2,2h.042V162.9h-.042A2,2,0,0,0,160.338,164.9Z" style="fill:#a8a8a8"/><path d="M540.338,322.943V238.12a1.993,1.993,0,0,0-1.755-1.975v88.774A1.993,1.993,0,0,0,540.338,322.943Z" style="fill:#a8a8a8"/><path d="M505.217,32.339a32.6,32.6,0,0,0-23.122-9.578H447.326a4.5,4.5,0,0,0-4.5,4.323c-.286,7.277-2.026,12.806-5.3,16.536s-8.059,5.584-14.2,5.579c-13.3,0-62.6.236-100.969.236-19.5,0-36.167-.061-43.876-.245-6.941-.163-12.277-2.071-15.9-5.782s-5.489-9.157-5.65-16.251a4.5,4.5,0,0,0-4.5-4.4H218.468a32.7,32.7,0,0,0-32.7,32.7v359.2h.184c-.007-15.273-.126-253.4-.126-253.145,0,13.87,17.787,44.905,51.267,75.444v-3.207h.5v3.659a295.069,295.069,0,0,0,37.043,28.551h1.707v.5H275.4a299.96,299.96,0,0,0,67.646,32.655c31.782,10.667,60.386,25.9,84.739,41.845h.558v.363c48.988,32.183,80.629,67.152,86.055,73.336h.4V55.462A32.6,32.6,0,0,0,505.217,32.339ZM188.342,116.463h-1.75v.75h-.5v-1.25h2.25Zm8,0h-4v-.5h4Zm8,75h-4v-.5h4Zm0-75h-4v-.5h4Zm8,75h-4v-.5h4Zm0-75h-4v-.5h4Zm8,75h-4v-.5h4Zm0-75h-4v-.5h4Zm8,75h-4v-.5h4Zm0-75h-4v-.5h4Zm8,75h-4v-.5h4Zm0-75h-4v-.5h4Zm1.25,113.388h-.5v-3.9h.5Zm0-7.8h-.5v-3.9h.5Zm0-7.8h-.5v-3.9h.5Zm0-7.8h-.5v-3.9h.5Zm0-7.8h-.5v-3.9h.5Zm0-7.8h-.5v-3.9h.5Zm0-7.8h-.5v-3.9h.5Zm0-7.8h-.5v-3.9h.5Zm0-7.8h-.5v-3.9h.5Zm0-7.8h-.5v-3.9h.5Zm0-7.8h-.5v-3.9h.5Zm0-7.8h-.5v-3.9h.5Zm0-7.8h-.5v-3.9h.5Zm0-7.8h-.5v-3.9h.5Zm0-7.8h-.5v-3.9h.5Zm0-7.8h-.5v-3.9h.5Zm0-7.8h-.5v-3.9h.5Zm0-7.8h-.5V95.213h.5Zm6.75,94.275h-4v-.5h4Zm0-75h-4v-.5h4Zm8,75h-4v-.5h4Zm0-75h-4v-.5h4Zm8,75h-4v-.5h4Zm0-75h-4v-.5h4Zm8,75h-4v-.5h4Zm0-75h-4v-.5h4Zm8,75h-4v-.5h4Zm0-75h-4v-.5h4Zm35.75-21.25h.5v1.975h-.5Zm0,5.878h.5v3.9h-.5Zm0,7.8h.5v3.9h-.5Zm0,7.8h.5v3.9h-.5Zm0,7.8h.5v3.9h-.5Zm0,7.8h.5v3.9h-.5Zm0,7.8h.5v3.9h-.5Zm0,7.8h.5v3.9h-.5Zm0,7.8h.5v3.9h-.5Zm0,7.8h.5v3.9h-.5Zm0,7.8h.5v3.9h-.5Zm0,7.8h.5v3.9h-.5Zm0,7.8h.5v3.9h-.5Zm0,7.8h.5v3.9h-.5Zm0,7.8h.5v3.9h-.5Zm0,7.8h.5v3.9h-.5Zm0,7.8h.5v3.9h-.5Zm0,7.8h.5v3.9h-.5Zm0,7.8h.5v3.9h-.5Zm0,7.8h.5v3.9h-.5Zm0,7.8h.5v3.9h-.5Zm0,7.8h.5v3.9h-.5Zm-27.75,9.3h-4v-.5h4Zm0-75h-4v-.5h4Zm0-75h-4v-.5h4Zm8,150h-4v-.5h4Zm0-75h-4v-.5h4Zm0-75h-4v-.5h4Zm8,150h-4v-.5h4Zm0-75h-4v-.5h4Zm0-75h-4v-.5h4Zm8,150h-4v-.5h4Zm0-75h-4v-.5h4Zm0-75h-4v-.5h4Zm4.25,168.014h-.5v-3.9h.5Zm0-7.8h-.5v-3.9h.5Zm3.75-10.21h-3.75v2.406h-.5v-3.9h.5v1h3.75Zm0-75h-4v-.5h4Zm0-75h-4v-.5h4Zm8,150h-4v-.5h4Zm0-75h-4v-.5h4Zm0-75h-4v-.5h4Zm8,150h-4v-.5h4Zm0-75h-4v-.5h4Zm0-75h-4v-.5h4Zm8,150h-4v-.5h4Zm0-75h-4v-.5h4Zm0-75h-4v-.5h4Zm46.75-21.25h.5v1.975h-.5Zm0,5.878h.5v3.9h-.5Zm0,7.8h.5v3.9h-.5Zm-38.75,157.569h-4v-.5h4Zm0-75h-4v-.5h4Zm0-75h-4v-.5h4Zm8,150h-4v-.5h4Zm0-75h-4v-.5h4Zm0-75h-4v-.5h4Zm8,150h-4v-.5h4Zm0-75h-4v-.5h4Zm0-75h-4v-.5h4Zm8,150h-4v-.5h4Zm0-75h-4v-.5h4Zm0-75h-4v-.5h4Zm8,150h-4v-.5h4Zm0-75h-4v-.5h4Zm0-75h-4v-.5h4Zm7.25,199.228h-.5v-3.9h.5Zm0-7.8h-.5v-3.9h.5Zm0-7.8h-.5v-3.9h.5Zm0-7.8h-.5v-3.9h.5Zm0-7.8h-.5v-3.9h.5Zm0-7.8h-.5v-3.9h.5Zm.75-10.21h-.75v2.406h-.5v-2.406h-2.75v-.5h2.75v-1h.5v1h.75Zm-.75-63.925v3.9h-.5v-3.9Zm-.5-3.9v-3.9h.5v3.9Zm.5,11.706v3.9h-.5v-3.9Zm0,7.8v3.9h-.5v-3.9Zm0,7.8v3.9h-.5v-3.9Zm0,7.8v3.9h-.5v-3.9Zm0,7.8v3.9h-.5v-3.9Zm0,7.8v3.9h-.5v-3.9Zm0,7.8v3.9h-.5v-3.9Zm.75-65.7h-4v-.5h4Zm-.75-66.962v3.9h-.5v-3.9Zm-.5-3.9v-3.9h.5v3.9Zm.5,11.706v3.9h-.5v-3.9Zm0,7.8v3.9h-.5v-3.9Zm0,7.8v3.9h-.5v-3.9Zm0,7.8v3.9h-.5v-3.9Zm0,7.8v3.9h-.5v-3.9Zm0,7.8v3.9h-.5v-3.9Zm0,7.8v3.9h-.5v-3.9Zm0,7.8v3.9h-.5v-3.9Zm.75-70.468h-4v-.5h4Zm8,150h-4v-.5h4Zm0-75h-4v-.5h4Zm0-75h-4v-.5h4Zm8,150h-4v-.5h4Zm0-75h-4v-.5h4Zm0-75h-4v-.5h4Zm8,150h-4v-.5h4Zm0-75h-4v-.5h4Zm0-75h-4v-.5h4Zm8,150h-4v-.5h4Zm0-75h-4v-.5h4Zm0-75h-4v-.5h4Zm8,150h-4v-.5h4Zm0-75h-4v-.5h4Zm0-75h-4v-.5h4Zm8,225h-4v-.5h4Zm0-75h-4v-.5h4Zm0-75h-4v-.5h4Zm0-75h-4v-.5h4Zm8,225h-4v-.5h4Zm0-75h-4v-.5h4Zm0-75h-4v-.5h4Zm0-75h-4v-.5h4Zm8,225h-4v-.5h4Zm0-75h-4v-.5h4Zm0-75h-4v-.5h4Zm0-75h-4v-.5h4Zm8,225h-4v-.5h4Zm0-75h-4v-.5h4Zm0-75h-4v-.5h4Zm0-75h-4v-.5h4Zm2.25,246.05h-.5v-3.9h.5Zm0-7.8h-.5v-3.9h.5Zm0-7.8h-.5V343h.5Zm0-7.8h-.5v-3.9h.5Zm0-7.8h-.5v-3.9h.5Zm0-7.8h-.5v-3.9h.5Zm0-7.8h-.5v-3.9h.5Zm0-7.8h-.5v-3.9h.5Zm0-7.8h-.5v-3.9h.5Zm0-7.8h-.5v-3.9h.5Zm0-7.8h-.5v-3.9h.5Zm0-7.8h-.5v-3.9h.5Zm0-7.8h-.5v-3.9h.5Zm0-7.8h-.5v-3.9h.5Zm0-7.8h-.5v-3.9h.5Zm0-7.8h-.5v-3.9h.5Zm0-7.8h-.5v-3.9h.5Zm0-7.8h-.5v-3.9h.5Zm0-7.8h-.5v-3.9h.5Zm0-7.8h-.5v-3.9h.5Zm0-7.8h-.5v-3.9h.5Zm0-7.8h-.5v-3.9h.5Zm0-7.8h-.5v-3.9h.5Zm0-7.8h-.5v-3.9h.5Zm0-7.8h-.5v-3.9h.5Zm0-7.8h-.5v-3.9h.5Zm0-7.8h-.5v-3.9h.5Zm0-7.8h-.5v-3.9h.5Zm0-7.8h-.5v-3.9h.5Zm0-7.8h-.5v-3.9h.5Zm0-7.8h-.5v-3.9h.5Zm0-7.8h-.5v-3.9h.5Zm0-7.8h-.5v-3.9h.5Zm0-7.8h-.5v-3.9h.5Zm0-7.8h-.5V95.213h.5Zm5.75,244.275h-4v-.5h4Zm0-75h-4v-.5h4Zm0-75h-4v-.5h4Zm0-75h-4v-.5h4Zm8,225h-4v-.5h4Zm0-75h-4v-.5h4Zm0-75h-4v-.5h4Zm0-75h-4v-.5h4Zm8,225h-4v-.5h4Zm0-75h-4v-.5h4Zm0-75h-4v-.5h4Zm0-75h-4v-.5h4Zm8,225h-4v-.5h4Zm0-75h-4v-.5h4Zm0-75h-4v-.5h4Zm0-75h-4v-.5h4Zm8,225h-4v-.5h4Zm0-75h-4v-.5h4Zm0-75h-4v-.5h4Zm0-75h-4v-.5h4Zm8,225h-4v-.5h4Zm0-75h-4v-.5h4Zm0-75h-4v-.5h4Zm0-75h-4v-.5h4Zm6,225h-2v-.5h2Zm0-75h-2v-.5h2Zm0-75h-2v-.5h2Zm.25-74.25h-.5v-.75h-1.75v-.5h2.25v1.25Z" style="fill:#fff"/><path d="M532.939,231.12h4.644V54.1A53.1,53.1,0,0,0,484.483,1h-268a53.1,53.1,0,0,0-53.1,53.1V157.9h4.356v39.41H163.38v15.205h4.356v65.815H163.38v4h4.356v65.815H163.38v66.514h6.6V57.358a49.1,49.1,0,0,1,49.1-49.1H480.486a49.1,49.1,0,0,1,49.1,49.1v357.3h8V329.943h-4.644Z" style="fill:#fff"/><path d="M514.5,23.346A47.948,47.948,0,0,0,480.486,9.258H219.077a48.1,48.1,0,0,0-48.1,48.1v357.3h13.791V55.462a33.7,33.7,0,0,1,33.7-33.7h34.461v.05a5.482,5.482,0,0,1,5,5.324c.16,6.942,1.97,12.1,5.365,15.575s8.431,5.317,15.213,5.481c7.687.183,24.361.244,43.853.244,38.365,0,87.658-.236,100.969-.236,5.958-.005,10.391-1.76,13.452-5.239s4.771-8.769,5.052-15.916a5.5,5.5,0,0,1,5.5-5.284h34.769a33.7,33.7,0,0,1,33.7,33.7v359.2h12.792V57.358A47.949,47.949,0,0,0,514.5,23.346Z" style="fill:#fff"/><rect x="163.38" y="282.333" width="4.356" height="65.815" style="fill:#fff"/><rect x="163.38" y="212.515" width="4.356" height="65.815" style="fill:#fff"/><rect x="163.38" y="157.9" width="4.356" height="39.41" style="fill:#fff"/><rect x="532.939" y="231.12" width="4.644" height="98.823" style="fill:#fff"/><path d="M484.483.5a53.6,53.6,0,0,1,53.6,53.6V231.12h.5V54.1A54.1,54.1,0,0,0,484.483,0h-268V.5Z" style="fill:#a8a8a8"/><rect x="162.38" y="197.31" width="0.5" height="15.205" style="fill:#a8a8a8"/><rect x="538.083" y="329.943" width="0.5" height="84.719" style="fill:#a8a8a8"/><rect x="162.38" y="278.329" width="0.5" height="4.004" style="fill:#a8a8a8"/><path d="M162.88,54.1A53.6,53.6,0,0,1,216.48.5V0a54.1,54.1,0,0,0-54.1,54.1V157.9h.5Z" style="fill:#a8a8a8"/><rect x="162.38" y="348.148" width="0.5" height="66.514" style="fill:#a8a8a8"/><polygon points="162.88 282.333 162.38 282.333 162.38 287.333 162.736 287.333 162.736 343.148 162.38 343.148 162.38 348.148 162.88 348.148 162.88 282.333" style="fill:#a8a8a8"/><rect x="162.38" y="287.333" width="0.356" height="55.815" style="fill:#a8a8a8"/><polygon points="162.88 212.515 162.38 212.515 162.38 217.515 162.736 217.515 162.736 273.329 162.38 273.329 162.38 278.329 162.88 278.329 162.88 212.515" style="fill:#a8a8a8"/><rect x="162.38" y="217.515" width="0.356" height="55.815" style="fill:#a8a8a8"/><polygon points="162.88 157.9 162.38 157.9 162.38 162.9 162.736 162.9 162.736 192.31 162.38 192.31 162.38 197.31 162.88 197.31 162.88 157.9" style="fill:#a8a8a8"/><rect x="162.38" y="162.9" width="0.356" height="29.41" style="fill:#a8a8a8"/><path d="M538.338,324.943h-.255v5h.5v-5.025A1.967,1.967,0,0,1,538.338,324.943Z" style="fill:#a8a8a8"/><path d="M538.083,236.12h.255a1.967,1.967,0,0,1,.245.025V231.12h-.5Z" style="fill:#a8a8a8"/><path d="M538.338,324.943a1.967,1.967,0,0,0,.245-.025V236.144a1.967,1.967,0,0,0-.245-.025h-.255v88.823Z" style="fill:#a8a8a8"/><path d="M484.483,1a53.1,53.1,0,0,1,53.1,53.1V231.12h.5V54.1A53.6,53.6,0,0,0,484.483.5h-268V1Z" style="fill:#a8a8a8"/><rect x="537.583" y="329.943" width="0.5" height="84.719" style="fill:#a8a8a8"/><rect x="162.88" y="197.31" width="0.5" height="15.205" style="fill:#a8a8a8"/><rect x="162.88" y="278.329" width="0.5" height="4.004" style="fill:#a8a8a8"/><path d="M163.38,54.1A53.1,53.1,0,0,1,216.48,1V.5a53.6,53.6,0,0,0-53.6,53.6V157.9h.5Z" style="fill:#a8a8a8"/><rect x="162.88" y="348.148" width="0.5" height="66.514" style="fill:#a8a8a8"/><rect x="162.88" y="282.333" width="0.5" height="65.815" style="fill:#a8a8a8"/><rect x="162.88" y="212.515" width="0.5" height="65.815" style="fill:#a8a8a8"/><rect x="162.88" y="157.9" width="0.5" height="39.41" style="fill:#a8a8a8"/><polygon points="537.583 329.943 538.083 329.943 538.083 324.943 537.939 324.943 537.939 236.12 538.083 236.12 538.083 231.12 537.583 231.12 537.583 329.943" style="fill:#a8a8a8"/><rect x="537.939" y="236.12" width="0.144" height="88.823" style="fill:#a8a8a8"/><path d="M170.976,57.358a48.1,48.1,0,0,1,48.1-48.1v-1a49.1,49.1,0,0,0-49.1,49.1v357.3h1Z" style="fill:#a8a8a8"/><path d="M219.077,9.258H480.486a48.1,48.1,0,0,1,48.1,48.1v357.3h1V57.358a49.1,49.1,0,0,0-49.1-49.1H219.077v1Z" style="fill:#a8a8a8"/><rect x="472.342" y="340.963" width="4" height="0.5" style="fill:#a8a8a8"/><rect x="488.342" y="340.963" width="4" height="0.5" style="fill:#a8a8a8"/><rect x="496.342" y="340.963" width="4" height="0.5" style="fill:#a8a8a8"/><rect x="440.342" y="340.963" width="4" height="0.5" style="fill:#a8a8a8"/><rect x="456.342" y="340.963" width="4" height="0.5" style="fill:#a8a8a8"/><rect x="504.342" y="340.963" width="4" height="0.5" style="fill:#a8a8a8"/><rect x="464.342" y="340.963" width="4" height="0.5" style="fill:#a8a8a8"/><rect x="448.342" y="340.963" width="4" height="0.5" style="fill:#a8a8a8"/><rect x="480.342" y="340.963" width="4" height="0.5" style="fill:#a8a8a8"/><path d="M428.342,340.963h-.558c.185.121.374.242.558.363Z" style="fill:#a8a8a8"/><rect x="432.342" y="340.963" width="4" height="0.5" style="fill:#a8a8a8"/><rect x="512.342" y="340.963" width="2" height="0.5" style="fill:#a8a8a8"/><rect x="288.342" y="265.963" width="4" height="0.5" style="fill:#a8a8a8"/><rect x="464.342" y="265.963" width="4" height="0.5" style="fill:#a8a8a8"/><rect x="336.342" y="265.963" width="4" height="0.5" style="fill:#a8a8a8"/><rect x="472.342" y="265.963" width="4" height="0.5" style="fill:#a8a8a8"/><rect x="328.342" y="265.963" width="4" height="0.5" style="fill:#a8a8a8"/><rect x="312.592" y="265.963" width="3.75" height="0.5" style="fill:#a8a8a8"/><rect x="416.342" y="265.963" width="4" height="0.5" style="fill:#a8a8a8"/><rect x="448.342" y="265.963" width="4" height="0.5" style="fill:#a8a8a8"/><rect x="424.342" y="265.963" width="4" height="0.5" style="fill:#a8a8a8"/><rect x="280.342" y="265.963" width="4" height="0.5" style="fill:#a8a8a8"/><rect x="400.342" y="265.963" width="4" height="0.5" style="fill:#a8a8a8"/><rect x="392.342" y="265.963" width="4" height="0.5" style="fill:#a8a8a8"/><rect x="440.342" y="265.963" width="4" height="0.5" style="fill:#a8a8a8"/><rect x="408.342" y="265.963" width="4" height="0.5" style="fill:#a8a8a8"/><rect x="496.342" y="265.963" width="4" height="0.5" style="fill:#a8a8a8"/><rect x="387.592" y="265.963" width="0.75" height="0.5" style="fill:#a8a8a8"/><rect x="376.342" y="265.963" width="4" height="0.5" style="fill:#a8a8a8"/><rect x="504.342" y="265.963" width="4" height="0.5" style="fill:#a8a8a8"/><rect x="360.342" y="265.963" width="4" height="0.5" style="fill:#a8a8a8"/><rect x="368.342" y="265.963" width="4" height="0.5" style="fill:#a8a8a8"/><rect x="384.342" y="265.963" width="2.75" height="0.5" style="fill:#a8a8a8"/><path d="M276.342,266.463v-.5h-1.707c.255.166.507.334.763.5Z" style="fill:#a8a8a8"/><rect x="480.342" y="265.963" width="4" height="0.5" style="fill:#a8a8a8"/><rect x="304.342" y="265.963" width="4" height="0.5" style="fill:#a8a8a8"/><rect x="296.342" y="265.963" width="4" height="0.5" style="fill:#a8a8a8"/><rect x="488.342" y="265.963" width="4" height="0.5" style="fill:#a8a8a8"/><rect x="344.342" y="265.963" width="4" height="0.5" style="fill:#a8a8a8"/><rect x="456.342" y="265.963" width="4" height="0.5" style="fill:#a8a8a8"/><rect x="352.342" y="265.963" width="4" height="0.5" style="fill:#a8a8a8"/><rect x="320.342" y="265.963" width="4" height="0.5" style="fill:#a8a8a8"/><rect x="432.342" y="265.963" width="4" height="0.5" style="fill:#a8a8a8"/><rect x="512.342" y="265.963" width="2" height="0.5" style="fill:#a8a8a8"/><rect x="440.342" y="190.963" width="4" height="0.5" style="fill:#a8a8a8"/><rect x="448.342" y="190.963" width="4" height="0.5" style="fill:#a8a8a8"/><rect x="456.342" y="190.963" width="4" height="0.5" style="fill:#a8a8a8"/><rect x="312.342" y="190.963" width="4" height="0.5" style="fill:#a8a8a8"/><rect x="320.342" y="190.963" width="4" height="0.5" style="fill:#a8a8a8"/><rect x="384.342" y="190.963" width="4" height="0.5" style="fill:#a8a8a8"/><rect x="344.342" y="190.963" width="4" height="0.5" style="fill:#a8a8a8"/><rect x="432.342" y="190.963" width="4" height="0.5" style="fill:#a8a8a8"/><rect x="352.342" y="190.963" width="4" height="0.5" style="fill:#a8a8a8"/><rect x="368.342" y="190.963" width="4" height="0.5" style="fill:#a8a8a8"/><rect x="376.342" y="190.963" width="4" height="0.5" style="fill:#a8a8a8"/><rect x="336.342" y="190.963" width="4" height="0.5" style="fill:#a8a8a8"/><rect x="408.342" y="190.963" width="4" height="0.5" style="fill:#a8a8a8"/><rect x="416.342" y="190.963" width="4" height="0.5" style="fill:#a8a8a8"/><rect x="424.342" y="190.963" width="4" height="0.5" style="fill:#a8a8a8"/><rect x="392.342" y="190.963" width="4" height="0.5" style="fill:#a8a8a8"/><rect x="400.342" y="190.963" width="4" height="0.5" style="fill:#a8a8a8"/><rect x="328.342" y="190.963" width="4" height="0.5" style="fill:#a8a8a8"/><rect x="360.342" y="190.963" width="4" height="0.5" style="fill:#a8a8a8"/><rect x="248.342" y="190.963" width="4" height="0.5" style="fill:#a8a8a8"/><rect x="504.342" y="190.963" width="4" height="0.5" style="fill:#a8a8a8"/><rect x="256.342" y="190.963" width="4" height="0.5" style="fill:#a8a8a8"/><rect x="496.342" y="190.963" width="4" height="0.5" style="fill:#a8a8a8"/><rect x="264.342" y="190.963" width="4" height="0.5" style="fill:#a8a8a8"/><rect x="240.342" y="190.963" width="4" height="0.5" style="fill:#a8a8a8"/><rect x="488.342" y="190.963" width="4" height="0.5" style="fill:#a8a8a8"/><rect x="216.342" y="190.963" width="4" height="0.5" style="fill:#a8a8a8"/><rect x="464.342" y="190.963" width="4" height="0.5" style="fill:#a8a8a8"/><rect x="208.342" y="190.963" width="4" height="0.5" style="fill:#a8a8a8"/><rect x="232.342" y="190.963" width="4" height="0.5" style="fill:#a8a8a8"/><rect x="480.342" y="190.963" width="4" height="0.5" style="fill:#a8a8a8"/><rect x="224.342" y="190.963" width="4" height="0.5" style="fill:#a8a8a8"/><rect x="472.342" y="190.963" width="4" height="0.5" style="fill:#a8a8a8"/><rect x="288.342" y="190.963" width="4" height="0.5" style="fill:#a8a8a8"/><rect x="280.342" y="190.963" width="4" height="0.5" style="fill:#a8a8a8"/><rect x="272.342" y="190.963" width="4" height="0.5" style="fill:#a8a8a8"/><rect x="200.342" y="190.963" width="4" height="0.5" style="fill:#a8a8a8"/><rect x="304.342" y="190.963" width="4" height="0.5" style="fill:#a8a8a8"/><rect x="296.342" y="190.963" width="4" height="0.5" style="fill:#a8a8a8"/><rect x="512.342" y="190.963" width="2" height="0.5" style="fill:#a8a8a8"/><polygon points="186.092 117.213 186.592 117.213 186.592 116.463 188.342 116.463 188.342 115.963 186.092 115.963 186.092 117.213" style="fill:#a8a8a8"/><rect x="328.342" y="115.963" width="4" height="0.5" style="fill:#a8a8a8"/><rect x="472.342" y="115.963" width="4" height="0.5" style="fill:#a8a8a8"/><rect x="192.342" y="115.963" width="4" height="0.5" style="fill:#a8a8a8"/><rect x="320.342" y="115.963" width="4" height="0.5" style="fill:#a8a8a8"/><rect x="464.342" y="115.963" width="4" height="0.5" style="fill:#a8a8a8"/><rect x="488.342" y="115.963" width="4" height="0.5" style="fill:#a8a8a8"/><rect x="496.342" y="115.963" width="4" height="0.5" style="fill:#a8a8a8"/><rect x="504.342" y="115.963" width="4" height="0.5" style="fill:#a8a8a8"/><rect x="352.342" y="115.963" width="4" height="0.5" style="fill:#a8a8a8"/><rect x="360.342" y="115.963" width="4" height="0.5" style="fill:#a8a8a8"/><rect x="200.342" y="115.963" width="4" height="0.5" style="fill:#a8a8a8"/><rect x="304.342" y="115.963" width="4" height="0.5" style="fill:#a8a8a8"/><rect x="336.342" y="115.963" width="4" height="0.5" style="fill:#a8a8a8"/><rect x="344.342" y="115.963" width="4" height="0.5" style="fill:#a8a8a8"/><rect x="368.342" y="115.963" width="4" height="0.5" style="fill:#a8a8a8"/><rect x="480.342" y="115.963" width="4" height="0.5" style="fill:#a8a8a8"/><rect x="280.342" y="115.963" width="4" height="0.5" style="fill:#a8a8a8"/><rect x="448.342" y="115.963" width="4" height="0.5" style="fill:#a8a8a8"/><rect x="440.342" y="115.963" width="4" height="0.5" style="fill:#a8a8a8"/><rect x="272.342" y="115.963" width="4" height="0.5" style="fill:#a8a8a8"/><rect x="264.342" y="115.963" width="4" height="0.5" style="fill:#a8a8a8"/><rect x="432.342" y="115.963" width="4" height="0.5" style="fill:#a8a8a8"/><rect x="296.342" y="115.963" width="4" height="0.5" style="fill:#a8a8a8"/><rect x="312.342" y="115.963" width="4" height="0.5" style="fill:#a8a8a8"/><rect x="376.342" y="115.963" width="4" height="0.5" style="fill:#a8a8a8"/><rect x="456.342" y="115.963" width="4" height="0.5" style="fill:#a8a8a8"/><rect x="288.342" y="115.963" width="4" height="0.5" style="fill:#a8a8a8"/><rect x="384.342" y="115.963" width="4" height="0.5" style="fill:#a8a8a8"/><rect x="256.342" y="115.963" width="4" height="0.5" style="fill:#a8a8a8"/><rect x="216.342" y="115.963" width="4" height="0.5" style="fill:#a8a8a8"/><rect x="224.342" y="115.963" width="4" height="0.5" style="fill:#a8a8a8"/><rect x="400.342" y="115.963" width="4" height="0.5" style="fill:#a8a8a8"/><rect x="208.342" y="115.963" width="4" height="0.5" style="fill:#a8a8a8"/><rect x="248.342" y="115.963" width="4" height="0.5" style="fill:#a8a8a8"/><rect x="392.342" y="115.963" width="4" height="0.5" style="fill:#a8a8a8"/><rect x="424.342" y="115.963" width="4" height="0.5" style="fill:#a8a8a8"/><rect x="240.342" y="115.963" width="4" height="0.5" style="fill:#a8a8a8"/><rect x="408.342" y="115.963" width="4" height="0.5" style="fill:#a8a8a8"/><rect x="416.342" y="115.963" width="4" height="0.5" style="fill:#a8a8a8"/><rect x="232.342" y="115.963" width="4" height="0.5" style="fill:#a8a8a8"/><polygon points="512.342 115.963 512.342 116.463 514.092 116.463 514.092 117.213 514.592 117.213 514.592 116.213 514.592 115.963 512.342 115.963" style="fill:#a8a8a8"/><rect x="462.092" y="350.808" width="0.5" height="3.902" style="fill:#a8a8a8"/><rect x="462.092" y="280.575" width="0.5" height="3.902" style="fill:#a8a8a8"/><rect x="462.092" y="288.379" width="0.5" height="3.902" style="fill:#a8a8a8"/><rect x="462.092" y="272.771" width="0.5" height="3.902" style="fill:#a8a8a8"/><rect x="462.092" y="241.557" width="0.5" height="3.902" style="fill:#a8a8a8"/><rect x="462.092" y="303.986" width="0.5" height="3.902" style="fill:#a8a8a8"/><rect x="462.092" y="249.36" width="0.5" height="3.902" style="fill:#a8a8a8"/><rect x="462.092" y="257.164" width="0.5" height="3.902" style="fill:#a8a8a8"/><rect x="462.092" y="264.968" width="0.5" height="3.902" style="fill:#a8a8a8"/><rect x="462.092" y="296.182" width="0.5" height="3.902" style="fill:#a8a8a8"/><rect x="462.092" y="101.091" width="0.5" height="3.902" style="fill:#a8a8a8"/><rect x="462.092" y="343.004" width="0.5" height="3.902" style="fill:#a8a8a8"/><rect x="462.092" y="311.79" width="0.5" height="3.902" style="fill:#a8a8a8"/><rect x="462.092" y="335.201" width="0.5" height="3.902" style="fill:#a8a8a8"/><rect x="462.092" y="358.612" width="0.5" height="3.902" style="fill:#a8a8a8"/><rect x="462.092" y="108.894" width="0.5" height="3.902" style="fill:#a8a8a8"/><rect x="462.092" y="319.593" width="0.5" height="3.902" style="fill:#a8a8a8"/><rect x="462.092" y="116.698" width="0.5" height="3.902" style="fill:#a8a8a8"/><rect x="462.092" y="327.397" width="0.5" height="3.902" style="fill:#a8a8a8"/><rect x="462.092" y="194.735" width="0.5" height="3.902" style="fill:#a8a8a8"/><rect x="462.092" y="202.538" width="0.5" height="3.902" style="fill:#a8a8a8"/><rect x="462.092" y="179.127" width="0.5" height="3.902" style="fill:#a8a8a8"/><rect x="462.092" y="186.931" width="0.5" height="3.902" style="fill:#a8a8a8"/><rect x="462.092" y="225.949" width="0.5" height="3.902" style="fill:#a8a8a8"/><rect x="462.092" y="218.146" width="0.5" height="3.902" style="fill:#a8a8a8"/><rect x="462.092" y="210.342" width="0.5" height="3.902" style="fill:#a8a8a8"/><rect x="462.092" y="155.716" width="0.5" height="3.902" style="fill:#a8a8a8"/><rect x="462.092" y="132.305" width="0.5" height="3.902" style="fill:#a8a8a8"/><rect x="462.092" y="124.502" width="0.5" height="3.902" style="fill:#a8a8a8"/><rect x="462.092" y="140.109" width="0.5" height="3.902" style="fill:#a8a8a8"/><rect x="462.092" y="163.52" width="0.5" height="3.902" style="fill:#a8a8a8"/><rect x="462.092" y="147.913" width="0.5" height="3.902" style="fill:#a8a8a8"/><rect x="462.092" y="171.324" width="0.5" height="3.902" style="fill:#a8a8a8"/><rect x="462.092" y="233.753" width="0.5" height="3.902" style="fill:#a8a8a8"/><rect x="462.092" y="95.213" width="0.5" height="1.975" style="fill:#a8a8a8"/><rect x="387.092" y="280.575" width="0.5" height="3.902" style="fill:#a8a8a8"/><rect x="387.092" y="249.36" width="0.5" height="3.902" style="fill:#a8a8a8"/><rect x="387.092" y="194.735" width="0.5" height="3.902" style="fill:#a8a8a8"/><rect x="387.092" y="264.968" width="0.5" height="0.995" style="fill:#a8a8a8"/><rect x="387.092" y="202.538" width="0.5" height="3.902" style="fill:#a8a8a8"/><rect x="387.092" y="210.342" width="0.5" height="3.902" style="fill:#a8a8a8"/><rect x="387.092" y="218.146" width="0.5" height="3.902" style="fill:#a8a8a8"/><rect x="387.092" y="233.753" width="0.5" height="3.902" style="fill:#a8a8a8"/><rect x="387.092" y="241.557" width="0.5" height="3.902" style="fill:#a8a8a8"/><rect x="387.092" y="225.949" width="0.5" height="3.902" style="fill:#a8a8a8"/><rect x="387.092" y="296.182" width="0.5" height="3.902" style="fill:#a8a8a8"/><rect x="387.092" y="303.986" width="0.5" height="3.902" style="fill:#a8a8a8"/><rect x="387.092" y="186.931" width="0.5" height="3.902" style="fill:#a8a8a8"/><rect x="387.092" y="288.379" width="0.5" height="3.902" style="fill:#a8a8a8"/><rect x="387.092" y="311.79" width="0.5" height="3.902" style="fill:#a8a8a8"/><rect x="387.092" y="272.771" width="0.5" height="3.902" style="fill:#a8a8a8"/><rect x="387.092" y="266.463" width="0.5" height="2.406" style="fill:#a8a8a8"/><rect x="387.092" y="132.305" width="0.5" height="3.902" style="fill:#a8a8a8"/><rect x="387.092" y="140.109" width="0.5" height="3.902" style="fill:#a8a8a8"/><rect x="387.092" y="171.324" width="0.5" height="3.902" style="fill:#a8a8a8"/><rect x="387.092" y="179.127" width="0.5" height="3.902" style="fill:#a8a8a8"/><rect x="387.092" y="147.913" width="0.5" height="3.902" style="fill:#a8a8a8"/><rect x="387.092" y="155.716" width="0.5" height="3.902" style="fill:#a8a8a8"/><rect x="387.092" y="124.502" width="0.5" height="3.902" style="fill:#a8a8a8"/><rect x="387.092" y="257.164" width="0.5" height="3.902" style="fill:#a8a8a8"/><rect x="387.092" y="163.52" width="0.5" height="3.902" style="fill:#a8a8a8"/><rect x="387.092" y="116.698" width="0.5" height="3.902" style="fill:#a8a8a8"/><rect x="387.092" y="101.091" width="0.5" height="3.902" style="fill:#a8a8a8"/><rect x="387.092" y="108.894" width="0.5" height="3.902" style="fill:#a8a8a8"/><rect x="387.092" y="265.963" width="0.5" height="0.5" style="fill:#a8a8a8"/><rect x="387.092" y="95.213" width="0.5" height="1.975" style="fill:#a8a8a8"/><rect x="312.092" y="116.698" width="0.5" height="3.902" style="fill:#a8a8a8"/><rect x="312.092" y="108.894" width="0.5" height="3.902" style="fill:#a8a8a8"/><rect x="312.092" y="101.091" width="0.5" height="3.902" style="fill:#a8a8a8"/><rect x="312.092" y="163.52" width="0.5" height="3.902" style="fill:#a8a8a8"/><rect x="312.092" y="124.502" width="0.5" height="3.902" style="fill:#a8a8a8"/><rect x="312.092" y="225.949" width="0.5" height="3.902" style="fill:#a8a8a8"/><rect x="312.092" y="218.146" width="0.5" height="3.902" style="fill:#a8a8a8"/><rect x="312.092" y="241.557" width="0.5" height="3.902" style="fill:#a8a8a8"/><rect x="312.092" y="210.342" width="0.5" height="3.902" style="fill:#a8a8a8"/><rect x="312.092" y="257.164" width="0.5" height="3.902" style="fill:#a8a8a8"/><rect x="312.092" y="249.36" width="0.5" height="3.902" style="fill:#a8a8a8"/><rect x="312.092" y="272.771" width="0.5" height="3.902" style="fill:#a8a8a8"/><rect x="312.092" y="202.538" width="0.5" height="3.902" style="fill:#a8a8a8"/><polygon points="312.342 265.963 312.592 265.963 312.592 264.968 312.092 264.968 312.092 268.87 312.592 268.87 312.592 266.463 312.342 266.463 312.342 265.963" style="fill:#a8a8a8"/><rect x="312.092" y="280.575" width="0.5" height="3.902" style="fill:#a8a8a8"/><rect x="312.092" y="233.753" width="0.5" height="3.902" style="fill:#a8a8a8"/><rect x="312.092" y="140.109" width="0.5" height="3.902" style="fill:#a8a8a8"/><rect x="312.092" y="132.305" width="0.5" height="3.902" style="fill:#a8a8a8"/><rect x="312.092" y="147.913" width="0.5" height="3.902" style="fill:#a8a8a8"/><rect x="312.092" y="155.716" width="0.5" height="3.902" style="fill:#a8a8a8"/><rect x="312.092" y="186.931" width="0.5" height="3.902" style="fill:#a8a8a8"/><rect x="312.092" y="194.735" width="0.5" height="3.902" style="fill:#a8a8a8"/><rect x="312.092" y="179.127" width="0.5" height="3.902" style="fill:#a8a8a8"/><rect x="312.092" y="171.324" width="0.5" height="3.902" style="fill:#a8a8a8"/><rect x="312.342" y="265.963" width="0.25" height="0.5" style="fill:#a8a8a8"/><rect x="312.092" y="95.213" width="0.5" height="1.975" style="fill:#a8a8a8"/><rect x="237.092" y="210.342" width="0.5" height="3.902" style="fill:#a8a8a8"/><rect x="237.092" y="218.146" width="0.5" height="3.902" style="fill:#a8a8a8"/><rect x="237.092" y="202.538" width="0.5" height="3.902" style="fill:#a8a8a8"/><path d="M237.592,233.753h-.5v3.207c.165.151.334.3.5.452Z" style="fill:#a8a8a8"/><rect x="237.092" y="225.949" width="0.5" height="3.902" style="fill:#a8a8a8"/><rect x="237.092" y="155.716" width="0.5" height="3.902" style="fill:#a8a8a8"/><rect x="237.092" y="124.502" width="0.5" height="3.902" style="fill:#a8a8a8"/><rect x="237.092" y="140.109" width="0.5" height="3.902" style="fill:#a8a8a8"/><rect x="237.092" y="116.698" width="0.5" height="3.902" style="fill:#a8a8a8"/><rect x="237.092" y="132.305" width="0.5" height="3.902" style="fill:#a8a8a8"/><rect x="237.092" y="101.091" width="0.5" height="3.902" style="fill:#a8a8a8"/><rect x="237.092" y="194.735" width="0.5" height="3.902" style="fill:#a8a8a8"/><rect x="237.092" y="108.894" width="0.5" height="3.902" style="fill:#a8a8a8"/><rect x="237.092" y="186.931" width="0.5" height="3.902" style="fill:#a8a8a8"/><rect x="237.092" y="147.913" width="0.5" height="3.902" style="fill:#a8a8a8"/><rect x="237.092" y="171.324" width="0.5" height="3.902" style="fill:#a8a8a8"/><rect x="237.092" y="179.127" width="0.5" height="3.902" style="fill:#a8a8a8"/><rect x="237.092" y="163.52" width="0.5" height="3.902" style="fill:#a8a8a8"/><rect x="237.092" y="95.213" width="0.5" height="1.975" style="fill:#a8a8a8"/><polygon points="252.429 22.262 252.429 22.262 251.929 22.262 251.929 22.262 251.929 22.762 252.429 22.762 252.429 22.262" style="fill:#a8a8a8"/><path d="M185.767,55.462a32.7,32.7,0,0,1,32.7-32.7v-1a33.7,33.7,0,0,0-33.7,33.7v359.2h1Z" style="fill:#a8a8a8"/><path d="M218.468,22.762h33.461v-.5h.5v-.5c.171,0,.333.034.5.05v-.05H218.468v1Z" style="fill:#a8a8a8"/><path d="M252.929,22.262h-.5v.5h0a4.5,4.5,0,0,1,4.5,4.4c.161,7.094,2.023,12.541,5.65,16.251s8.963,5.618,15.9,5.782c7.71.184,24.381.245,43.876.245,38.368,0,87.664-.236,100.969-.236,6.145.005,10.929-1.846,14.2-5.579s5.013-9.259,5.3-16.536a4.5,4.5,0,0,1,4.5-4.323h34.769a32.7,32.7,0,0,1,32.7,32.7v359.2h1V55.462a33.7,33.7,0,0,0-33.7-33.7H447.326a5.5,5.5,0,0,0-5.5,5.284c-.28,7.146-1.991,12.434-5.052,15.916s-7.494,5.233-13.452,5.239c-13.31,0-62.6.236-100.969.236-19.492,0-36.166-.061-43.853-.244-6.782-.164-11.818-2.01-15.213-5.481s-5.2-8.633-5.365-15.575a5.482,5.482,0,0,0-5-5.324v.45Z" style="fill:#a8a8a8"/><path d="M252.429,22.262h.5v-.45c-.167-.015-.329-.05-.5-.05Z" style="fill:#a8a8a8"/><path d="M237.092,413.238h.5v1.424h74.5v-1.424h.5v1.424h74.5v-1.424h.5v1.424h74.5v-1.424h.5v1.424h51.8c-5.426-6.184-37.067-41.153-86.055-73.336v.137h-4v-.5h3.442c-24.353-15.946-52.957-31.178-84.739-41.845A299.96,299.96,0,0,1,275.4,266.463h-3.056v-.5h2.293a295.069,295.069,0,0,1-37.043-28.551v.242h-.5v-.695c-33.48-30.538-51.267-61.574-51.267-75.444,0-.258.119,237.873.126,253.145h51.141Zm225-46.822h.5v3.9h-.5Zm0,7.8h.5v3.9h-.5Zm0,7.8h.5v3.9h-.5Zm0,7.8h.5v3.9h-.5Zm0,7.8h.5v3.9h-.5Zm0,7.8h.5v3.9h-.5Zm-74.5,3.9h-.5v-3.9h.5Zm0-7.8h-.5v-3.9h.5Zm0-7.8h-.5v-3.9h.5Zm0-7.8h-.5v-3.9h.5Zm0-7.8h-.5v-3.9h.5Zm0-7.8h-.5v-3.9h.5Zm0-7.8h-.5v-3.9h.5Zm0-7.8h-.5v-3.9h.5Zm0-7.8h-.5V343h.5Zm28.75-5.943h4v.5h-4Zm-8,0h4v.5h-4Zm-8,0h4v.5h-4Zm-8,0h4v.5h-4Zm-5.25-21.37h.5v3.9h-.5Zm0,7.8h.5v3.9h-.5Zm0,7.8h.5v3.9h-.5Zm-2.75,5.762h4v.5h-4Zm-8,0h4v.5h-4Zm-8,0h4v.5h-4Zm-8,0h4v.5h-4Zm-8,0h4v.5h-4Zm-8,0h4v.5h-4Zm-8,0h4v.5h-4Zm-8,0h4v.5h-4Zm-8,0h4v.5h-4Zm-4,.5h-4v-.5h4Zm-4.25-53.084h.5v3.9h-.5Zm0,7.8h.5v3.9h-.5Zm0,7.8h.5v3.9h-.5Zm0,7.8h.5v3.9h-.5Zm0,7.8h.5v3.9h-.5Zm0,7.8h.5v3.9h-.5Zm0,7.8h.5v3.9h-.5Zm0,7.8h.5v3.9h-.5Zm0,7.8h.5v3.9h-.5Zm0,7.8h.5v3.9h-.5Zm0,7.8h.5v3.9h-.5Zm0,7.8h.5v3.9h-.5Zm0,7.8h.5v3.9h-.5Zm0,7.8h.5v3.9h-.5Zm0,7.8h.5v3.9h-.5Zm0,7.8h.5v3.9h-.5Zm-7.75-64.471h4v.5h-4Zm-8,0h4v.5h-4Zm-8,0h4v.5h-4Zm-8,0h4v.5h-4Zm-8,0h4v.5h-4Zm-8-75h4v.5h-4Zm0,75h4v.5h-4Zm-8-75h4v.5h-4Zm0,75h4v.5h-4Zm-8-75h4v.5h-4Zm0,75h4v.5h-4Zm-8-75h4v.5h-4Zm0,75h4v.5h-4Zm-3.25-99.406h.5v3.9h-.5Zm0,7.8h.5v3.9h-.5Zm0,7.8h.5v3.9h-.5Zm0,7.8h.5v3.9h-.5Zm0,7.8h.5v3.9h-.5Zm0,7.8h.5v3.9h-.5Zm0,7.8h.5v3.9h-.5Zm0,7.8h.5v3.9h-.5Zm0,7.8h.5v3.9h-.5Zm0,7.8h.5v3.9h-.5Zm0,7.8h.5v3.9h-.5Zm0,7.8h.5v3.9h-.5Zm0,7.8h.5v3.9h-.5Zm0,7.8h.5v3.9h-.5Zm0,7.8h.5v3.9h-.5Zm0,7.8h.5v3.9h-.5Zm0,7.8h.5v3.9h-.5Zm0,7.8h.5v3.9h-.5Zm0,7.8h.5v3.9h-.5Zm0,7.8h.5v3.9h-.5Zm0,7.8h.5v3.9h-.5Zm0,7.8h.5v3.9h-.5Zm-48.75-63.971h-2v-.5h2Zm0-75h-2v-.5h2Zm0-75h-2v-.5h2Zm8,150h-4v-.5h4Zm0-75h-4v-.5h4Zm0-75h-4v-.5h4Zm8,150h-4v-.5h4Zm0-75h-4v-.5h4Zm8,75h-4v-.5h4Zm0-75h-4v-.5h4Zm8,75h-4v-.5h4Zm0-75h-4v-.5h4Zm8,75h-4v-.5h4Zm0-75h-4v-.5h4Zm8,75h-4v-.5h4Zm-4-75v-.5h4v.5Z" style="fill:#cdccfd"/><rect x="186.342" y="340.963" width="2" height="0.5" style="fill:#cdccfd"/><rect x="288.342" y="340.963" width="4" height="0.5" style="fill:#cdccfd"/><rect x="264.342" y="340.963" width="4" height="0.5" style="fill:#cdccfd"/><rect x="280.342" y="340.963" width="4" height="0.5" style="fill:#cdccfd"/><rect x="272.342" y="340.963" width="4" height="0.5" style="fill:#cdccfd"/><rect x="408.342" y="340.963" width="4" height="0.5" style="fill:#cdccfd"/><rect x="256.342" y="340.963" width="4" height="0.5" style="fill:#cdccfd"/><rect x="400.342" y="340.963" width="4" height="0.5" style="fill:#cdccfd"/><rect x="312.342" y="340.963" width="4" height="0.5" style="fill:#cdccfd"/><rect x="240.342" y="340.963" width="4" height="0.5" style="fill:#cdccfd"/><rect x="248.342" y="340.963" width="4" height="0.5" style="fill:#cdccfd"/><rect x="360.342" y="340.963" width="4" height="0.5" style="fill:#cdccfd"/><rect x="328.342" y="340.963" width="4" height="0.5" style="fill:#cdccfd"/><rect x="336.342" y="340.963" width="4" height="0.5" style="fill:#cdccfd"/><rect x="416.342" y="340.963" width="4" height="0.5" style="fill:#cdccfd"/><rect x="344.342" y="340.963" width="4" height="0.5" style="fill:#cdccfd"/><rect x="320.342" y="340.963" width="4" height="0.5" style="fill:#cdccfd"/><rect x="296.342" y="340.963" width="4" height="0.5" style="fill:#cdccfd"/><rect x="384.342" y="340.963" width="4" height="0.5" style="fill:#cdccfd"/><rect x="304.342" y="340.963" width="4" height="0.5" style="fill:#cdccfd"/><rect x="376.342" y="340.963" width="4" height="0.5" style="fill:#cdccfd"/><rect x="352.342" y="340.963" width="4" height="0.5" style="fill:#cdccfd"/><rect x="368.342" y="340.963" width="4" height="0.5" style="fill:#cdccfd"/><rect x="392.342" y="340.963" width="4" height="0.5" style="fill:#cdccfd"/><path d="M424.342,341.463h4v-.137c-.185-.121-.373-.242-.558-.363h-3.442Z" style="fill:#cdccfd"/><rect x="224.342" y="340.963" width="4" height="0.5" style="fill:#cdccfd"/><rect x="232.342" y="340.963" width="4" height="0.5" style="fill:#cdccfd"/><rect x="216.342" y="340.963" width="4" height="0.5" style="fill:#cdccfd"/><rect x="192.342" y="340.963" width="4" height="0.5" style="fill:#cdccfd"/><rect x="200.342" y="340.963" width="4" height="0.5" style="fill:#cdccfd"/><rect x="208.342" y="340.963" width="4" height="0.5" style="fill:#cdccfd"/><rect x="186.342" y="265.963" width="2" height="0.5" style="fill:#cdccfd"/><rect x="200.342" y="265.963" width="4" height="0.5" style="fill:#cdccfd"/><rect x="248.342" y="265.963" width="4" height="0.5" style="fill:#cdccfd"/><rect x="192.342" y="265.963" width="4" height="0.5" style="fill:#cdccfd"/><rect x="256.342" y="265.963" width="4" height="0.5" style="fill:#cdccfd"/><path d="M272.342,266.463H275.4c-.256-.166-.508-.334-.763-.5h-2.293Z" style="fill:#cdccfd"/><rect x="264.342" y="265.963" width="4" height="0.5" style="fill:#cdccfd"/><rect x="240.342" y="265.963" width="4" height="0.5" style="fill:#cdccfd"/><rect x="216.342" y="265.963" width="4" height="0.5" style="fill:#cdccfd"/><rect x="224.342" y="265.963" width="4" height="0.5" style="fill:#cdccfd"/><rect x="232.342" y="265.963" width="4" height="0.5" style="fill:#cdccfd"/><rect x="208.342" y="265.963" width="4" height="0.5" style="fill:#cdccfd"/><rect x="186.342" y="190.963" width="2" height="0.5" style="fill:#cdccfd"/><rect x="192.342" y="190.963" width="4" height="0.5" style="fill:#cdccfd"/><rect x="462.092" y="413.238" width="0.5" height="1.424" style="fill:#cdccfd"/><rect x="462.092" y="382.023" width="0.5" height="3.902" style="fill:#cdccfd"/><rect x="462.092" y="405.434" width="0.5" height="3.902" style="fill:#cdccfd"/><rect x="462.092" y="374.219" width="0.5" height="3.902" style="fill:#cdccfd"/><rect x="462.092" y="366.415" width="0.5" height="3.902" style="fill:#cdccfd"/><rect x="462.092" y="397.63" width="0.5" height="3.902" style="fill:#cdccfd"/><rect x="462.092" y="389.826" width="0.5" height="3.902" style="fill:#cdccfd"/><rect x="387.092" y="413.238" width="0.5" height="1.424" style="fill:#cdccfd"/><rect x="387.092" y="374.219" width="0.5" height="3.902" style="fill:#cdccfd"/><rect x="387.092" y="389.826" width="0.5" height="3.902" style="fill:#cdccfd"/><rect x="387.092" y="382.023" width="0.5" height="3.902" style="fill:#cdccfd"/><rect x="387.092" y="397.63" width="0.5" height="3.902" style="fill:#cdccfd"/><rect x="387.092" y="405.434" width="0.5" height="3.902" style="fill:#cdccfd"/><rect x="387.092" y="366.415" width="0.5" height="3.902" style="fill:#cdccfd"/><rect x="387.092" y="319.593" width="0.5" height="3.902" style="fill:#cdccfd"/><rect x="387.092" y="358.612" width="0.5" height="3.902" style="fill:#cdccfd"/><rect x="387.092" y="343.004" width="0.5" height="3.902" style="fill:#cdccfd"/><rect x="387.092" y="327.397" width="0.5" height="3.902" style="fill:#cdccfd"/><rect x="387.092" y="350.808" width="0.5" height="3.902" style="fill:#cdccfd"/><rect x="387.092" y="335.201" width="0.5" height="3.902" style="fill:#cdccfd"/><rect x="312.092" y="413.238" width="0.5" height="1.424" style="fill:#cdccfd"/><rect x="312.092" y="382.023" width="0.5" height="3.902" style="fill:#cdccfd"/><rect x="312.092" y="366.415" width="0.5" height="3.902" style="fill:#cdccfd"/><rect x="312.092" y="389.826" width="0.5" height="3.902" style="fill:#cdccfd"/><rect x="312.092" y="358.612" width="0.5" height="3.902" style="fill:#cdccfd"/><rect x="312.092" y="397.63" width="0.5" height="3.902" style="fill:#cdccfd"/><rect x="312.092" y="303.986" width="0.5" height="3.902" style="fill:#cdccfd"/><rect x="312.092" y="405.434" width="0.5" height="3.902" style="fill:#cdccfd"/><rect x="312.092" y="374.219" width="0.5" height="3.902" style="fill:#cdccfd"/><rect x="312.092" y="288.379" width="0.5" height="3.902" style="fill:#cdccfd"/><rect x="312.092" y="319.593" width="0.5" height="3.902" style="fill:#cdccfd"/><rect x="312.092" y="311.79" width="0.5" height="3.902" style="fill:#cdccfd"/><rect x="312.092" y="350.808" width="0.5" height="3.902" style="fill:#cdccfd"/><rect x="312.092" y="296.182" width="0.5" height="3.902" style="fill:#cdccfd"/><rect x="312.092" y="327.397" width="0.5" height="3.902" style="fill:#cdccfd"/><rect x="312.092" y="343.004" width="0.5" height="3.902" style="fill:#cdccfd"/><rect x="312.092" y="335.201" width="0.5" height="3.902" style="fill:#cdccfd"/><rect x="237.092" y="413.238" width="0.5" height="1.424" style="fill:#cdccfd"/><rect x="237.092" y="374.219" width="0.5" height="3.902" style="fill:#cdccfd"/><rect x="237.092" y="366.415" width="0.5" height="3.902" style="fill:#cdccfd"/><rect x="237.092" y="350.808" width="0.5" height="3.902" style="fill:#cdccfd"/><rect x="237.092" y="358.612" width="0.5" height="3.902" style="fill:#cdccfd"/><rect x="237.092" y="343.004" width="0.5" height="3.902" style="fill:#cdccfd"/><rect x="237.092" y="382.023" width="0.5" height="3.902" style="fill:#cdccfd"/><path d="M237.592,237.655v-.242c-.166-.151-.335-.3-.5-.452v.695Z" style="fill:#cdccfd"/><rect x="237.092" y="397.63" width="0.5" height="3.902" style="fill:#cdccfd"/><rect x="237.092" y="335.201" width="0.5" height="3.902" style="fill:#cdccfd"/><rect x="237.092" y="389.826" width="0.5" height="3.902" style="fill:#cdccfd"/><rect x="237.092" y="405.434" width="0.5" height="3.902" style="fill:#cdccfd"/><rect x="237.092" y="264.968" width="0.5" height="3.902" style="fill:#cdccfd"/><rect x="237.092" y="272.771" width="0.5" height="3.902" style="fill:#cdccfd"/><rect x="237.092" y="327.397" width="0.5" height="3.902" style="fill:#cdccfd"/><rect x="237.092" y="241.557" width="0.5" height="3.902" style="fill:#cdccfd"/><rect x="237.092" y="280.575" width="0.5" height="3.902" style="fill:#cdccfd"/><rect x="237.092" y="249.36" width="0.5" height="3.902" style="fill:#cdccfd"/><rect x="237.092" y="257.164" width="0.5" height="3.902" style="fill:#cdccfd"/><rect x="237.092" y="319.593" width="0.5" height="3.902" style="fill:#cdccfd"/><rect x="237.092" y="288.379" width="0.5" height="3.902" style="fill:#cdccfd"/><rect x="237.092" y="311.79" width="0.5" height="3.902" style="fill:#cdccfd"/><rect x="237.092" y="303.986" width="0.5" height="3.902" style="fill:#cdccfd"/><rect x="237.092" y="296.182" width="0.5" height="3.902" style="fill:#cdccfd"/><path d="M514.8,415.117v-.455h-.4Z" style="fill:#fff"/><path d="M462.592,414.662v.551h-.5v-.551h-74.5v.551h-.5v-.551h-74.5v.551h-.5v-.551h-74.5v.551h-.5v-.551H185.952c0,.506,0,.771,0,.771l328.843.192v-.508l-.4-.455Z" style="fill:#cdccfd"/><rect x="462.092" y="414.662" width="0.5" height="0.551" style="fill:#cdccfd"/><rect x="387.092" y="414.662" width="0.5" height="0.551" style="fill:#cdccfd"/><rect x="312.092" y="414.662" width="0.5" height="0.551" style="fill:#cdccfd"/><rect x="237.092" y="414.662" width="0.5" height="0.551" style="fill:#cdccfd"/><path d="M515.233,415.625s-.149-.176-.438-.508v.508Z" style="fill:#cdccfd"/><rect x="327.593" y="27.863" width="43.177" height="6.002" rx="3" ry="3" style="fill:none;stroke:#a8a8a8;stroke-miterlimit:10"/><path d="M204.771,43.821l.511-4.462h4.6v1h-3.644l-.362,2.7h.06a2.5,2.5,0,0,1,1.511-.511,2.645,2.645,0,0,1,2.823,2.8,2.706,2.706,0,0,1-2.959,2.84,2.4,2.4,0,0,1-2.631-2.3H205.7a1.582,1.582,0,0,0,1.673,1.4,1.859,1.859,0,0,0,1.895-1.929,1.733,1.733,0,0,0-1.822-1.868,2.416,2.416,0,0,0-1.669.549Z" style="fill:#a8a8a8"/><path d="M211.862,41.641a.766.766,0,1,1,.766.766A.76.76,0,0,1,211.862,41.641Zm0,4.41a.766.766,0,1,1,.766.767A.759.759,0,0,1,211.862,46.051Z" style="fill:#a8a8a8"/><path d="M215.288,43.821l.511-4.462h4.6v1h-3.644l-.362,2.7h.06a2.5,2.5,0,0,1,1.511-.511,2.645,2.645,0,0,1,2.823,2.8,2.706,2.706,0,0,1-2.959,2.84,2.4,2.4,0,0,1-2.631-2.3h1.021a1.582,1.582,0,0,0,1.673,1.4,1.859,1.859,0,0,0,1.895-1.929,1.733,1.733,0,0,0-1.822-1.868,2.415,2.415,0,0,0-1.669.549Z" style="fill:#a8a8a8"/><path d="M222.379,43.821l.511-4.462h4.6v1h-3.644l-.362,2.7h.06a2.5,2.5,0,0,1,1.511-.511,2.645,2.645,0,0,1,2.823,2.8,2.706,2.706,0,0,1-2.959,2.84,2.4,2.4,0,0,1-2.631-2.3h1.021a1.582,1.582,0,0,0,1.673,1.4,1.859,1.859,0,0,0,1.895-1.929,1.733,1.733,0,0,0-1.822-1.868,2.415,2.415,0,0,0-1.669.549Z" style="fill:#a8a8a8"/><path d="M232.164,48.078l3-8.719h1.09l3,8.719h-1.073l-.779-2.333H234.02l-.783,2.333Zm2.171-3.27h2.746l-1.307-3.917h-.12Z" style="fill:#a8a8a8"/><path d="M241.809,39.359l2.605,6.965h.1l2.623-6.965h1.26v8.719h-.988V41.539h-.085l-2.367,6.471h-.971l-2.367-6.471h-.085v6.539h-.987V39.359Z" style="fill:#a8a8a8"/></g></g></svg>