<?xml version="1.0" encoding="utf-8"?>
<!-- Generator: Adobe Illustrator 21.1.0, SVG Export Plug-In . SVG Version: 6.00 Build 0)  -->
<svg version="1.1" id="Calque_1" xmlns="http://www.w3.org/2000/svg" xmlns:xlink="http://www.w3.org/1999/xlink" x="0px" y="0px"
	 viewBox="0 0 651.4 415.6" style="enable-background:new 0 0 651.4 415.6;" xml:space="preserve">
<style type="text/css">
	.st0{opacity:0.4;fill:#5CDAFF;enable-background:new    ;}
	.st1{fill:#A8A8A8;}
	.st2{fill:#FFFFFF;}
	.st3{fill:#CDCCFD;}
	.st4{fill:none;stroke:#A8A8A8;stroke-miterlimit:10;}
</style>
<title>illustration_7</title>
<g id="bc80f0fb-c934-4a5a-8876-d1591c177048">
	<g id="b921926a-0db0-4bdd-8798-455f5cb38e6a">
		<path class="st0" d="M651.4,10.9c0,48.9-126.5,252.5-301.6,252.5S0,415.6,0,415.6h651.4V10.9z"/>
		<path class="st1" d="M160.3,289.3v51.8c0,1.1,0.9,2,2,2h0v-55.8h0C161.2,287.3,160.3,288.2,160.3,289.3z"/>
		<path class="st1" d="M160.3,219.5v51.8c0,1.1,0.9,2,2,2h0v-55.8h0C161.2,217.5,160.3,218.4,160.3,219.5z"/>
		<path class="st1" d="M160.3,164.9v25.4c0,1.1,0.9,2,2,2h0v-29.4h0C161.2,162.9,160.3,163.8,160.3,164.9z"/>
		<path class="st1" d="M540.3,322.9v-84.8c0-1-0.8-1.9-1.8-2v88.8C539.6,324.8,540.3,324,540.3,322.9z"/>
		<path class="st2" d="M505.2,32.3c-6.1-6.1-14.4-9.6-23.1-9.6h-34.8c-2.4,0-4.4,1.9-4.5,4.3c-0.3,7.3-2,12.8-5.3,16.5
			s-8.1,5.6-14.2,5.6c-13.3,0-62.6,0.2-101,0.2c-19.5,0-36.2-0.1-43.9-0.2c-6.9-0.2-12.3-2.1-15.9-5.8s-5.5-9.2-5.6-16.3
			c-0.1-2.4-2.1-4.4-4.5-4.4h-34c-18.1,0-32.7,14.6-32.7,32.7v360.2h0.2c0-15.3-0.1-254.4-0.1-254.1c0,13.9,17.8,44.9,51.3,75.4
			v-3.2h0.5v3.7c11.6,10.5,24,20,37,28.6h1.7v0.5h-0.9c21.1,13.7,43.8,24.6,67.6,32.7c31.8,10.7,60.4,25.9,84.7,41.8h0.6v0.4
			c49,32.2,80.6,68.1,86.1,74.3h0.4V55.5C514.8,46.8,511.4,38.5,505.2,32.3z M188.3,116.5h-1.8v0.8h-0.5V116h2.2V116.5z
			 M196.3,116.5h-4V116h4V116.5z M204.3,191.5h-4V191h4V191.5z M204.3,116.5h-4V116h4V116.5z M212.3,191.5h-4V191h4V191.5z
			 M212.3,116.5h-4V116h4V116.5z M220.3,191.5h-4V191h4V191.5z M220.3,116.5h-4V116h4V116.5z M228.3,191.5h-4V191h4V191.5z
			 M228.3,116.5h-4V116h4V116.5z M236.3,191.5h-4V191h4V191.5z M236.3,116.5h-4V116h4V116.5z M237.6,229.9h-0.5V226h0.5V229.9z
			 M237.6,222.1h-0.5v-3.9h0.5V222.1z M237.6,214.3h-0.5v-3.9h0.5V214.3z M237.6,206.5h-0.5v-3.9h0.5V206.5z M237.6,198.7h-0.5v-3.9
			h0.5V198.7z M237.6,190.9h-0.5V187h0.5V190.9z M237.6,183.1h-0.5v-3.9h0.5V183.1z M237.6,175.3h-0.5v-3.9h0.5V175.3z M237.6,167.5
			h-0.5v-3.9h0.5V167.5z M237.6,159.7h-0.5v-3.9h0.5V159.7z M237.6,151.9h-0.5V148h0.5V151.9z M237.6,144.1h-0.5v-3.9h0.5V144.1z
			 M237.6,136.3h-0.5v-3.9h0.5V136.3z M237.6,128.5h-0.5v-3.9h0.5V128.5z M237.6,120.7h-0.5v-3.9h0.5V120.7z M237.6,112.9h-0.5V109
			h0.5V112.9z M237.6,105.1h-0.5v-3.9h0.5V105.1z M237.6,97.3h-0.5v-2h0.5V97.3z M244.3,191.5h-4V191h4V191.5z M244.3,116.5h-4V116
			h4V116.5z M252.3,191.5h-4V191h4V191.5z M252.3,116.5h-4V116h4V116.5z M260.3,191.5h-4V191h4V191.5z M260.3,116.5h-4V116h4V116.5z
			 M268.3,191.5h-4V191h4V191.5z M268.3,116.5h-4V116h4V116.5z M276.3,191.5h-4V191h4V191.5z M276.3,116.5h-4V116h4V116.5z
			 M312.1,95.3h0.5v2h-0.5V95.3z M312.1,101.2h0.5v3.9h-0.5V101.2z M312.1,109h0.5v3.9h-0.5V109z M312.1,116.8h0.5v3.9h-0.5V116.8z
			 M312.1,124.6h0.5v3.9h-0.5V124.6z M312.1,132.4h0.5v3.9h-0.5V132.4z M312.1,140.2h0.5v3.9h-0.5V140.2z M312.1,148h0.5v3.9h-0.5
			V148z M312.1,155.8h0.5v3.9h-0.5V155.8z M312.1,163.6h0.5v3.9h-0.5V163.6z M312.1,171.4h0.5v3.9h-0.5V171.4z M312.1,179.2h0.5v3.9
			h-0.5V179.2z M312.1,187h0.5v3.9h-0.5V187z M312.1,194.8h0.5v3.9h-0.5V194.8z M312.1,202.6h0.5v3.9h-0.5V202.6z M312.1,210.4h0.5
			v3.9h-0.5V210.4z M312.1,218.2h0.5v3.9h-0.5V218.2z M312.1,226h0.5v3.9h-0.5V226z M312.1,233.8h0.5v3.9h-0.5V233.8z M312.1,241.6
			h0.5v3.9h-0.5V241.6z M312.1,249.4h0.5v3.9h-0.5V249.4z M312.1,257.2h0.5v3.9h-0.5V257.2z M284.3,266.5h-4V266h4V266.5z
			 M284.3,191.5h-4V191h4V191.5z M284.3,116.5h-4V116h4V116.5z M292.3,266.5h-4V266h4V266.5z M292.3,191.5h-4V191h4V191.5z
			 M292.3,116.5h-4V116h4V116.5z M300.3,266.5h-4V266h4V266.5z M300.3,191.5h-4V191h4V191.5z M300.3,116.5h-4V116h4V116.5z
			 M308.3,266.5h-4V266h4V266.5z M308.3,191.5h-4V191h4V191.5z M308.3,116.5h-4V116h4V116.5z M312.6,284.5h-0.5v-3.9h0.5V284.5z
			 M312.6,276.7h-0.5v-3.9h0.5V276.7z M316.3,266.5h-3.8v2.4h-0.5V265h0.5v1h3.8V266.5z M316.3,191.5h-4V191h4V191.5z M316.3,116.5
			h-4V116h4V116.5z M324.3,266.5h-4V266h4V266.5z M324.3,191.5h-4V191h4V191.5z M324.3,116.5h-4V116h4V116.5z M332.3,266.5h-4V266h4
			V266.5z M332.3,191.5h-4V191h4V191.5z M332.3,116.5h-4V116h4V116.5z M340.3,266.5h-4V266h4V266.5z M340.3,191.5h-4V191h4V191.5z
			 M340.3,116.5h-4V116h4V116.5z M387.1,95.2h0.5v2h-0.5V95.2z M387.1,101.1h0.5v3.9h-0.5V101.1z M387.1,108.9h0.5v3.9h-0.5V108.9z
			 M348.3,266.5h-4V266h4V266.5z M348.3,191.5h-4V191h4V191.5z M348.3,116.5h-4V116h4V116.5z M356.3,266.5h-4V266h4V266.5z
			 M356.3,191.5h-4V191h4V191.5z M356.3,116.5h-4V116h4V116.5z M364.3,266.5h-4V266h4V266.5z M364.3,191.5h-4V191h4V191.5z
			 M364.3,116.5h-4V116h4V116.5z M372.3,266.5h-4V266h4V266.5z M372.3,191.5h-4V191h4V191.5z M372.3,116.5h-4V116h4V116.5z
			 M380.3,266.5h-4V266h4V266.5z M380.3,191.5h-4V191h4V191.5z M380.3,116.5h-4V116h4V116.5z M387.6,315.7h-0.5v-3.9h0.5V315.7z
			 M387.6,307.9h-0.5V304h0.5V307.9z M387.6,300.1h-0.5v-3.9h0.5V300.1z M387.6,292.3h-0.5v-3.9h0.5V292.3z M387.6,284.5h-0.5v-3.9
			h0.5V284.5z M387.6,276.7h-0.5v-3.9h0.5V276.7z M388.3,266.5h-0.8v2.4h-0.5v-2.4h-2.8V266h2.8v-1h0.5v1h0.8V266.5z M387.6,202.5
			v3.9h-0.5v-3.9H387.6z M387.1,198.6v-3.9h0.5v3.9H387.1z M387.6,210.4v3.9h-0.5v-3.9H387.6z M387.6,218.2v3.9h-0.5v-3.9H387.6z
			 M387.6,226v3.9h-0.5V226H387.6z M387.6,233.8v3.9h-0.5v-3.9H387.6z M387.6,241.6v3.9h-0.5v-3.9H387.6z M387.6,249.4v3.9h-0.5
			v-3.9H387.6z M387.6,257.2v3.9h-0.5v-3.9H387.6z M388.3,191.5h-4V191h4V191.5z M387.6,124.5v3.9h-0.5v-3.9H387.6z M387.1,120.6
			v-3.9h0.5v3.9H387.1z M387.6,132.3v3.9h-0.5v-3.9H387.6z M387.6,140.1v3.9h-0.5v-3.9H387.6z M387.6,147.9v3.9h-0.5v-3.9H387.6z
			 M387.6,155.7v3.9h-0.5v-3.9H387.6z M387.6,163.5v3.9h-0.5v-3.9H387.6z M387.6,171.3v3.9h-0.5v-3.9H387.6z M387.6,179.1v3.9h-0.5
			v-3.9H387.6z M387.6,186.9v3.9h-0.5v-3.9H387.6z M388.3,116.4h-4v-0.5h4V116.4z M396.3,266.4h-4v-0.5h4V266.4z M396.3,191.4h-4
			v-0.5h4V191.4z M396.3,116.4h-4v-0.5h4V116.4z M404.3,266.4h-4v-0.5h4V266.4z M404.3,191.4h-4v-0.5h4V191.4z M404.3,116.4h-4v-0.5
			h4V116.4z M412.3,266.4h-4v-0.5h4V266.4z M412.3,191.4h-4v-0.5h4V191.4z M412.3,116.4h-4v-0.5h4V116.4z M420.3,266.4h-4v-0.5h4
			V266.4z M420.3,191.4h-4v-0.5h4V191.4z M420.3,116.4h-4v-0.5h4V116.4z M428.3,266.4h-4v-0.5h4V266.4z M428.3,191.4h-4v-0.5h4
			V191.4z M428.3,116.4h-4v-0.5h4V116.4z M436.3,341.4h-4v-0.5h4V341.4z M436.3,266.4h-4v-0.5h4V266.4z M436.3,191.4h-4v-0.5h4
			V191.4z M436.3,116.4h-4v-0.5h4V116.4z M444.3,341.4h-4v-0.5h4V341.4z M444.3,266.4h-4v-0.5h4V266.4z M444.3,191.4h-4v-0.5h4
			V191.4z M444.3,116.4h-4v-0.5h4V116.4z M452.3,341.4h-4v-0.5h4V341.4z M452.3,266.4h-4v-0.5h4V266.4z M452.3,191.4h-4v-0.5h4
			V191.4z M452.3,116.4h-4v-0.5h4V116.4z M460.3,341.4h-4v-0.5h4V341.4z M460.3,266.4h-4v-0.5h4V266.4z M460.3,191.4h-4v-0.5h4
			V191.4z M460.3,116.4h-4v-0.5h4V116.4z M462.6,362.5h-0.5v-3.9h0.5V362.5z M462.6,354.7h-0.5v-3.9h0.5V354.7z M462.6,346.9h-0.5
			V343h0.5V346.9z M462.6,339.1h-0.5v-3.9h0.5V339.1z M462.6,331.3h-0.5v-3.9h0.5V331.3z M462.6,323.5h-0.5v-3.9h0.5V323.5z
			 M462.6,315.7h-0.5v-3.9h0.5V315.7z M462.6,307.9h-0.5V304h0.5V307.9z M462.6,300.1h-0.5v-3.9h0.5V300.1z M462.6,292.3h-0.5v-3.9
			h0.5V292.3z M462.6,284.5h-0.5v-3.9h0.5V284.5z M462.6,276.7h-0.5v-3.9h0.5V276.7z M462.6,268.9h-0.5V265h0.5V268.9z M462.6,261.1
			h-0.5v-3.9h0.5V261.1z M462.6,253.3h-0.5v-3.9h0.5V253.3z M462.6,245.5h-0.5v-3.9h0.5V245.5z M462.6,237.7h-0.5v-3.9h0.5V237.7z
			 M462.6,229.9h-0.5V226h0.5V229.9z M462.6,222.1h-0.5v-3.9h0.5V222.1z M462.6,214.3h-0.5v-3.9h0.5V214.3z M462.6,206.5h-0.5v-3.9
			h0.5V206.5z M462.6,198.7h-0.5v-3.9h0.5V198.7z M462.6,190.9h-0.5V187h0.5V190.9z M462.6,183.1h-0.5v-3.9h0.5V183.1z M462.6,175.3
			h-0.5v-3.9h0.5V175.3z M462.6,167.5h-0.5v-3.9h0.5V167.5z M462.6,159.7h-0.5v-3.9h0.5V159.7z M462.6,151.9h-0.5V148h0.5V151.9z
			 M462.6,144.1h-0.5v-3.9h0.5V144.1z M462.6,136.3h-0.5v-3.9h0.5V136.3z M462.6,128.5h-0.5v-3.9h0.5V128.5z M462.6,120.7h-0.5v-3.9
			h0.5V120.7z M462.6,112.9h-0.5V109h0.5V112.9z M462.6,105.1h-0.5v-3.9h0.5V105.1z M462.6,97.3h-0.5v-2.1h0.5V97.3z M468.3,341.6
			h-4v-0.5h4V341.6z M468.3,266.6h-4v-0.5h4V266.6z M468.3,191.6h-4v-0.5h4V191.6z M468.3,116.6h-4v-0.5h4V116.6z M476.3,341.6h-4
			v-0.5h4V341.6z M476.3,266.6h-4v-0.5h4V266.6z M476.3,191.6h-4v-0.5h4V191.6z M476.3,116.6h-4v-0.5h4V116.6z M484.3,341.6h-4v-0.5
			h4V341.6z M484.3,266.6h-4v-0.5h4V266.6z M484.3,191.6h-4v-0.5h4V191.6z M484.3,116.6h-4v-0.5h4V116.6z M492.3,341.6h-4v-0.5h4
			V341.6z M492.3,266.6h-4v-0.5h4V266.6z M492.3,191.6h-4v-0.5h4V191.6z M492.3,116.6h-4v-0.5h4V116.6z M500.3,341.6h-4v-0.5h4
			V341.6z M500.3,266.6h-4v-0.5h4V266.6z M500.3,191.6h-4v-0.5h4V191.6z M500.3,116.6h-4v-0.5h4V116.6z M508.3,341.6h-4v-0.5h4
			V341.6z M508.3,266.6h-4v-0.5h4V266.6z M508.3,191.6h-4v-0.5h4V191.6z M508.3,116.6h-4v-0.5h4V116.6z M514.3,341.6h-2v-0.5h2
			V341.6z M514.3,266.6h-2v-0.5h2V266.6z M514.3,191.6h-2v-0.5h2V191.6z M514.6,117.3h-0.5v-0.8h-1.8v-0.5h2.2V117.3z"/>
		<path class="st2" d="M532.9,231.1h4.6v-177c0-29.3-23.8-53.1-53.1-53.1c0,0,0,0,0,0h-268c-29.3,0-53.1,23.8-53.1,53.1c0,0,0,0,0,0
			v103.8h4.4v39.4h-4.4v15.2h4.4v65.8h-4.4v4h4.4v65.8h-4.4v67.5h6.6V57.4c0-27.1,22-49.1,49.1-49.1c0,0,0,0,0,0h261.4
			c27.1,0,49.1,22,49.1,49.1c0,0,0,0,0,0v358.3h8v-85.7h-4.6L532.9,231.1z"/>
		<path class="st2" d="M514.5,23.3c-9-9-21.3-14.1-34-14.1H219.1c-26.6,0-48.1,21.5-48.1,48.1c0,0,0,0,0,0v358.3h13.8V55.5
			c0-18.6,15.1-33.7,33.7-33.7h34.5v0c2.8,0.2,4.9,2.5,5,5.3c0.2,6.9,2,12.1,5.4,15.6s8.4,5.3,15.2,5.5c7.7,0.2,24.4,0.2,43.9,0.2
			c38.4,0,87.7-0.2,101-0.2c6,0,10.4-1.8,13.5-5.2s4.8-8.8,5.1-15.9c0.1-3,2.5-5.3,5.5-5.3h34.8c18.6,0,33.7,15.1,33.7,33.7
			c0,0,0,0,0,0v360.2h12.8V57.4C528.6,44.6,523.5,32.4,514.5,23.3z"/>
		<rect x="163.4" y="282.3" class="st2" width="4.4" height="65.8"/>
		<rect x="163.4" y="212.5" class="st2" width="4.4" height="65.8"/>
		<rect x="163.4" y="157.9" class="st2" width="4.4" height="39.4"/>
		<rect x="532.9" y="231.1" class="st2" width="4.6" height="98.8"/>
		<path class="st1" d="M484.5,0.5c29.6,0,53.6,24,53.6,53.6c0,0,0,0,0,0v177h0.5v-177c0-29.9-24.2-54.1-54.1-54.1c0,0,0,0,0,0h-268
			v0.5H484.5z"/>
		<rect x="162.4" y="197.3" class="st1" width="0.5" height="15.2"/>
		<rect x="538.1" y="329.9" class="st1" width="0.5" height="85.7"/>
		<rect x="162.4" y="278.3" class="st1" width="0.5" height="4"/>
		<path class="st1" d="M162.9,54.1c0-29.6,24-53.6,53.6-53.6V0c-29.9,0-54.1,24.2-54.1,54.1v103.8h0.5V54.1z"/>
		<rect x="162.4" y="348.1" class="st1" width="0.5" height="67.5"/>
		<polygon class="st1" points="162.9,282.3 162.4,282.3 162.4,287.3 162.7,287.3 162.7,343.1 162.4,343.1 162.4,348.1 162.9,348.1
					"/>
		<rect x="162.4" y="287.3" class="st1" width="0.4" height="55.8"/>
		<polygon class="st1" points="162.9,212.5 162.4,212.5 162.4,217.5 162.7,217.5 162.7,273.3 162.4,273.3 162.4,278.3 162.9,278.3
					"/>
		<rect x="162.4" y="217.5" class="st1" width="0.4" height="55.8"/>
		<polygon class="st1" points="162.9,157.9 162.4,157.9 162.4,162.9 162.7,162.9 162.7,192.3 162.4,192.3 162.4,197.3 162.9,197.3
					"/>
		<rect x="162.4" y="162.9" class="st1" width="0.4" height="29.4"/>
		<path class="st1" d="M538.3,324.9h-0.3v5h0.5v-5C538.5,324.9,538.4,324.9,538.3,324.9z"/>
		<path class="st1" d="M538.1,236.1h0.3c0.1,0,0.2,0,0.2,0v-5h-0.5V236.1z"/>
		<path class="st1" d="M538.3,324.9c0.1,0,0.2,0,0.2,0v-88.8c-0.1,0-0.2,0-0.2,0h-0.3v88.8L538.3,324.9z"/>
		<path class="st1" d="M484.5,1c29.3,0,53.1,23.8,53.1,53.1c0,0,0,0,0,0v177h0.5v-177c0-29.6-24-53.6-53.6-53.6c0,0,0,0,0,0h-268V1
			H484.5z"/>
		<rect x="537.6" y="329.9" class="st1" width="0.5" height="85.7"/>
		<rect x="162.9" y="197.3" class="st1" width="0.5" height="15.2"/>
		<rect x="162.9" y="278.3" class="st1" width="0.5" height="4"/>
		<path class="st1" d="M163.4,54.1c0-29.3,23.8-53.1,53.1-53.1V0.5c-29.6,0-53.6,24-53.6,53.6v103.8h0.5V54.1z"/>
		<rect x="162.9" y="348.1" class="st1" width="0.5" height="67.5"/>
		<rect x="162.9" y="282.3" class="st1" width="0.5" height="65.8"/>
		<rect x="162.9" y="212.5" class="st1" width="0.5" height="65.8"/>
		<rect x="162.9" y="157.9" class="st1" width="0.5" height="39.4"/>
		<polygon class="st1" points="537.6,329.9 538.1,329.9 538.1,324.9 537.9,324.9 537.9,236.1 538.1,236.1 538.1,231.1 537.6,231.1
					"/>
		<rect x="537.9" y="236.1" class="st1" width="0.1" height="88.8"/>
		<path class="st1" d="M171,57.4c0-26.6,21.5-48.1,48.1-48.1v-1c-27.1,0-49.1,22-49.1,49.1c0,0,0,0,0,0v358.3h1L171,57.4z"/>
		<path class="st1" d="M219.1,9.3h261.4c26.6,0,48.1,21.5,48.1,48.1c0,0,0,0,0,0v358.3h1V57.4c0-27.1-22-49.1-49.1-49.1l0,0H219.1
			C219.1,8.3,219.1,9.3,219.1,9.3z"/>
		<rect x="472.3" y="341" class="st1" width="4" height="0.5"/>
		<rect x="488.3" y="341" class="st1" width="4" height="0.5"/>
		<rect x="496.3" y="341" class="st1" width="4" height="0.5"/>
		<rect x="440.3" y="341" class="st1" width="4" height="0.5"/>
		<rect x="456.3" y="341" class="st1" width="4" height="0.5"/>
		<rect x="504.3" y="341" class="st1" width="4" height="0.5"/>
		<rect x="464.3" y="341" class="st1" width="4" height="0.5"/>
		<rect x="448.3" y="341" class="st1" width="4" height="0.5"/>
		<rect x="480.3" y="341" class="st1" width="4" height="0.5"/>
		<path class="st1" d="M428.3,341h-0.6c0.2,0.1,0.4,0.2,0.6,0.4V341z"/>
		<rect x="432.3" y="341" class="st1" width="4" height="0.5"/>
		<rect x="512.3" y="341" class="st1" width="2" height="0.5"/>
		<rect x="288.3" y="266" class="st1" width="4" height="0.5"/>
		<rect x="464.3" y="266" class="st1" width="4" height="0.5"/>
		<rect x="336.3" y="266" class="st1" width="4" height="0.5"/>
		<rect x="472.3" y="266" class="st1" width="4" height="0.5"/>
		<rect x="328.3" y="266" class="st1" width="4" height="0.5"/>
		<rect x="312.6" y="266" class="st1" width="3.8" height="0.5"/>
		<rect x="416.3" y="266" class="st1" width="4" height="0.5"/>
		<rect x="448.3" y="266" class="st1" width="4" height="0.5"/>
		<rect x="424.3" y="266" class="st1" width="4" height="0.5"/>
		<rect x="280.3" y="266" class="st1" width="4" height="0.5"/>
		<rect x="400.3" y="266" class="st1" width="4" height="0.5"/>
		<rect x="392.3" y="266" class="st1" width="4" height="0.5"/>
		<rect x="440.3" y="266" class="st1" width="4" height="0.5"/>
		<rect x="408.3" y="266" class="st1" width="4" height="0.5"/>
		<rect x="496.3" y="266" class="st1" width="4" height="0.5"/>
		<rect x="387.6" y="266" class="st1" width="0.8" height="0.5"/>
		<rect x="376.3" y="266" class="st1" width="4" height="0.5"/>
		<rect x="504.3" y="266" class="st1" width="4" height="0.5"/>
		<rect x="360.3" y="266" class="st1" width="4" height="0.5"/>
		<rect x="368.3" y="266" class="st1" width="4" height="0.5"/>
		<rect x="384.3" y="266" class="st1" width="2.8" height="0.5"/>
		<path class="st1" d="M276.3,266.5V266h-1.7c0.3,0.2,0.5,0.3,0.8,0.5H276.3z"/>
		<rect x="480.3" y="266" class="st1" width="4" height="0.5"/>
		<rect x="304.3" y="266" class="st1" width="4" height="0.5"/>
		<rect x="296.3" y="266" class="st1" width="4" height="0.5"/>
		<rect x="488.3" y="266" class="st1" width="4" height="0.5"/>
		<rect x="344.3" y="266" class="st1" width="4" height="0.5"/>
		<rect x="456.3" y="266" class="st1" width="4" height="0.5"/>
		<rect x="352.3" y="266" class="st1" width="4" height="0.5"/>
		<rect x="320.3" y="266" class="st1" width="4" height="0.5"/>
		<rect x="432.3" y="266" class="st1" width="4" height="0.5"/>
		<rect x="512.3" y="266" class="st1" width="2" height="0.5"/>
		<rect x="440.3" y="191" class="st1" width="4" height="0.5"/>
		<rect x="448.3" y="191" class="st1" width="4" height="0.5"/>
		<rect x="456.3" y="191" class="st1" width="4" height="0.5"/>
		<rect x="312.3" y="191" class="st1" width="4" height="0.5"/>
		<rect x="320.3" y="191" class="st1" width="4" height="0.5"/>
		<rect x="384.3" y="191" class="st1" width="4" height="0.5"/>
		<rect x="344.3" y="191" class="st1" width="4" height="0.5"/>
		<rect x="432.3" y="191" class="st1" width="4" height="0.5"/>
		<rect x="352.3" y="191" class="st1" width="4" height="0.5"/>
		<rect x="368.3" y="191" class="st1" width="4" height="0.5"/>
		<rect x="376.3" y="191" class="st1" width="4" height="0.5"/>
		<rect x="336.3" y="191" class="st1" width="4" height="0.5"/>
		<rect x="408.3" y="191" class="st1" width="4" height="0.5"/>
		<rect x="416.3" y="191" class="st1" width="4" height="0.5"/>
		<rect x="424.3" y="191" class="st1" width="4" height="0.5"/>
		<rect x="392.3" y="191" class="st1" width="4" height="0.5"/>
		<rect x="400.3" y="191" class="st1" width="4" height="0.5"/>
		<rect x="328.3" y="191" class="st1" width="4" height="0.5"/>
		<rect x="360.3" y="191" class="st1" width="4" height="0.5"/>
		<rect x="248.3" y="191" class="st1" width="4" height="0.5"/>
		<rect x="504.3" y="191" class="st1" width="4" height="0.5"/>
		<rect x="256.3" y="191" class="st1" width="4" height="0.5"/>
		<rect x="496.3" y="191" class="st1" width="4" height="0.5"/>
		<rect x="264.3" y="191" class="st1" width="4" height="0.5"/>
		<rect x="240.3" y="191" class="st1" width="4" height="0.5"/>
		<rect x="488.3" y="191" class="st1" width="4" height="0.5"/>
		<rect x="216.3" y="191" class="st1" width="4" height="0.5"/>
		<rect x="464.3" y="191" class="st1" width="4" height="0.5"/>
		<rect x="208.3" y="191" class="st1" width="4" height="0.5"/>
		<rect x="232.3" y="191" class="st1" width="4" height="0.5"/>
		<rect x="480.3" y="191" class="st1" width="4" height="0.5"/>
		<rect x="224.3" y="191" class="st1" width="4" height="0.5"/>
		<rect x="472.3" y="191" class="st1" width="4" height="0.5"/>
		<rect x="288.3" y="191" class="st1" width="4" height="0.5"/>
		<rect x="280.3" y="191" class="st1" width="4" height="0.5"/>
		<rect x="272.3" y="191" class="st1" width="4" height="0.5"/>
		<rect x="200.3" y="191" class="st1" width="4" height="0.5"/>
		<rect x="304.3" y="191" class="st1" width="4" height="0.5"/>
		<rect x="296.3" y="191" class="st1" width="4" height="0.5"/>
		<rect x="512.3" y="191" class="st1" width="2" height="0.5"/>
		<polygon class="st1" points="186.1,117.2 186.6,117.2 186.6,116.5 188.3,116.5 188.3,116 186.1,116 		"/>
		<rect x="328.3" y="116" class="st1" width="4" height="0.5"/>
		<rect x="472.3" y="116" class="st1" width="4" height="0.5"/>
		<rect x="192.3" y="116" class="st1" width="4" height="0.5"/>
		<rect x="320.3" y="116" class="st1" width="4" height="0.5"/>
		<rect x="464.3" y="116" class="st1" width="4" height="0.5"/>
		<rect x="488.3" y="116" class="st1" width="4" height="0.5"/>
		<rect x="496.3" y="116" class="st1" width="4" height="0.5"/>
		<rect x="504.3" y="116" class="st1" width="4" height="0.5"/>
		<rect x="352.3" y="116" class="st1" width="4" height="0.5"/>
		<rect x="360.3" y="116" class="st1" width="4" height="0.5"/>
		<rect x="200.3" y="116" class="st1" width="4" height="0.5"/>
		<rect x="304.3" y="116" class="st1" width="4" height="0.5"/>
		<rect x="336.3" y="116" class="st1" width="4" height="0.5"/>
		<rect x="344.3" y="116" class="st1" width="4" height="0.5"/>
		<rect x="368.3" y="116" class="st1" width="4" height="0.5"/>
		<rect x="480.3" y="116" class="st1" width="4" height="0.5"/>
		<rect x="280.3" y="116" class="st1" width="4" height="0.5"/>
		<rect x="448.3" y="116" class="st1" width="4" height="0.5"/>
		<rect x="440.3" y="116" class="st1" width="4" height="0.5"/>
		<rect x="272.3" y="116" class="st1" width="4" height="0.5"/>
		<rect x="264.3" y="116" class="st1" width="4" height="0.5"/>
		<rect x="432.3" y="116" class="st1" width="4" height="0.5"/>
		<rect x="296.3" y="116" class="st1" width="4" height="0.5"/>
		<rect x="312.3" y="116" class="st1" width="4" height="0.5"/>
		<rect x="376.3" y="116" class="st1" width="4" height="0.5"/>
		<rect x="456.3" y="116" class="st1" width="4" height="0.5"/>
		<rect x="288.3" y="116" class="st1" width="4" height="0.5"/>
		<rect x="384.3" y="116" class="st1" width="4" height="0.5"/>
		<rect x="256.3" y="116" class="st1" width="4" height="0.5"/>
		<rect x="216.3" y="116" class="st1" width="4" height="0.5"/>
		<rect x="224.3" y="116" class="st1" width="4" height="0.5"/>
		<rect x="400.3" y="116" class="st1" width="4" height="0.5"/>
		<rect x="208.3" y="116" class="st1" width="4" height="0.5"/>
		<rect x="248.3" y="116" class="st1" width="4" height="0.5"/>
		<rect x="392.3" y="116" class="st1" width="4" height="0.5"/>
		<rect x="424.3" y="116" class="st1" width="4" height="0.5"/>
		<rect x="240.3" y="116" class="st1" width="4" height="0.5"/>
		<rect x="408.3" y="116" class="st1" width="4" height="0.5"/>
		<rect x="416.3" y="116" class="st1" width="4" height="0.5"/>
		<rect x="232.3" y="116" class="st1" width="4" height="0.5"/>
		<polygon class="st1" points="512.3,116 512.3,116.5 514.1,116.5 514.1,117.2 514.6,117.2 514.6,116.2 514.6,116 		"/>
		<rect x="462.1" y="350.8" class="st1" width="0.5" height="3.9"/>
		<rect x="462.1" y="280.6" class="st1" width="0.5" height="3.9"/>
		<rect x="462.1" y="288.4" class="st1" width="0.5" height="3.9"/>
		<rect x="462.1" y="272.8" class="st1" width="0.5" height="3.9"/>
		<rect x="462.1" y="241.6" class="st1" width="0.5" height="3.9"/>
		<rect x="462.1" y="304" class="st1" width="0.5" height="3.9"/>
		<rect x="462.1" y="249.4" class="st1" width="0.5" height="3.9"/>
		<rect x="462.1" y="257.2" class="st1" width="0.5" height="3.9"/>
		<rect x="462.1" y="265" class="st1" width="0.5" height="3.9"/>
		<rect x="462.1" y="296.2" class="st1" width="0.5" height="3.9"/>
		<rect x="462.1" y="101.1" class="st1" width="0.5" height="3.9"/>
		<rect x="462.1" y="343" class="st1" width="0.5" height="3.9"/>
		<rect x="462.1" y="311.8" class="st1" width="0.5" height="3.9"/>
		<rect x="462.1" y="335.2" class="st1" width="0.5" height="3.9"/>
		<rect x="462.1" y="358.6" class="st1" width="0.5" height="3.9"/>
		<rect x="462.1" y="108.9" class="st1" width="0.5" height="3.9"/>
		<rect x="462.1" y="319.6" class="st1" width="0.5" height="3.9"/>
		<rect x="462.1" y="116.7" class="st1" width="0.5" height="3.9"/>
		<rect x="462.1" y="327.4" class="st1" width="0.5" height="3.9"/>
		<rect x="462.1" y="194.7" class="st1" width="0.5" height="3.9"/>
		<rect x="462.1" y="202.5" class="st1" width="0.5" height="3.9"/>
		<rect x="462.1" y="179.1" class="st1" width="0.5" height="3.9"/>
		<rect x="462.1" y="186.9" class="st1" width="0.5" height="3.9"/>
		<rect x="462.1" y="225.9" class="st1" width="0.5" height="3.9"/>
		<rect x="462.1" y="218.1" class="st1" width="0.5" height="3.9"/>
		<rect x="462.1" y="210.3" class="st1" width="0.5" height="3.9"/>
		<rect x="462.1" y="155.7" class="st1" width="0.5" height="3.9"/>
		<rect x="462.1" y="132.3" class="st1" width="0.5" height="3.9"/>
		<rect x="462.1" y="124.5" class="st1" width="0.5" height="3.9"/>
		<rect x="462.1" y="140.1" class="st1" width="0.5" height="3.9"/>
		<rect x="462.1" y="163.5" class="st1" width="0.5" height="3.9"/>
		<rect x="462.1" y="147.9" class="st1" width="0.5" height="3.9"/>
		<rect x="462.1" y="171.3" class="st1" width="0.5" height="3.9"/>
		<rect x="462.1" y="233.8" class="st1" width="0.5" height="3.9"/>
		<rect x="462.1" y="95.2" class="st1" width="0.5" height="2"/>
		<rect x="387.1" y="280.6" class="st1" width="0.5" height="3.9"/>
		<rect x="387.1" y="249.4" class="st1" width="0.5" height="3.9"/>
		<rect x="387.1" y="194.7" class="st1" width="0.5" height="3.9"/>
		<rect x="387.1" y="265" class="st1" width="0.5" height="1"/>
		<rect x="387.1" y="202.5" class="st1" width="0.5" height="3.9"/>
		<rect x="387.1" y="210.3" class="st1" width="0.5" height="3.9"/>
		<rect x="387.1" y="218.1" class="st1" width="0.5" height="3.9"/>
		<rect x="387.1" y="233.8" class="st1" width="0.5" height="3.9"/>
		<rect x="387.1" y="241.6" class="st1" width="0.5" height="3.9"/>
		<rect x="387.1" y="225.9" class="st1" width="0.5" height="3.9"/>
		<rect x="387.1" y="296.2" class="st1" width="0.5" height="3.9"/>
		<rect x="387.1" y="304" class="st1" width="0.5" height="3.9"/>
		<rect x="387.1" y="186.9" class="st1" width="0.5" height="3.9"/>
		<rect x="387.1" y="288.4" class="st1" width="0.5" height="3.9"/>
		<rect x="387.1" y="311.8" class="st1" width="0.5" height="3.9"/>
		<rect x="387.1" y="272.8" class="st1" width="0.5" height="3.9"/>
		<rect x="387.1" y="266.5" class="st1" width="0.5" height="2.4"/>
		<rect x="387.1" y="132.3" class="st1" width="0.5" height="3.9"/>
		<rect x="387.1" y="140.1" class="st1" width="0.5" height="3.9"/>
		<rect x="387.1" y="171.3" class="st1" width="0.5" height="3.9"/>
		<rect x="387.1" y="179.1" class="st1" width="0.5" height="3.9"/>
		<rect x="387.1" y="147.9" class="st1" width="0.5" height="3.9"/>
		<rect x="387.1" y="155.7" class="st1" width="0.5" height="3.9"/>
		<rect x="387.1" y="124.5" class="st1" width="0.5" height="3.9"/>
		<rect x="387.1" y="257.2" class="st1" width="0.5" height="3.9"/>
		<rect x="387.1" y="163.5" class="st1" width="0.5" height="3.9"/>
		<rect x="387.1" y="116.7" class="st1" width="0.5" height="3.9"/>
		<rect x="387.1" y="101.1" class="st1" width="0.5" height="3.9"/>
		<rect x="387.1" y="108.9" class="st1" width="0.5" height="3.9"/>
		<rect x="387.1" y="266" class="st1" width="0.5" height="0.5"/>
		<rect x="387.1" y="95.2" class="st1" width="0.5" height="2"/>
		<rect x="312.1" y="116.7" class="st1" width="0.5" height="3.9"/>
		<rect x="312.1" y="108.9" class="st1" width="0.5" height="3.9"/>
		<rect x="312.1" y="101.1" class="st1" width="0.5" height="3.9"/>
		<rect x="312.1" y="163.5" class="st1" width="0.5" height="3.9"/>
		<rect x="312.1" y="124.5" class="st1" width="0.5" height="3.9"/>
		<rect x="312.1" y="225.9" class="st1" width="0.5" height="3.9"/>
		<rect x="312.1" y="218.1" class="st1" width="0.5" height="3.9"/>
		<rect x="312.1" y="241.6" class="st1" width="0.5" height="3.9"/>
		<rect x="312.1" y="210.3" class="st1" width="0.5" height="3.9"/>
		<rect x="312.1" y="257.2" class="st1" width="0.5" height="3.9"/>
		<rect x="312.1" y="249.4" class="st1" width="0.5" height="3.9"/>
		<rect x="312.1" y="272.8" class="st1" width="0.5" height="3.9"/>
		<rect x="312.1" y="202.5" class="st1" width="0.5" height="3.9"/>
		<polygon class="st1" points="312.3,266 312.6,266 312.6,265 312.1,265 312.1,268.9 312.6,268.9 312.6,266.5 312.3,266.5 		"/>
		<rect x="312.1" y="280.6" class="st1" width="0.5" height="3.9"/>
		<rect x="312.1" y="233.8" class="st1" width="0.5" height="3.9"/>
		<rect x="312.1" y="140.1" class="st1" width="0.5" height="3.9"/>
		<rect x="312.1" y="132.3" class="st1" width="0.5" height="3.9"/>
		<rect x="312.1" y="147.9" class="st1" width="0.5" height="3.9"/>
		<rect x="312.1" y="155.7" class="st1" width="0.5" height="3.9"/>
		<rect x="312.1" y="186.9" class="st1" width="0.5" height="3.9"/>
		<rect x="312.1" y="194.7" class="st1" width="0.5" height="3.9"/>
		<rect x="312.1" y="179.1" class="st1" width="0.5" height="3.9"/>
		<rect x="312.1" y="171.3" class="st1" width="0.5" height="3.9"/>
		<rect x="312.3" y="266" class="st1" width="0.2" height="0.5"/>
		<rect x="312.1" y="95.2" class="st1" width="0.5" height="2"/>
		<rect x="237.1" y="210.3" class="st1" width="0.5" height="3.9"/>
		<rect x="237.1" y="218.1" class="st1" width="0.5" height="3.9"/>
		<rect x="237.1" y="202.5" class="st1" width="0.5" height="3.9"/>
		<path class="st1" d="M237.6,233.8h-0.5v3.2c0.2,0.2,0.3,0.3,0.5,0.5V233.8z"/>
		<rect x="237.1" y="225.9" class="st1" width="0.5" height="3.9"/>
		<rect x="237.1" y="155.7" class="st1" width="0.5" height="3.9"/>
		<rect x="237.1" y="124.5" class="st1" width="0.5" height="3.9"/>
		<rect x="237.1" y="140.1" class="st1" width="0.5" height="3.9"/>
		<rect x="237.1" y="116.7" class="st1" width="0.5" height="3.9"/>
		<rect x="237.1" y="132.3" class="st1" width="0.5" height="3.9"/>
		<rect x="237.1" y="101.1" class="st1" width="0.5" height="3.9"/>
		<rect x="237.1" y="194.7" class="st1" width="0.5" height="3.9"/>
		<rect x="237.1" y="108.9" class="st1" width="0.5" height="3.9"/>
		<rect x="237.1" y="186.9" class="st1" width="0.5" height="3.9"/>
		<rect x="237.1" y="147.9" class="st1" width="0.5" height="3.9"/>
		<rect x="237.1" y="171.3" class="st1" width="0.5" height="3.9"/>
		<rect x="237.1" y="179.1" class="st1" width="0.5" height="3.9"/>
		<rect x="237.1" y="163.5" class="st1" width="0.5" height="3.9"/>
		<rect x="237.1" y="95.2" class="st1" width="0.5" height="2"/>
		<polygon class="st1" points="252.4,22.3 252.4,22.3 251.9,22.3 251.9,22.3 251.9,22.8 252.4,22.8 		"/>
		<path class="st1" d="M185.8,55.5c0-18.1,14.6-32.7,32.7-32.7v-1c-18.6,0-33.7,15.1-33.7,33.7v360.2h1V55.5z"/>
		<path class="st1" d="M218.5,22.8h33.5v-0.5h0.5v-0.5c0.2,0,0.3,0,0.5,0v0h-34.5V22.8z"/>
		<path class="st1" d="M252.9,22.3h-0.5v0.5l0,0c2.4,0,4.4,2,4.5,4.4c0.2,7.1,2,12.5,5.6,16.3s9,5.6,15.9,5.8
			c7.7,0.2,24.4,0.2,43.9,0.2c38.4,0,87.7-0.2,101-0.2c6.1,0,10.9-1.8,14.2-5.6s5-9.3,5.3-16.5c0.1-2.4,2.1-4.3,4.5-4.3h34.8
			c18.1,0,32.7,14.6,32.7,32.7c0,0,0,0,0,0v360.2h1V55.5c0-18.6-15.1-33.7-33.7-33.7l0,0h-34.8c-3,0-5.4,2.3-5.5,5.3
			c-0.3,7.1-2,12.4-5.1,15.9s-7.5,5.2-13.5,5.2c-13.3,0-62.6,0.2-101,0.2c-19.5,0-36.2-0.1-43.9-0.2c-6.8-0.2-11.8-2-15.2-5.5
			s-5.2-8.6-5.4-15.6c-0.1-2.8-2.2-5.1-5-5.3L252.9,22.3L252.9,22.3z"/>
		<path class="st1" d="M252.4,22.3h0.5v-0.5c-0.2,0-0.3,0-0.5,0V22.3z"/>
		<path class="st3" d="M462.1,366.4h0.5v3.9h-0.5V366.4z M462.1,374.2h0.5v3.9h-0.5V374.2z M462.1,382h0.5v3.9h-0.5V382z
			 M462.1,389.8h0.5v3.9h-0.5V389.8z M462.1,397.6h0.5v3.9h-0.5V397.6z M462.1,405.4h0.5v3.9h-0.5V405.4z M387.6,409.3h-0.5v-3.9
			h0.5V409.3z M387.6,401.5h-0.5v-3.9h0.5V401.5z M387.6,393.7h-0.5v-3.9h0.5V393.7z M387.6,385.9h-0.5V382h0.5V385.9z M387.6,378.1
			h-0.5v-3.9h0.5V378.1z M387.6,370.3h-0.5v-3.9h0.5V370.3z M387.6,362.5h-0.5v-3.9h0.5V362.5z M387.6,354.7h-0.5v-3.9h0.5V354.7z
			 M387.6,346.9h-0.5V343h0.5V346.9z M416.3,341h4v0.5h-4V341z M408.3,341h4v0.5h-4V341z M400.3,341h4v0.5h-4V341z M392.3,341h4v0.5
			h-4V341z M387.1,319.6h0.5v3.9h-0.5V319.6z M387.1,327.4h0.5v3.9h-0.5V327.4z M387.1,335.2h0.5v3.9h-0.5V335.2z M384.3,341h4v0.5
			h-4V341z M376.3,341h4v0.5h-4V341z M368.3,341h4v0.5h-4V341z M360.3,341h4v0.5h-4V341z M352.3,341h4v0.5h-4V341z M344.3,341h4v0.5
			h-4V341z M336.3,341h4v0.5h-4V341z M328.3,341h4v0.5h-4V341z M320.3,341h4v0.5h-4V341z M316.3,341.5h-4V341h4V341.5z M312.1,288.4
			h0.5v3.9h-0.5V288.4z M312.1,296.2h0.5v3.9h-0.5V296.2z M312.1,304h0.5v3.9h-0.5V304z M312.1,311.8h0.5v3.9h-0.5V311.8z
			 M312.1,319.6h0.5v3.9h-0.5V319.6z M312.1,327.4h0.5v3.9h-0.5V327.4z M312.1,335.2h0.5v3.9h-0.5V335.2z M312.1,343h0.5v3.9h-0.5
			V343z M312.1,350.8h0.5v3.9h-0.5V350.8z M312.1,358.6h0.5v3.9h-0.5V358.6z M312.1,366.4h0.5v3.9h-0.5V366.4z M312.1,374.2h0.5v3.9
			h-0.5V374.2z M312.1,382h0.5v3.9h-0.5V382z M312.1,389.8h0.5v3.9h-0.5V389.8z M312.1,397.6h0.5v3.9h-0.5V397.6z M312.1,405.4h0.5
			v3.9h-0.5V405.4z M304.3,340.9h4v0.5h-4V340.9z M296.3,340.9h4v0.5h-4V340.9z M288.3,340.9h4v0.5h-4V340.9z M280.3,340.9h4v0.5h-4
			V340.9z M272.3,340.9h4v0.5h-4V340.9z M264.3,265.9h4v0.5h-4V265.9z M264.3,340.9h4v0.5h-4V340.9z M256.3,265.9h4v0.5h-4V265.9z
			 M256.3,340.9h4v0.5h-4V340.9z M248.3,265.9h4v0.5h-4V265.9z M248.3,340.9h4v0.5h-4V340.9z M240.3,265.9h4v0.5h-4V265.9z
			 M240.3,340.9h4v0.5h-4V340.9z M237.1,241.5h0.5v3.9h-0.5V241.5z M237.1,249.3h0.5v3.9h-0.5V249.3z M237.1,257.1h0.5v3.9h-0.5
			V257.1z M237.1,264.9h0.5v3.9h-0.5V264.9z M237.1,272.7h0.5v3.9h-0.5V272.7z M237.1,280.5h0.5v3.9h-0.5V280.5z M237.1,288.3h0.5
			v3.9h-0.5V288.3z M237.1,296.1h0.5v3.9h-0.5V296.1z M237.1,303.9h0.5v3.9h-0.5V303.9z M237.1,311.7h0.5v3.9h-0.5V311.7z
			 M237.1,319.5h0.5v3.9h-0.5V319.5z M237.1,327.3h0.5v3.9h-0.5V327.3z M237.1,335.1h0.5v3.9h-0.5V335.1z M237.1,342.9h0.5v3.9h-0.5
			V342.9z M237.1,350.7h0.5v3.9h-0.5V350.7z M237.1,358.5h0.5v3.9h-0.5V358.5z M237.1,366.3h0.5v3.9h-0.5V366.3z M237.1,374.1h0.5
			v3.9h-0.5V374.1z M237.1,381.9h0.5v3.9h-0.5V381.9z M237.1,389.7h0.5v3.9h-0.5V389.7z M237.1,397.5h0.5v3.9h-0.5V397.5z
			 M237.1,405.3h0.5v3.9h-0.5V405.3z M188.3,341.3h-2v-0.5h2V341.3z M188.3,266.3h-2v-0.5h2V266.3z M188.3,191.3h-2v-0.5h2V191.3z
			 M196.3,341.3h-4v-0.5h4V341.3z M196.3,266.3h-4v-0.5h4V266.3z M196.3,191.3h-4v-0.5h4V191.3z M204.3,341.3h-4v-0.5h4V341.3z
			 M204.3,266.3h-4v-0.5h4V266.3z M212.3,341.3h-4v-0.5h4V341.3z M212.3,266.3h-4v-0.5h4V266.3z M220.3,341.3h-4v-0.5h4V341.3z
			 M220.3,266.3h-4v-0.5h4V266.3z M228.3,341.3h-4v-0.5h4V341.3z M228.3,266.3h-4v-0.5h4V266.3z M236.3,341.3h-4v-0.5h4V341.3z
			 M232.3,266.3v-0.5h4v0.5H232.3z"/>
		<rect x="186.3" y="341" class="st3" width="2" height="0.5"/>
		<rect x="288.3" y="341" class="st3" width="4" height="0.5"/>
		<rect x="264.3" y="341" class="st3" width="4" height="0.5"/>
		<rect x="280.3" y="341" class="st3" width="4" height="0.5"/>
		<rect x="272.3" y="341" class="st3" width="4" height="0.5"/>
		<rect x="408.3" y="341" class="st3" width="4" height="0.5"/>
		<rect x="256.3" y="341" class="st3" width="4" height="0.5"/>
		<rect x="400.3" y="341" class="st3" width="4" height="0.5"/>
		<rect x="312.3" y="341" class="st3" width="4" height="0.5"/>
		<rect x="240.3" y="341" class="st3" width="4" height="0.5"/>
		<rect x="248.3" y="341" class="st3" width="4" height="0.5"/>
		<rect x="360.3" y="341" class="st3" width="4" height="0.5"/>
		<rect x="328.3" y="341" class="st3" width="4" height="0.5"/>
		<rect x="336.3" y="341" class="st3" width="4" height="0.5"/>
		<rect x="416.3" y="341" class="st3" width="4" height="0.5"/>
		<rect x="344.3" y="341" class="st3" width="4" height="0.5"/>
		<rect x="320.3" y="341" class="st3" width="4" height="0.5"/>
		<rect x="296.3" y="341" class="st3" width="4" height="0.5"/>
		<rect x="384.3" y="341" class="st3" width="4" height="0.5"/>
		<rect x="304.3" y="341" class="st3" width="4" height="0.5"/>
		<rect x="376.3" y="341" class="st3" width="4" height="0.5"/>
		<rect x="352.3" y="341" class="st3" width="4" height="0.5"/>
		<rect x="368.3" y="341" class="st3" width="4" height="0.5"/>
		<rect x="392.3" y="341" class="st3" width="4" height="0.5"/>
		<path class="st3" d="M424.3,341.5h4v-0.1c-0.2-0.1-0.4-0.2-0.6-0.4h-3.4V341.5z"/>
		<rect x="224.3" y="341" class="st3" width="4" height="0.5"/>
		<rect x="232.3" y="341" class="st3" width="4" height="0.5"/>
		<rect x="216.3" y="341" class="st3" width="4" height="0.5"/>
		<rect x="192.3" y="341" class="st3" width="4" height="0.5"/>
		<rect x="200.3" y="341" class="st3" width="4" height="0.5"/>
		<rect x="208.3" y="341" class="st3" width="4" height="0.5"/>
		<rect x="186.3" y="266" class="st3" width="2" height="0.5"/>
		<rect x="200.3" y="266" class="st3" width="4" height="0.5"/>
		<rect x="248.3" y="266" class="st3" width="4" height="0.5"/>
		<rect x="192.3" y="266" class="st3" width="4" height="0.5"/>
		<rect x="256.3" y="266" class="st3" width="4" height="0.5"/>
		<path class="st3" d="M272.3,266.5h3.1c-0.3-0.2-0.5-0.3-0.8-0.5h-2.3L272.3,266.5z"/>
		<rect x="264.3" y="266" class="st3" width="4" height="0.5"/>
		<rect x="240.3" y="266" class="st3" width="4" height="0.5"/>
		<rect x="216.3" y="266" class="st3" width="4" height="0.5"/>
		<rect x="224.3" y="266" class="st3" width="4" height="0.5"/>
		<rect x="232.3" y="266" class="st3" width="4" height="0.5"/>
		<rect x="208.3" y="266" class="st3" width="4" height="0.5"/>
		<rect x="186.3" y="191" class="st3" width="2" height="0.5"/>
		<rect x="192.3" y="191" class="st3" width="4" height="0.5"/>
		<rect x="462.1" y="413.2" class="st3" width="0.5" height="2.4"/>
		<rect x="462.1" y="382" class="st3" width="0.5" height="3.9"/>
		<rect x="462.1" y="405.4" class="st3" width="0.5" height="3.9"/>
		<rect x="462.1" y="374.2" class="st3" width="0.5" height="3.9"/>
		<rect x="462.1" y="366.4" class="st3" width="0.5" height="3.9"/>
		<rect x="462.1" y="397.6" class="st3" width="0.5" height="3.9"/>
		<rect x="462.1" y="389.8" class="st3" width="0.5" height="3.9"/>
		<rect x="387.1" y="413.2" class="st3" width="0.5" height="2.4"/>
		<rect x="387.1" y="374.2" class="st3" width="0.5" height="3.9"/>
		<rect x="387.1" y="389.8" class="st3" width="0.5" height="3.9"/>
		<rect x="387.1" y="382" class="st3" width="0.5" height="3.9"/>
		<rect x="387.1" y="397.6" class="st3" width="0.5" height="3.9"/>
		<rect x="387.1" y="405.4" class="st3" width="0.5" height="3.9"/>
		<rect x="387.1" y="366.4" class="st3" width="0.5" height="3.9"/>
		<rect x="387.1" y="319.6" class="st3" width="0.5" height="3.9"/>
		<rect x="387.1" y="358.6" class="st3" width="0.5" height="3.9"/>
		<rect x="387.1" y="343" class="st3" width="0.5" height="3.9"/>
		<rect x="387.1" y="327.4" class="st3" width="0.5" height="3.9"/>
		<rect x="387.1" y="350.8" class="st3" width="0.5" height="3.9"/>
		<rect x="387.1" y="335.2" class="st3" width="0.5" height="3.9"/>
		<rect x="312.1" y="413.2" class="st3" width="0.5" height="2.4"/>
		<rect x="312.1" y="382" class="st3" width="0.5" height="3.9"/>
		<rect x="312.1" y="366.4" class="st3" width="0.5" height="3.9"/>
		<rect x="312.1" y="389.8" class="st3" width="0.5" height="3.9"/>
		<rect x="312.1" y="358.6" class="st3" width="0.5" height="3.9"/>
		<rect x="312.1" y="397.6" class="st3" width="0.5" height="3.9"/>
		<rect x="312.1" y="304" class="st3" width="0.5" height="3.9"/>
		<rect x="312.1" y="405.4" class="st3" width="0.5" height="3.9"/>
		<rect x="312.1" y="374.2" class="st3" width="0.5" height="3.9"/>
		<rect x="312.1" y="288.4" class="st3" width="0.5" height="3.9"/>
		<rect x="312.1" y="319.6" class="st3" width="0.5" height="3.9"/>
		<rect x="312.1" y="311.8" class="st3" width="0.5" height="3.9"/>
		<rect x="312.1" y="350.8" class="st3" width="0.5" height="3.9"/>
		<rect x="312.1" y="296.2" class="st3" width="0.5" height="3.9"/>
		<rect x="312.1" y="327.4" class="st3" width="0.5" height="3.9"/>
		<rect x="312.1" y="343" class="st3" width="0.5" height="3.9"/>
		<rect x="312.1" y="335.2" class="st3" width="0.5" height="3.9"/>
		<rect x="237.1" y="413.2" class="st3" width="0.5" height="2.4"/>
		<rect x="237.1" y="374.2" class="st3" width="0.5" height="3.9"/>
		<rect x="237.1" y="366.4" class="st3" width="0.5" height="3.9"/>
		<rect x="237.1" y="350.8" class="st3" width="0.5" height="3.9"/>
		<rect x="237.1" y="358.6" class="st3" width="0.5" height="3.9"/>
		<rect x="237.1" y="343" class="st3" width="0.5" height="3.9"/>
		<rect x="237.1" y="382" class="st3" width="0.5" height="3.9"/>
		<path class="st3" d="M237.6,237.7v-0.2c-0.2-0.2-0.3-0.3-0.5-0.5v0.7L237.6,237.7z"/>
		<rect x="237.1" y="397.6" class="st3" width="0.5" height="3.9"/>
		<rect x="237.1" y="335.2" class="st3" width="0.5" height="3.9"/>
		<rect x="237.1" y="389.8" class="st3" width="0.5" height="3.9"/>
		<rect x="237.1" y="405.4" class="st3" width="0.5" height="3.9"/>
		<rect x="237.1" y="265" class="st3" width="0.5" height="3.9"/>
		<rect x="237.1" y="272.8" class="st3" width="0.5" height="3.9"/>
		<rect x="237.1" y="327.4" class="st3" width="0.5" height="3.9"/>
		<rect x="237.1" y="241.6" class="st3" width="0.5" height="3.9"/>
		<rect x="237.1" y="280.6" class="st3" width="0.5" height="3.9"/>
		<rect x="237.1" y="249.4" class="st3" width="0.5" height="3.9"/>
		<rect x="237.1" y="257.2" class="st3" width="0.5" height="3.9"/>
		<rect x="237.1" y="319.6" class="st3" width="0.5" height="3.9"/>
		<rect x="237.1" y="288.4" class="st3" width="0.5" height="3.9"/>
		<rect x="237.1" y="311.8" class="st3" width="0.5" height="3.9"/>
		<rect x="237.1" y="304" class="st3" width="0.5" height="3.9"/>
		<rect x="237.1" y="296.2" class="st3" width="0.5" height="3.9"/>
		<path class="st2" d="M514.8,415.6L514.8,415.6h-0.4H514.8z"/>
		<path class="st3" d="M462.6,415.6L462.6,415.6h-0.5l0,0h-74.5l0,0h-0.5l0,0h-74.5l0,0h-0.5l0,0h-74.5l0,0h-0.5l0,0H186
			c0,0.5,0,0,0,0h328.8l0,0h-0.4H462.6z"/>
		<polygon class="st3" points="462.1,415.6 462.6,415.6 462.6,415.6 462.1,415.6 		"/>
		<polygon class="st3" points="387.1,415.6 387.6,415.6 387.6,415.6 387.1,415.6 		"/>
		<polygon class="st3" points="312.1,415.6 312.6,415.6 312.6,415.6 312.1,415.6 		"/>
		<polygon class="st3" points="237.1,415.6 237.6,415.6 237.6,415.6 237.1,415.6 		"/>
		<path class="st4" d="M330.6,27.9h37.2c1.7,0,3,1.3,3,3v0c0,1.7-1.3,3-3,3h-37.2c-1.7,0-3-1.3-3-3v0
			C327.6,29.2,328.9,27.9,330.6,27.9z"/>
		<path class="st1" d="M204.8,43.8l0.5-4.5h4.6v1h-3.6l-0.4,2.7h0.1c0.4-0.3,1-0.5,1.5-0.5c1.5-0.1,2.7,1,2.8,2.5c0,0.1,0,0.2,0,0.3
			c0.1,1.5-1.1,2.8-2.6,2.8c-0.1,0-0.3,0-0.4,0c-1.3,0.1-2.5-0.8-2.6-2.2c0,0,0-0.1,0-0.1h1c0.1,0.8,0.8,1.5,1.7,1.4
			c1,0,1.9-0.8,1.9-1.8c0,0,0-0.1,0-0.1c0.1-1-0.6-1.8-1.6-1.9c-0.1,0-0.2,0-0.2,0c-0.6,0-1.2,0.2-1.7,0.5L204.8,43.8z"/>
		<path class="st1" d="M211.9,41.6c0-0.4,0.3-0.8,0.8-0.8c0.4,0,0.8,0.3,0.8,0.8s-0.3,0.8-0.8,0.8C212.2,42.4,211.9,42.1,211.9,41.6
			C211.9,41.6,211.9,41.6,211.9,41.6z M211.9,46.1c0-0.4,0.3-0.8,0.8-0.8c0.4,0,0.8,0.3,0.8,0.8c0,0.4-0.3,0.8-0.8,0.8
			C212.2,46.8,211.9,46.5,211.9,46.1C211.9,46.1,211.9,46.1,211.9,46.1z"/>
		<path class="st1" d="M215.3,43.8l0.5-4.5h4.6v1h-3.6l-0.4,2.7h0.1c0.4-0.3,1-0.5,1.5-0.5c1.5-0.1,2.7,1,2.8,2.5c0,0.1,0,0.2,0,0.3
			c0.1,1.5-1.1,2.8-2.6,2.8c-0.1,0-0.3,0-0.4,0c-1.3,0.1-2.5-0.8-2.6-2.2c0,0,0-0.1,0-0.1h1c0.1,0.8,0.8,1.5,1.7,1.4
			c1,0,1.9-0.8,1.9-1.8c0,0,0-0.1,0-0.1c0.1-1-0.6-1.8-1.6-1.9c-0.1,0-0.2,0-0.2,0c-0.6,0-1.2,0.2-1.7,0.5L215.3,43.8z"/>
		<path class="st1" d="M222.4,43.8l0.5-4.5h4.6v1h-3.6l-0.4,2.7h0.1c0.4-0.3,1-0.5,1.5-0.5c1.5-0.1,2.7,1,2.8,2.5c0,0.1,0,0.2,0,0.3
			c0.1,1.5-1.1,2.8-2.6,2.8c-0.1,0-0.3,0-0.4,0c-1.3,0.1-2.5-0.8-2.6-2.2c0,0,0-0.1,0-0.1h1c0.1,0.8,0.8,1.5,1.7,1.4
			c1,0,1.9-0.8,1.9-1.8c0,0,0-0.1,0-0.1c0.1-1-0.6-1.8-1.6-1.9c-0.1,0-0.2,0-0.2,0c-0.6,0-1.2,0.2-1.7,0.5L222.4,43.8z"/>
		<path class="st1" d="M232.2,48.1l3-8.7h1.1l3,8.7h-1.1l-0.8-2.3H234l-0.8,2.3L232.2,48.1z M234.3,44.8h2.7l-1.3-3.9h-0.1
			L234.3,44.8z"/>
		<path class="st1" d="M241.8,39.4l2.6,7h0.1l2.6-7h1.3v8.7h-1v-6.5h-0.1L245,48h-1l-2.4-6.5h-0.1v6.5h-1v-8.7H241.8z"/>
		<path class="st3" d="M237.1,413.2h0.5v2.4h74.5v-2.4h0.5v2.4h74.5v-2.4h0.5v2.4h74.5v-2.4h0.5v2.4h51.8
			c-5.4-6.2-37.1-42.1-86.1-74.3v0.1h-4V341h3.4c-24.4-15.9-53-31.2-84.7-41.8c-23.8-8-46.6-19-67.6-32.7h-3.1V266h2.3
			c-13.1-8.5-25.5-18.1-37-28.6v0.2h-0.5V237c-33.5-30.5-51.3-61.6-51.3-75.4c0-0.3,0.1,238.8,0.1,254.1h51.1L237.1,413.2z"/>
	</g>
</g>
</svg>
