<svg xmlns="http://www.w3.org/2000/svg" width="294.193" height="65" viewBox="0 0 294.193 65"><title>logo_long_blue2</title><g id="aea4c6e7-5679-497a-8755-99a1544a33f9" data-name="01 identity"><path d="M84.49,65l.1-64.939,26.873.13c5.831,0,10.422,1.757,13.643,5.22,3.2,3.448,4.825,8.111,4.825,13.858s-1.625,10.41-4.828,13.857c-3.218,3.464-7.809,5.221-13.64,5.221H96.283L96.181,65ZM96.148,10.755V27.784l14.711.13a7.39,7.39,0,0,0,5.2-1.694,6.38,6.38,0,0,0,1.8-4.891v-4.12a6.38,6.38,0,0,0-1.8-4.89,7.4,7.4,0,0,0-5.2-1.7H96.278Z" style="fill:#051d4b"/><path d="M177.65,65a22.68,22.68,0,0,1-9.018-1.719,18.923,18.923,0,0,1-6.81-4.952,22.13,22.13,0,0,1-4.286-7.758,32.129,32.129,0,0,1-1.475-10.02,32.147,32.147,0,0,1,1.475-10.02,22.074,22.074,0,0,1,4.289-7.758,18.871,18.871,0,0,1,6.807-4.952A22.68,22.68,0,0,1,177.65,16.1a21.645,21.645,0,0,1,9.079,1.814,18.275,18.275,0,0,1,6.589,5.052,21.833,21.833,0,0,1,3.932,7.445,30.525,30.525,0,0,1,1.295,9.011v4.568l-30.8-.131-.13.579a11.155,11.155,0,0,0,2.842,7.876c1.862,2.011,4.6,3.031,8.142,3.031a12.062,12.062,0,0,0,6.543-1.67,17.733,17.733,0,0,0,4.912-5.149l.346-.541,6.8,6.936-.229.19a20.307,20.307,0,0,1-7.83,7.311A24.688,24.688,0,0,1,177.65,65Zm0-39.765a10.456,10.456,0,0,0-4.116.8,9,9,0,0,0-3.157,2.209,10.1,10.1,0,0,0-2.035,3.428,12.933,12.933,0,0,0-.717,4.052l19.058.134a11.031,11.031,0,0,0-2.345-7.769A8.226,8.226,0,0,0,177.65,25.235Z" style="fill:#051d4b"/><path d="M218.519,65c-4.891,0-8.725-1.308-11.4-3.886a13.878,13.878,0,0,1-4.04-10.427c0-4.794,1.776-8.449,5.276-10.863,3.394-2.347,8.387-3.536,14.838-3.536h7.133l.13-2.928a7.881,7.881,0,0,0-1.994-5.785c-1.328-1.323-3.478-1.994-6.393-1.994a10.43,10.43,0,0,0-6,1.576,17.8,17.8,0,0,0-4.317,4.659l-.331.518-6.939-6.5.244-.2a20.621,20.621,0,0,1,6.835-6.932c2.839-1.724,6.576-2.6,11.111-2.6,6.024,0,10.738,1.443,14.007,4.289,3.307,2.879,4.983,7.038,4.983,12.363v21.6l4.895.131-.13,9.61-6.169-.131a8.341,8.341,0,0,1-6.365-2.4,9.781,9.781,0,0,1-2.068-3.422,14.373,14.373,0,0,1-4.439,4.562A16.476,16.476,0,0,1,218.519,65Zm4.851-20.879c-5.993,0-8.906,1.7-8.906,5.18v1.56a4.44,4.44,0,0,0,1.679,3.838,8.377,8.377,0,0,0,5.063,1.341,11.831,11.831,0,0,0,6.776-1.8,5.17,5.17,0,0,0,2.478-4.511V44.252Z" style="fill:#051d4b"/><path d="M145.659,65c-3.4,0-5.981-.887-7.683-2.636a9.991,9.991,0,0,1-2.556-7.251V4.053L146.285.13,146.109,56l6.367.13L152.349,65Z" style="fill:#051d4b"/><polygon points="252.451 64.87 252.581 3.923 263.446 0 263.27 38.075 268.821 31.346 279.902 18.96 292.848 19.004 276.229 36.863 294.193 64.87 281.365 64.87 268.869 44.138 263.306 49.865 263.27 65 252.451 64.87" style="fill:#051d4b"/><path d="M0,19.543V65l14.409-.09V42.686l12.04-4.022V64.836l12.041-.075V22.852l12.04-4.02V64.31A19.468,19.468,0,0,0,64.939,45.518V.061H19.482A19.481,19.481,0,0,0,0,19.543Z" style="fill:#1162fb"/></g></svg>