<svg width="117" height="25" viewBox="0 0 117 25" fill="none" xmlns="http://www.w3.org/2000/svg">
<path fill-rule="evenodd" clip-rule="evenodd" d="M65.7754 1.5L65.7363 24.9612L69.9482 24.9998V19.1921L72.1328 16.9614L77.0078 24.9612H82.001L74.9805 14.1921L81.4541 7.30762H76.4229L72.0938 12.0383L69.9482 14.6537L69.9873 0L65.7754 1.5ZM0 24.9998L0.0390625 0.0385132L10.5312 0.0769653C12.793 0.0769653 14.5869 0.769287 15.835 2.07697C17.083 3.38464 17.707 5.19232 17.707 7.42303C17.707 9.61536 17.083 11.423 15.835 12.7692C14.5869 14.1153 12.793 14.7691 10.5312 14.7691H4.60254L4.56348 24.9998H0ZM4.52441 4.15387V10.6923L10.2578 10.7307C11.1162 10.7307 11.8184 10.4999 12.2861 10.0768C12.7539 9.65381 12.9883 8.99994 12.9883 8.19226V6.61536C12.9883 5.80768 12.7539 5.15387 12.2861 4.73077C11.8184 4.30768 11.1162 4.0769 10.2578 4.0769H4.60254L4.52441 4.15387ZM36.5654 24.9998C35.2783 24.9998 34.0693 24.769 33.0547 24.346C32.041 23.9229 31.1436 23.269 30.4023 22.4229C29.6621 21.6152 29.1152 20.6152 28.7256 19.423C28.3359 18.2691 28.1406 16.9614 28.1406 15.5768C28.1406 14.1538 28.3359 12.8846 28.7256 11.7307C29.1152 10.5769 29.6621 9.5769 30.4023 8.73077C31.1436 7.9231 32.041 7.26923 33.0547 6.80774C34.0693 6.38464 35.2783 6.15387 36.5654 6.15387C37.8916 6.15387 39.1006 6.38464 40.1143 6.84619C41.1289 7.30768 41.9863 7.96155 42.6885 8.80768C43.3516 9.61536 43.8975 10.5769 44.21 11.6538C44.5605 12.7307 44.7168 13.8846 44.7168 15.1153V16.923L32.7041 16.8845L32.665 17.1153C32.665 18.3461 33.0547 19.346 33.7568 20.1537C34.498 20.923 35.5508 21.3076 36.916 21.3076C37.9307 21.3076 38.7881 21.0768 39.4512 20.6537C40.1143 20.2691 40.8164 19.4999 41.3623 18.6922L41.4795 18.4999L44.1318 21.1537L44.0537 21.2307C43.3516 22.3845 42.2207 23.4229 41.0117 24.0383C39.7637 24.6537 38.2422 24.9998 36.5654 24.9998ZM36.5654 9.69232C35.9805 9.69232 35.4346 9.80768 34.9658 10C34.498 10.1923 34.0693 10.5 33.7178 10.8461C33.3672 11.1923 33.0938 11.6538 32.9375 12.1538C32.7822 12.6154 32.665 13.1538 32.665 13.7307L40.1143 13.7692C40.1533 12.4999 39.8418 11.4999 39.2178 10.7692C38.5156 10.0769 37.6572 9.69232 36.5654 9.69232ZM48.0312 23.5C49.084 24.5 50.5664 25 52.4775 25C53.8418 25 54.9736 24.6923 55.9092 24.1923C56.6113 23.7308 57.1572 23.1539 57.626 22.4231C57.8203 22.9231 58.0938 23.3461 58.4443 23.7308C59.0293 24.3461 59.8877 24.6538 60.9404 24.6538L63.3594 24.6923L63.3984 21L61.4873 20.9615V12.654C61.4873 10.5771 60.8242 9.00018 59.5371 7.88477C58.25 6.76941 56.416 6.23096 54.0762 6.23096C52.3213 6.23096 50.8389 6.57709 49.7471 7.23096C48.6943 7.84631 47.7188 8.80786 47.0947 9.88477L47.0166 9.96167L49.708 12.4617L49.8252 12.2693C50.293 11.5386 50.9561 10.8463 51.502 10.4617C52.0869 10.0386 52.8672 9.84631 53.8418 9.84631C54.9736 9.84631 55.8311 10.1155 56.3389 10.6155C56.8457 11.1155 57.1182 11.8848 57.1182 12.8463L57.0791 13.9617H54.3105C51.8145 13.9617 49.8643 14.4232 48.5381 15.3078C47.1729 16.2693 46.4707 17.6539 46.4707 19.5001C46.4707 21.1539 46.9775 22.5 48.0312 23.5ZM50.917 18.9616C50.917 17.6155 52.0479 16.9616 54.3887 16.9616L57.1963 17.0001V19.1154C57.1963 19.8462 56.8848 20.4231 56.2217 20.8462C55.5195 21.3077 54.6611 21.5385 53.5693 21.5385C52.7109 21.5385 52.0479 21.3846 51.5801 21.0385C51.1123 20.7308 50.917 20.2308 50.917 19.577V18.9616ZM24.0859 24.9999C22.7598 24.9999 21.7451 24.6537 21.082 23.9999C20.4189 23.3461 20.0684 22.3845 20.0684 21.1923V1.57709L24.3193 0.0770874L24.2412 21.5384L26.7383 21.5768L26.6992 24.9999H24.0859Z" transform="translate(35)" fill="white"/>
<path d="M0 7.47304V25L5.55556 24.9615V16.4099L10.1852 14.869V24.9615L14.8148 24.923V8.78274L19.4444 7.24191V24.7689C22.6466 23.9214 25 20.9938 25 17.527V5.74005e-10H7.52315C3.35648 5.74005e-10 0 3.35131 0 7.47304Z" fill="white"/>
</svg>
